<svg width="624" height="417" viewBox="0 0 624 417" fill="none" xmlns="http://www.w3.org/2000/svg">
<path d="M197.895 52.0521L178.72 55.1955L178.091 45.9224L177.62 16.217C177.62 16.217 179.191 1.60013 187.05 0.499927C190.036 0.028414 192.237 1.75729 193.808 3.95769C194.28 4.74354 194.751 5.68658 195.223 6.47243C196.323 8.67283 196.795 10.5589 196.795 10.5589L197.895 52.0521Z" fill="#0AC6FF"/>
<path d="M96.2051 90.0873L79.8593 98.2602L79.3878 90.2444L79.0735 64.9399C79.0735 64.9399 80.488 52.3662 87.2464 51.4232C89.7611 51.1088 91.6472 52.6805 92.9045 54.4094C93.4284 55.1429 93.8475 55.8763 94.1619 56.6098C95.1049 58.4959 95.4193 60.0676 95.4193 60.0676L96.2051 90.0873Z" fill="#0AC6FF"/>
<path d="M20.2914 126.708L12.9044 131.109L13.0616 126.079L14.4761 110.676C14.4761 110.676 15.7335 102.975 18.7197 102.818C19.8199 102.661 20.4486 103.604 20.9202 104.861C21.1297 105.28 21.2869 105.699 21.3917 106.118C21.5488 107.376 21.706 108.319 21.706 108.319L20.2914 126.708Z" fill="#0AC6FF"/>
<path d="M247.404 193.033L215.027 193.19L214.241 135.98C214.241 135.98 219.899 119.162 235.302 117.276C237.502 116.962 239.545 117.119 241.274 117.748C244.103 122.306 245.518 126.707 245.518 126.707L247.404 193.033Z" fill="#0AC6FF"/>
<path d="M167.089 209.694L137.07 209.851L136.284 156.413C136.284 156.413 141.628 140.539 156.244 138.652C158.131 138.495 159.859 138.652 161.431 138.967C164.103 143.21 165.203 147.14 165.203 147.14L167.089 209.694Z" fill="#0AC6FF"/>
<path d="M102.492 225.096L80.488 225.253L80.0165 179.202C80.0165 179.202 84.2601 165.057 96.048 163.485C96.8862 163.38 97.6721 163.38 98.4055 163.485C100.292 166.785 101.077 169.772 101.077 169.772L102.492 225.096Z" fill="#0AC6FF"/>
<path d="M51.7257 194.291L50.6255 244.114L35.0656 243.486L36.4801 202.464C36.4801 202.464 40.4094 190.205 49.9969 188.947C51.2542 191.934 51.7257 194.291 51.7257 194.291Z" fill="#0AC6FF"/>
<path d="M16.6765 210.165L15.2619 256.059L9.60376 255.745L11.8041 220.067C11.8041 220.067 12.9043 212.366 16.3621 208.437C16.5193 209.537 16.6765 210.165 16.6765 210.165Z" fill="#0AC6FF"/>
<path d="M620.371 318.299C618.275 317.88 616.18 317.461 614.084 317.042L612.827 277.12C612.827 277.12 613.141 274.605 613.927 271.776C617.07 275.863 618.171 282.936 618.171 282.936L620.371 318.299Z" fill="#0AC6FF"/>
<path d="M596.782 313.672C591.543 312.939 586.147 312.258 580.594 311.629L579.651 266.364C579.651 266.364 580.594 261.492 583.108 257.248C591.596 259.448 595.21 270.45 595.21 270.45L596.782 313.672Z" fill="#0AC6FF"/>
<path d="M554.189 260.391L553.56 308.642C546.173 307.857 538.629 307.228 531.242 306.442L532.656 255.047C532.656 255.047 534.228 249.389 537.686 244.674C537.791 244.674 537.895 244.674 538 244.674C549.788 246.246 554.189 260.391 554.189 260.391Z" fill="#0AC6FF"/>
<path d="M487.391 248.289L488.177 302.827C477.332 302.356 467.116 301.884 458 301.413L458.157 243.731C458.157 243.731 460.043 236.501 464.758 231C465.492 231 466.225 231.052 466.959 231.157C481.733 232.415 487.391 248.289 487.391 248.289Z" fill="#0AC6FF"/>
<path d="M413.691 293.466L356.166 294.095L357.738 237.985C357.738 237.985 364.025 223.054 384.143 223.054C404.103 223.054 412.748 238.299 412.748 238.299L413.691 293.466Z" fill="#0AC6FF"/>
<path d="M250.547 305.725L217.856 305.882L216.912 244.742C216.912 244.742 222.571 227.925 238.131 226.039C239.074 225.934 240.017 225.882 240.96 225.882C246.304 231.54 248.504 239.399 248.504 239.399L250.547 305.725Z" fill="#0AC6FF"/>
<path d="M165.989 313.27L135.655 313.427L134.869 256.06C134.869 256.06 140.213 240.185 154.83 238.299C155.668 238.195 156.454 238.195 157.188 238.299C162.06 243.643 164.103 250.716 164.103 250.716L165.989 313.27Z" fill="#0AC6FF"/>
<path d="M98.5626 317.985H76.2443L75.6156 268.004C75.6156 268.004 79.8592 253.859 91.6471 252.287C91.7519 252.287 91.8566 252.287 91.9614 252.287C95.5763 256.845 96.9909 262.66 96.9909 262.66L98.5626 317.985Z" fill="#0AC6FF"/>
<path d="M49.9969 273.976L48.8966 323.642L32.8652 323.014L34.4369 278.063C34.4369 278.063 38.0518 267.061 46.5391 264.86C49.0538 269.104 49.9969 273.976 49.9969 273.976Z" fill="#0AC6FF"/>
<path d="M11.0183 284.35L9.60382 330.244L3.15979 329.929L5.67454 290.322C5.67454 290.322 6.77475 283.092 9.91818 279.006C10.704 281.835 11.0183 284.35 11.0183 284.35Z" fill="#0AC6FF"/>
<path d="M623.829 410.872L618.013 411.03L616.756 366.393C616.756 366.393 617.385 361.678 618.956 357.906C621.157 361.364 622.1 365.293 622.1 365.293L623.829 410.872Z" fill="#0AC6FF"/>
<path d="M593.809 411.345L578.563 411.659L577.62 364.036C577.62 364.036 579.192 355.706 583.907 351.462C589.722 355.235 592.237 362.936 592.237 362.936L593.809 411.345Z" fill="#0AC6FF"/>
<path d="M549.801 411.973L528.583 412.445L528.111 359.164C528.111 359.164 530.469 348.79 536.913 344.39C545.086 348.162 548.544 358.064 548.544 358.064L549.801 411.973Z" fill="#0AC6FF"/>
<path d="M484.889 413.073L455.655 413.545L455.498 353.506C455.498 353.506 458.799 340.46 467.758 336.217C479.074 339.832 483.789 352.248 483.789 352.248L484.889 413.073Z" fill="#0AC6FF"/>
<path d="M414.153 414.13H413.839L356.314 414.601H356L357.886 343.56C357.886 343.56 364.173 328 384.291 328C404.252 328 412.896 343.874 412.896 343.874L414.153 414.13Z" fill="url(#paint0_linear_212_188)"/>
<path d="M339.192 415.431L303.985 415.588L303.042 345.804C303.042 345.804 307.6 330.716 320.174 327.101C333.691 330.873 336.991 346.119 336.991 346.119L339.192 415.431Z" fill="#0AC6FF"/>
<path d="M251.962 415.431L220.37 415.588L219.427 348.791C219.427 348.791 223.985 335.274 236.087 331.03C245.989 335.274 250.076 349.105 250.076 349.105L251.962 415.431Z" fill="#0AC6FF"/>
<path d="M164.575 416.06L135.498 415.274L136.598 352.248C136.598 352.248 141.313 339.832 152.63 336.217C161.588 340.46 164.889 353.506 164.889 353.506L164.575 416.06Z" fill="#0AC6FF"/>
<path d="M97.934 414.488L76.7159 413.859L77.9733 358.064C77.9733 358.064 81.2739 348.162 89.6039 344.39C96.048 348.79 98.4055 359.164 98.4055 359.164L97.934 414.488Z" fill="#0AC6FF"/>
<path d="M44.1815 413.702L28.7787 413.074L30.5076 362.936C30.5076 362.936 33.0224 355.235 38.8377 351.462C43.5528 355.706 45.1245 364.036 45.1245 364.036L44.1815 413.702Z" fill="#0AC6FF"/>
<path d="M8.03205 366.393L6.7747 411.815L0.959351 411.501L2.84542 365.293C2.84542 365.293 3.78844 361.364 5.83166 357.906C7.56055 361.678 8.03205 366.393 8.03205 366.393Z" fill="#0AC6FF"/>
<defs>
<linearGradient id="paint0_linear_212_188" x1="30293.3" y1="29356.8" x2="30293.3" y2="24585" gradientUnits="userSpaceOnUse">
<stop stop-color="#51A6FE"/>
<stop offset="1" stop-color="#0AC5FF"/>
</linearGradient>
</defs>
</svg>
