<svg width="816" height="947" viewBox="0 0 816 947" fill="none" xmlns="http://www.w3.org/2000/svg">
<path d="M354.7 540.924C353.816 540.187 353.816 539.007 354.406 538.27C355.142 537.385 356.322 537.238 357.206 537.975C357.943 538.712 358.09 539.892 357.353 540.777C356.616 541.514 355.437 541.662 354.7 540.924Z" fill="white"/>
<path d="M5.69124 107.212C4.80692 106.474 4.65943 105.294 5.39636 104.41C6.13329 103.672 7.31241 103.525 8.19672 104.262C8.93365 104.999 9.081 106.179 8.34407 107.064C7.60714 107.801 6.42816 107.949 5.69124 107.212Z" fill="white"/>
<path d="M499.876 602.126C498.991 601.388 498.991 600.209 499.728 599.471C500.465 598.586 501.644 598.439 502.381 599.176C503.266 599.914 503.265 601.093 502.676 601.978C501.939 602.716 500.612 602.863 499.876 602.126Z" fill="white"/>
<path d="M185.649 731.014C184.765 730.277 184.765 729.097 185.502 728.212C186.238 727.475 187.417 727.328 188.154 728.065C189.039 728.802 189.039 729.982 188.449 730.867C187.712 731.604 186.386 731.752 185.649 731.014Z" fill="white"/>
<path d="M239.887 604.041C239.003 603.304 239.003 601.976 239.592 601.239C240.329 600.354 241.656 600.354 242.393 601.091C243.277 601.681 243.277 603.009 242.54 603.746C241.803 604.631 240.624 604.631 239.887 604.041Z" fill="white"/>
<g style="mix-blend-mode:soft-light">
<path d="M189.924 362.041C188.45 360.861 188.302 358.649 189.481 357.174C190.808 355.7 193.019 355.552 194.345 356.88C195.819 358.059 195.966 360.271 194.787 361.746C193.461 363.221 191.25 363.368 189.924 362.041Z" fill="white"/>
</g>
<g style="mix-blend-mode:soft-light">
<path d="M459.197 795.607C457.723 794.427 457.576 792.215 458.902 790.74C460.081 789.413 462.292 789.266 463.766 790.445C465.24 791.773 465.387 793.985 464.061 795.312C462.882 796.787 460.671 796.934 459.197 795.607Z" fill="white"/>
</g>
<g style="mix-blend-mode:soft-light">
<path d="M325.518 407.758C324.192 406.579 324.044 404.366 325.223 402.892C326.55 401.565 328.613 401.417 330.087 402.597C331.561 403.924 331.708 405.989 330.382 407.463C329.203 408.938 326.992 409.086 325.518 407.758Z" fill="white"/>
</g>
<g style="mix-blend-mode:soft-light">
<path d="M170.616 574.548C169.289 573.368 169.142 571.156 170.321 569.681C171.647 568.207 173.711 568.059 175.185 569.386C176.659 570.566 176.806 572.778 175.48 574.253C174.3 575.728 172.09 575.875 170.616 574.548Z" fill="white"/>
</g>
<g style="mix-blend-mode:soft-light">
<path d="M433.11 946.028C431.636 944.848 431.489 942.636 432.668 941.161C433.994 939.834 436.205 939.687 437.532 940.866C439.005 942.194 439.153 944.258 437.974 945.733C436.647 947.208 434.436 947.355 433.11 946.028Z" fill="white"/>
</g>
<g style="mix-blend-mode:soft-light">
<path d="M1.85901 126.824C-0.351771 124.907 -0.499049 121.515 1.41697 119.303C3.33298 117.239 6.72282 116.944 8.9336 118.861C10.997 120.778 11.2918 124.17 9.37583 126.382C7.45982 128.594 4.0698 128.741 1.85901 126.824Z" fill="white"/>
</g>
<g style="mix-blend-mode:soft-light">
<path d="M214.389 253.945C212.915 252.618 212.768 250.406 214.094 249.079C215.421 247.604 217.484 247.457 218.958 248.784C220.432 249.964 220.579 252.176 219.253 253.65C218.074 254.978 215.863 255.125 214.389 253.945Z" fill="white"/>
</g>
<path d="M623.091 352.899C623.091 353.342 622.796 353.784 622.353 353.784C621.911 353.784 621.469 353.489 621.469 353.047C621.469 352.605 621.763 352.31 622.206 352.162C622.648 352.162 622.943 352.457 623.091 352.899Z" fill="white"/>
<path d="M663.327 414.69C663.475 415.132 663.18 415.574 662.737 415.574C662.295 415.574 661.852 415.279 661.852 414.837C661.705 414.395 662 414.1 662.442 413.952C662.885 413.952 663.327 414.247 663.327 414.69Z" fill="white"/>
<path d="M609.826 742.664C609.826 743.107 609.531 743.549 609.089 743.549C608.646 743.549 608.204 743.254 608.204 742.812C608.057 742.369 608.499 741.927 608.941 741.927C609.384 741.927 609.679 742.222 609.826 742.664Z" fill="white"/>
<path d="M139.812 788.38C139.96 789.413 139.223 790.15 138.338 790.297C137.454 790.445 136.57 789.708 136.422 788.823C136.422 787.79 137.012 786.906 138.043 786.906C138.928 786.758 139.812 787.495 139.812 788.38Z" fill="white"/>
<path d="M269.512 736.028C269.659 737.208 268.775 738.24 267.596 738.388C266.417 738.535 265.385 737.65 265.237 736.47C265.09 735.291 265.974 734.258 267.153 734.111C268.332 733.963 269.512 734.848 269.512 736.028Z" fill="white"/>
<path d="M96.6291 318.98C96.7766 319.422 96.3341 319.865 95.8917 319.865C95.4493 320.012 95.1544 319.57 95.0069 319.127C95.0069 318.685 95.3019 318.39 95.7443 318.39C96.1867 318.242 96.6291 318.537 96.6291 318.98Z" fill="white"/>
<path d="M137.013 380.771C137.013 381.213 136.718 381.655 136.275 381.655C135.833 381.803 135.538 381.36 135.391 380.918C135.391 380.476 135.686 380.181 136.128 380.033C136.57 380.033 137.013 380.328 137.013 380.771Z" fill="white"/>
<path d="M235.171 312.049C235.171 313.229 234.287 314.261 233.108 314.409C231.928 314.556 230.749 313.672 230.602 312.492C230.455 311.165 231.486 310.132 232.665 309.985C233.845 309.837 235.024 310.722 235.171 312.049Z" fill="white"/>
<path d="M154.699 654.183C154.846 654.625 154.551 654.92 154.109 655.068C153.667 655.068 153.224 654.773 153.224 654.33C153.077 653.888 153.519 653.445 153.814 653.445C154.257 653.445 154.699 653.74 154.699 654.183Z" fill="white"/>
<path d="M154.109 430.172C154.256 431.352 153.372 432.532 152.193 432.532C151.013 432.679 149.834 431.795 149.834 430.615C149.687 429.435 150.571 428.403 151.751 428.255C152.93 428.108 153.961 428.993 154.109 430.172Z" fill="white"/>
<path d="M111.219 328.712C111.367 329.745 110.63 330.482 109.746 330.629C108.861 330.777 107.977 330.04 107.829 329.007C107.829 328.122 108.419 327.238 109.451 327.238C110.335 327.09 111.219 327.828 111.219 328.712Z" fill="white"/>
<path d="M685.73 629.555C685.73 629.997 685.435 630.44 684.992 630.44C684.55 630.44 684.108 630.145 684.108 629.702C684.108 629.26 684.402 628.965 684.845 628.817C685.287 628.817 685.582 629.112 685.73 629.555Z" fill="white"/>
<path d="M539.67 475.741C539.818 476.184 539.376 476.626 538.933 476.626C538.491 476.626 538.196 476.331 538.048 475.889C538.048 475.446 538.343 475.004 538.786 475.004C539.228 475.004 539.67 475.299 539.67 475.741Z" fill="white"/>
<path d="M93.3867 607.434C93.3867 607.877 93.0917 608.172 92.6493 608.319C92.2069 608.319 91.9118 608.024 91.7643 607.582C91.7643 607.139 92.0593 606.697 92.5017 606.697C92.9441 606.549 93.3867 606.992 93.3867 607.434Z" fill="white"/>
<path d="M626.186 470.728C626.333 471.023 625.891 471.466 625.596 471.466C625.153 471.613 624.711 471.318 624.711 470.876C624.564 470.433 624.858 469.991 625.301 469.991C625.743 469.843 626.186 470.286 626.186 470.728Z" fill="white"/>
<path d="M525.963 699.16C525.963 700.045 525.373 700.93 524.341 700.93C523.457 701.078 522.573 700.34 522.573 699.455C522.425 698.423 523.162 697.686 524.047 697.538C525.078 697.391 525.815 698.128 525.963 699.16Z" fill="white"/>
<path d="M420.583 666.128C420.583 666.57 420.288 666.865 419.845 667.012C419.403 667.012 419.108 666.717 418.96 666.275C418.96 665.833 419.255 665.39 419.698 665.39C420.14 665.243 420.583 665.685 420.583 666.128Z" fill="white"/>
<path d="M366.344 510.987C366.344 511.872 365.755 512.757 364.723 512.905C363.839 512.905 362.954 512.315 362.807 511.282C362.807 510.398 363.396 509.513 364.428 509.365C365.312 509.365 366.197 509.955 366.344 510.987Z" fill="white"/>
<path d="M350.574 617.755C350.721 619.083 349.837 620.115 348.658 620.262C347.331 620.41 346.299 619.525 346.152 618.198C346.005 617.018 346.889 615.986 348.215 615.838C349.394 615.691 350.426 616.576 350.574 617.755Z" fill="white"/>
<path d="M527.732 897.657C527.732 898.1 527.437 898.395 526.995 898.542C526.553 898.542 526.11 898.247 526.11 897.805C526.11 897.362 526.405 896.92 526.848 896.92C527.29 896.92 527.585 897.215 527.732 897.657Z" fill="white"/>
<path d="M161.479 847.665C161.479 848.108 161.184 848.55 160.741 848.55C160.299 848.55 159.857 848.255 159.857 847.813C159.857 847.37 160.152 847.075 160.594 846.928C161.036 846.928 161.479 847.223 161.479 847.665Z" fill="white"/>
<path d="M474.673 341.838C474.673 342.723 474.083 343.608 473.051 343.755C472.167 343.755 471.283 343.165 471.135 342.133C471.135 341.248 471.725 340.363 472.757 340.216C473.641 340.216 474.525 340.806 474.673 341.838Z" fill="white"/>
<path d="M617.342 484C617.49 485.033 616.753 485.918 615.868 485.918C614.837 486.065 613.952 485.328 613.952 484.443C613.805 483.411 614.542 482.673 615.426 482.526C616.458 482.378 617.195 483.116 617.342 484Z" fill="white"/>
<path d="M591.107 539.007C591.255 540.187 590.37 541.367 589.191 541.367C588.012 541.514 586.98 540.63 586.833 539.45C586.686 538.27 587.57 537.238 588.749 537.09C589.928 536.943 590.96 537.828 591.107 539.007Z" fill="white"/>
<path d="M715.648 769.653C715.796 770.685 715.059 771.57 714.174 771.57C713.143 771.717 712.258 770.98 712.258 770.095C712.111 769.063 712.848 768.326 713.732 768.178C714.764 768.031 715.501 768.768 715.648 769.653Z" fill="white"/>
<path d="M713.143 701.669C713.143 702.111 712.849 702.406 712.406 702.554C711.964 702.554 711.669 702.259 711.521 701.816C711.521 701.374 711.816 700.932 712.258 700.932C712.701 700.932 713.143 701.227 713.143 701.669Z" fill="white"/>
<path d="M704.3 715.087C704.3 715.972 703.71 716.857 702.678 716.857C701.794 717.004 700.91 716.267 700.91 715.382C700.762 714.497 701.499 713.612 702.384 713.465C703.268 713.465 704.152 714.055 704.3 715.087Z" fill="white"/>
<path d="M678.065 770.094C678.212 771.274 677.328 772.306 676.149 772.453C674.97 772.453 673.938 771.716 673.791 770.536C673.643 769.209 674.528 768.177 675.707 768.029C676.886 768.029 677.917 768.914 678.065 770.094Z" fill="white"/>
<path d="M480.715 519.687C480.715 520.719 480.126 521.457 479.094 521.604C478.21 521.604 477.326 521.014 477.326 519.982C477.178 519.097 477.915 518.212 478.799 518.212C479.684 518.065 480.568 518.802 480.715 519.687Z" fill="white"/>
<path d="M535.69 1.62219C535.838 2.50702 535.101 3.39185 534.069 3.53932C533.185 3.53932 532.3 2.94943 532.3 1.91713C532.153 1.0323 532.89 0.147471 533.774 0C534.806 0 535.543 0.589893 535.69 1.62219Z" fill="white"/>
<path d="M498.549 95.7091C498.549 96.5939 497.959 97.4788 496.928 97.4788C496.043 97.6262 495.159 96.8889 495.012 96.004C495.012 95.1192 495.601 94.2344 496.633 94.0869C497.517 94.0869 498.402 94.6768 498.549 95.7091Z" fill="white"/>
<path d="M507.687 177.408C507.834 178.735 506.95 179.767 505.624 179.915C504.445 180.062 503.265 179.177 503.265 177.85C503.118 176.67 504.002 175.491 505.181 175.491C506.508 175.343 507.54 176.228 507.687 177.408Z" fill="white"/>
<path d="M226.77 634.568C226.917 635.453 226.18 636.337 225.296 636.485C224.264 636.485 223.527 635.895 223.38 634.863C223.232 633.978 223.969 633.093 224.854 633.093C225.885 632.946 226.622 633.683 226.77 634.568Z" fill="white"/>
<path d="M521.541 73.588C521.689 74.4728 520.952 75.3577 520.068 75.3577C519.183 75.5051 518.299 74.7678 518.151 73.8829C518.151 72.9981 518.741 72.1133 519.773 71.9658C520.657 71.9658 521.541 72.5557 521.541 73.588Z" fill="white"/>
<path d="M323.603 383.425C323.603 383.867 323.308 384.31 322.866 384.31C322.423 384.31 322.128 384.015 321.981 383.572C321.981 383.13 322.276 382.688 322.718 382.688C323.161 382.688 323.603 382.982 323.603 383.425Z" fill="white"/>
<path d="M430.163 449.64C430.163 450.082 429.868 450.525 429.426 450.525C428.983 450.672 428.541 450.23 428.541 449.787C428.541 449.345 428.836 449.05 429.278 448.902C429.72 448.902 430.163 449.197 430.163 449.64Z" fill="white"/>
<path d="M315.054 849.728C315.201 850.908 314.317 851.94 313.138 852.088C311.959 852.235 310.78 851.35 310.78 850.171C310.632 848.991 311.516 847.811 312.695 847.811C313.875 847.664 314.906 848.548 315.054 849.728Z" fill="white"/>
<path d="M515.794 565.847C515.794 566.289 515.499 566.732 515.057 566.732C514.614 566.732 514.172 566.437 514.172 565.994C514.172 565.552 514.467 565.257 514.909 565.109C515.352 565.109 515.647 565.404 515.794 565.847Z" fill="white"/>
<path d="M443.722 815.367C443.869 816.252 443.132 817.137 442.248 817.137C441.216 817.284 440.332 816.547 440.332 815.662C440.184 814.777 440.921 813.893 441.806 813.745C442.837 813.745 443.574 814.335 443.722 815.367Z" fill="white"/>
<path d="M219.106 849.875C219.253 850.908 218.516 851.793 217.632 851.793C216.6 851.94 215.863 851.203 215.716 850.318C215.569 849.286 216.305 848.548 217.337 848.401C218.221 848.253 219.106 848.991 219.106 849.875Z" fill="white"/>
<path d="M668.486 273.117C668.633 273.56 668.191 273.855 667.748 274.002C667.306 274.002 667.011 273.707 666.864 273.265C666.864 272.822 667.158 272.38 667.601 272.38C668.043 272.38 668.486 272.675 668.486 273.117Z" fill="white"/>
<path d="M726.26 275.329C726.26 276.361 725.67 277.098 724.639 277.246C723.754 277.393 722.87 276.656 722.723 275.771C722.723 274.739 723.312 273.854 724.344 273.854C725.228 273.706 726.113 274.444 726.26 275.329Z" fill="white"/>
<path d="M332.888 825.691C333.036 826.134 332.741 826.429 332.298 826.576C331.856 826.576 331.413 826.281 331.413 825.839C331.266 825.397 331.708 824.954 332.151 824.954C332.593 824.954 332.888 825.249 332.888 825.691Z" fill="white"/>
<path d="M305.474 915.647C305.621 916.679 304.884 917.417 304 917.564C303.115 917.712 302.231 916.974 302.084 916.089C302.084 915.057 302.673 914.172 303.705 914.172C304.589 914.025 305.474 914.762 305.474 915.647Z" fill="white"/>
<path d="M223.381 799.589C223.381 800.031 223.086 800.474 222.643 800.474C222.201 800.474 221.906 800.179 221.758 799.736C221.758 799.294 222.053 798.852 222.496 798.852C222.938 798.852 223.381 799.147 223.381 799.589Z" fill="white"/>
<path d="M559.42 833.802C559.42 834.244 559.125 834.687 558.683 834.687C558.24 834.687 557.798 834.392 557.798 833.949C557.798 833.507 558.093 833.064 558.535 833.064C558.978 833.064 559.42 833.359 559.42 833.802Z" fill="white"/>
<path d="M305.917 872.144C305.917 872.587 305.622 872.882 305.18 872.882C304.737 873.029 304.442 872.734 304.295 872.292C304.295 871.849 304.59 871.407 305.032 871.407C305.475 871.259 305.917 871.702 305.917 872.144Z" fill="white"/>
<path d="M466.419 540.187C466.566 541.072 465.829 541.957 464.945 542.104C464.061 542.104 463.176 541.514 463.029 540.482C463.029 539.597 463.619 538.712 464.65 538.712C465.535 538.565 466.419 539.302 466.419 540.187Z" fill="white"/>
<path d="M392.874 589.294C393.021 590.179 392.284 591.064 391.4 591.211C390.368 591.211 389.631 590.622 389.484 589.589C389.336 588.705 390.073 587.82 390.957 587.82C391.989 587.672 392.874 588.41 392.874 589.294Z" fill="white"/>
<path d="M579.022 95.709C579.022 96.1514 578.728 96.5938 578.285 96.5938C577.843 96.7413 577.4 96.2989 577.4 95.8565C577.4 95.4141 577.695 95.1192 578.138 94.9717C578.58 94.9717 579.022 95.2666 579.022 95.709Z" fill="white"/>
<path d="M599.509 158.531C599.509 158.974 599.214 159.416 598.772 159.416C598.329 159.416 597.887 159.121 597.887 158.679C597.739 158.236 598.182 157.794 598.624 157.794C599.066 157.794 599.361 158.089 599.509 158.531Z" fill="white"/>
<path d="M361.186 507.153C361.186 507.596 360.892 508.038 360.449 508.038C360.007 508.038 359.564 507.743 359.564 507.301C359.564 506.858 359.859 506.563 360.302 506.416C360.744 506.416 361.039 506.711 361.186 507.153Z" fill="white"/>
<path d="M306.8 352.014C306.947 353.046 306.211 353.784 305.326 353.931C304.295 354.079 303.558 353.341 303.41 352.457C303.263 351.424 304 350.539 304.884 350.539C305.916 350.392 306.8 351.129 306.8 352.014Z" fill="white"/>
<path d="M331.266 434.45C331.413 435.63 330.529 436.81 329.35 436.957C328.024 437.105 326.992 436.073 326.844 434.893C326.697 433.713 327.581 432.533 328.908 432.386C330.087 432.386 331.266 433.271 331.266 434.45Z" fill="white"/>
<path d="M415.128 182.865C415.276 183.897 414.539 184.634 413.655 184.782C412.623 184.929 411.886 184.192 411.739 183.307C411.591 182.275 412.328 181.537 413.213 181.39C414.244 181.243 415.128 181.98 415.128 182.865Z" fill="white"/>
<path d="M557.946 325.174C557.946 326.059 557.356 326.944 556.324 327.091C555.44 327.091 554.556 326.501 554.408 325.469C554.408 324.584 554.998 323.699 556.03 323.552C556.914 323.552 557.798 324.142 557.946 325.174Z" fill="white"/>
<path d="M531.711 380.18C531.858 381.36 530.974 382.392 529.795 382.54C528.616 382.687 527.437 381.802 527.437 380.623C527.289 379.443 528.173 378.263 529.353 378.263C530.532 378.116 531.563 379 531.711 380.18Z" fill="white"/>
<path d="M506.066 780.123C506.213 781.302 505.329 782.335 504.15 782.482C502.971 782.63 501.792 781.745 501.792 780.565C501.644 779.385 502.528 778.353 503.707 778.206C504.887 778.058 505.918 778.943 506.066 780.123Z" fill="white"/>
<path d="M516.235 641.351C516.382 642.531 515.498 643.563 514.319 643.711C513.14 643.858 512.108 642.973 511.961 641.794C511.814 640.614 512.698 639.582 513.877 639.434C515.056 639.287 516.235 640.171 516.235 641.351Z" fill="white"/>
<path d="M608.351 673.943C608.351 675.122 607.467 676.155 606.288 676.302C605.109 676.302 604.077 675.565 603.93 674.385C603.93 673.058 604.667 672.025 605.846 671.878C607.172 671.878 608.204 672.763 608.351 673.943Z" fill="white"/>
<path d="M421.171 360.863C421.319 361.747 420.582 362.632 419.697 362.632C418.813 362.78 417.929 362.042 417.782 361.158C417.782 360.125 418.371 359.388 419.403 359.24C420.287 359.093 421.171 359.83 421.171 360.863Z" fill="white"/>
<path d="M430.163 248.047C430.163 248.489 429.868 248.932 429.426 248.932C428.983 248.932 428.541 248.637 428.541 248.194C428.541 247.752 428.836 247.31 429.278 247.31C429.72 247.31 430.163 247.605 430.163 248.047Z" fill="white"/>
<path d="M370.619 290.814C370.766 291.256 370.472 291.551 370.029 291.698C369.587 291.698 369.144 291.403 369.144 290.961C368.997 290.519 369.439 290.076 369.882 290.076C370.324 290.076 370.619 290.371 370.619 290.814Z" fill="white"/>
<path d="M456.25 407.02C456.398 407.462 455.955 407.757 455.513 407.904C455.07 407.904 454.776 407.609 454.628 407.167C454.628 406.725 454.923 406.282 455.365 406.282C455.808 406.282 456.25 406.577 456.25 407.02Z" fill="white"/>
<path d="M443.575 102.197C443.575 102.64 443.28 103.082 442.838 103.082C442.395 103.082 442.1 102.787 441.953 102.345C441.953 101.902 442.248 101.607 442.69 101.46C443.133 101.46 443.575 101.755 443.575 102.197Z" fill="white"/>
<path d="M520.658 245.097C520.805 245.54 520.363 245.835 519.92 245.982C519.478 245.982 519.183 245.687 519.036 245.245C519.036 244.802 519.331 244.36 519.773 244.36C520.215 244.213 520.658 244.655 520.658 245.097Z" fill="white"/>
<path d="M603.931 255.861C603.931 256.304 603.636 256.599 603.193 256.746C602.751 256.746 602.308 256.451 602.308 256.009C602.308 255.566 602.603 255.124 603.046 255.124C603.488 255.124 603.931 255.419 603.931 255.861Z" fill="white"/>
<path d="M233.403 478.987C233.403 479.43 233.108 479.725 232.666 479.872C232.223 479.872 231.928 479.577 231.781 479.135C231.781 478.692 232.076 478.25 232.518 478.25C232.96 478.25 233.403 478.545 233.403 478.987Z" fill="white"/>
<path d="M290.883 538.417C290.883 538.859 290.588 539.154 290.146 539.154C289.704 539.301 289.408 539.007 289.261 538.564C289.261 538.122 289.556 537.679 289.998 537.679C290.441 537.532 290.883 537.974 290.883 538.417Z" fill="white"/>
<path d="M212.18 624.835C212.18 625.277 211.885 625.72 211.442 625.72C211 625.72 210.557 625.425 210.557 624.982C210.557 624.54 210.852 624.245 211.295 624.098C211.737 624.098 212.18 624.393 212.18 624.835Z" fill="white"/>
<path d="M249.173 538.417C249.321 538.859 248.878 539.154 248.436 539.154C247.994 539.301 247.699 539.007 247.551 538.564C247.551 538.122 247.846 537.679 248.289 537.679C248.731 537.532 249.173 537.974 249.173 538.417Z" fill="white"/>
<path d="M343.942 690.901C343.942 691.344 343.647 691.639 343.205 691.786C342.762 691.786 342.32 691.491 342.32 691.049C342.32 690.606 342.615 690.164 343.057 690.164C343.5 690.164 343.942 690.459 343.942 690.901Z" fill="white"/>
<path d="M427.805 638.107C427.805 638.55 427.51 638.992 427.067 638.992C426.625 638.992 426.183 638.697 426.183 638.255C426.183 637.812 426.478 637.518 426.92 637.37C427.362 637.37 427.657 637.665 427.805 638.107Z" fill="white"/>
<path d="M452.418 642.383C452.566 642.826 452.271 643.121 451.828 643.121C451.386 643.268 450.943 642.973 450.943 642.531C450.796 642.089 451.091 641.646 451.533 641.646C451.976 641.499 452.418 641.941 452.418 642.383Z" fill="white"/>
<path d="M555.293 742.37C555.293 742.813 554.998 743.255 554.556 743.255C554.114 743.255 553.671 742.96 553.671 742.518C553.671 742.075 553.966 741.78 554.409 741.633C554.851 741.633 555.146 741.928 555.293 742.37Z" fill="white"/>
<path d="M252.563 686.626C252.563 687.068 252.268 687.511 251.826 687.511C251.383 687.511 250.941 687.216 250.941 686.774C250.941 686.331 251.236 686.036 251.678 685.889C252.12 685.889 252.416 686.184 252.563 686.626Z" fill="white"/>
<path d="M443.336 205.873C443.336 206.611 442.599 207.2 441.862 207.2C440.978 207.2 440.389 206.611 440.389 205.873C440.389 205.136 440.978 204.546 441.862 204.546C442.599 204.546 443.336 205.136 443.336 205.873Z" fill="#C8E24D"/>
<path d="M415.186 346.414C415.186 347.152 414.449 347.741 413.712 347.741C412.975 347.741 412.238 347.152 412.238 346.414C412.238 345.677 412.975 345.087 413.712 345.087C414.449 345.087 415.186 345.677 415.186 346.414Z" fill="#C8E24D"/>
<path d="M295.214 414.988C295.214 415.726 294.477 416.316 293.74 416.316C292.856 416.316 292.266 415.726 292.266 414.988C292.266 414.251 292.856 413.661 293.74 413.661C294.477 413.661 295.214 414.251 295.214 414.988Z" fill="#C8E24D"/>
<path d="M336.187 575.142C336.187 575.879 335.45 576.469 334.713 576.469C333.828 576.469 333.239 575.879 333.239 575.142C333.239 574.404 333.828 573.814 334.713 573.814C335.45 573.814 336.187 574.404 336.187 575.142Z" fill="#C8E24D"/>
<path opacity="0.6" d="M203.982 361.455C203.982 362.193 203.245 362.782 202.508 362.782C201.624 362.782 201.034 362.193 201.034 361.455C201.034 360.718 201.624 360.128 202.508 360.128C203.245 360.128 203.982 360.718 203.982 361.455Z" fill="white"/>
<path opacity="0.6" d="M135.447 331.667C135.447 332.404 134.71 332.994 133.974 332.994C133.089 332.994 132.5 332.404 132.5 331.667C132.5 330.93 133.089 330.34 133.974 330.34C134.71 330.34 135.447 330.93 135.447 331.667Z" fill="white"/>
<path opacity="0.6" d="M50.2585 271.941C50.2585 272.679 49.6689 273.269 48.932 273.269C48.0477 273.269 47.4581 272.679 47.4581 271.941C47.4581 271.204 48.0477 270.614 48.932 270.614C49.6689 270.614 50.2585 271.204 50.2585 271.941Z" fill="white"/>
<path opacity="0.6" d="M133.973 129.484C133.973 130.222 133.237 130.812 132.5 130.812C131.763 130.812 131.026 130.222 131.026 129.484C131.026 128.895 131.763 128.305 132.5 128.305C133.237 128.305 133.973 128.895 133.973 129.484Z" fill="white"/>
<path opacity="0.6" d="M226.09 360.129C226.09 360.866 225.353 361.456 224.616 361.456C223.731 361.456 223.142 360.866 223.142 360.129C223.142 359.392 223.731 358.802 224.616 358.802C225.353 358.802 226.09 359.392 226.09 360.129Z" fill="white"/>
<path opacity="0.6" d="M238.028 118.719C238.028 119.309 237.438 119.899 236.554 119.899C235.817 119.899 235.08 119.309 235.08 118.719C235.08 117.981 235.817 117.392 236.554 117.392C237.438 117.392 238.028 117.981 238.028 118.719Z" fill="white"/>
<path opacity="0.6" d="M277.527 320.459C277.527 321.196 276.79 321.786 276.054 321.786C275.169 321.786 274.58 321.196 274.58 320.459C274.58 319.869 275.169 319.279 276.054 319.279C276.79 319.279 277.527 319.869 277.527 320.459Z" fill="white"/>
<path opacity="0.6" d="M117.319 680.437C117.319 681.027 116.582 681.616 115.845 681.616C114.961 681.616 114.371 681.027 114.371 680.437C114.371 679.699 114.961 679.109 115.845 679.109C116.582 679.109 117.319 679.699 117.319 680.437Z" fill="white"/>
<path opacity="0.6" d="M2.94771 165.024C2.94771 165.762 2.21079 166.352 1.47386 166.352C0.736929 166.352 0 165.762 0 165.024C0 164.287 0.736929 163.697 1.47386 163.697C2.21079 163.697 2.94771 164.287 2.94771 165.024Z" fill="white"/>
<path opacity="0.6" d="M492.711 441.827C492.711 442.417 491.974 443.007 491.237 443.007C490.352 443.007 489.763 442.417 489.763 441.827C489.763 441.09 490.352 440.5 491.237 440.5C491.974 440.5 492.711 441.09 492.711 441.827Z" fill="white"/>
<path opacity="0.6" d="M51.7324 224.307C51.7324 225.044 51.1428 225.634 50.2585 225.634C49.5216 225.634 48.932 225.044 48.932 224.307C48.932 223.569 49.5216 222.979 50.2585 222.979C51.1428 222.979 51.7324 223.569 51.7324 224.307Z" fill="white"/>
<path opacity="0.6" d="M390.572 536.062C390.572 536.799 389.835 537.389 389.098 537.389C388.214 537.389 387.624 536.799 387.624 536.062C387.624 535.324 388.214 534.734 389.098 534.734C389.835 534.734 390.572 535.324 390.572 536.062Z" fill="white"/>
<path d="M402.658 296.568C402.658 297.305 401.921 297.895 401.184 297.895C400.3 297.895 399.71 297.305 399.71 296.568C399.71 295.83 400.3 295.24 401.184 295.24C401.921 295.24 402.658 295.83 402.658 296.568Z" fill="white"/>
<path d="M62.1967 130.073C62.1967 131.253 61.165 132.138 59.8385 132.138C58.5121 132.138 57.4804 131.253 57.4804 130.073C57.4804 128.894 58.5121 127.861 59.8385 127.861C61.165 127.861 62.1967 128.894 62.1967 130.073Z" fill="white"/>
<path d="M161.83 485.037C161.83 485.775 161.093 486.364 160.356 486.364C159.471 486.364 158.882 485.775 158.882 485.037C158.882 484.3 159.471 483.71 160.356 483.71C161.093 483.71 161.83 484.3 161.83 485.037Z" fill="#FAE388"/>
<path d="M430.514 180.067C430.514 181.099 429.629 181.836 428.598 181.836C427.566 181.836 426.682 181.099 426.682 180.067C426.682 179.034 427.566 178.297 428.598 178.297C429.629 178.297 430.514 179.034 430.514 180.067Z" fill="white"/>
<path d="M82.2411 489.313C82.2411 490.05 81.6516 490.64 80.9146 490.64C80.0303 490.64 79.4408 490.05 79.4408 489.313C79.4408 488.575 80.0303 487.985 80.9146 487.985C81.6516 487.985 82.2411 488.575 82.2411 489.313Z" fill="white"/>
<path d="M276.643 204.547C276.643 205.284 276.054 205.874 275.169 205.874C274.432 205.874 273.843 205.284 273.843 204.547C273.843 203.81 274.432 203.22 275.169 203.22C276.054 203.22 276.643 203.81 276.643 204.547Z" fill="white"/>
<path d="M227.563 279.462C227.563 280.199 226.827 280.789 226.09 280.789C225.205 280.789 224.616 280.199 224.616 279.462C224.616 278.725 225.205 278.135 226.09 278.135C226.827 278.135 227.563 278.725 227.563 279.462Z" fill="white"/>
<path d="M82.536 289.194C82.536 289.932 81.7991 290.374 81.0621 290.374C80.1778 290.374 79.5883 289.932 79.5883 289.194C79.5883 288.457 80.1778 287.867 81.0621 287.867C81.7991 287.867 82.536 288.457 82.536 289.194Z" fill="white"/>
<path d="M124.393 507.896C124.393 508.633 123.804 509.223 122.92 509.223C122.183 509.223 121.446 508.633 121.446 507.896C121.446 507.158 122.183 506.568 122.92 506.568C123.804 506.568 124.393 507.158 124.393 507.896Z" fill="white"/>
<path opacity="0.6" d="M756.236 207.496C755.057 207.644 754.173 206.759 754.173 205.874C754.173 204.842 754.91 203.957 756.089 203.957C757.121 203.957 758.005 204.694 758.152 205.727C758.152 206.759 757.268 207.496 756.236 207.496Z" fill="white"/>
<path d="M632.137 230.943C630.958 230.943 630.074 230.206 630.074 229.174C630.074 228.141 630.958 227.404 631.99 227.404C633.169 227.256 634.053 228.141 634.053 229.026C634.053 230.058 633.169 230.943 632.137 230.943Z" fill="#C8E24D"/>
<path opacity="0.6" d="M617.988 318.689C616.809 318.689 615.925 317.951 615.925 316.919C615.925 316.034 616.809 315.149 617.841 315.149C619.02 315.149 619.904 315.887 619.904 316.919C619.904 317.804 619.02 318.689 617.988 318.689Z" fill="white"/>
<path d="M813.717 311.02C812.537 311.02 811.653 310.283 811.653 309.251C811.653 308.218 812.537 307.481 813.569 307.481C814.601 307.334 815.632 308.218 815.632 309.103C815.632 310.136 814.748 311.02 813.717 311.02Z" fill="white"/>
<path opacity="0.6" d="M589.248 296.569C588.216 296.569 587.185 295.831 587.185 294.799C587.185 293.767 588.069 293.029 589.101 292.882C590.28 292.882 591.164 293.767 591.164 294.651C591.164 295.684 590.28 296.421 589.248 296.569Z" fill="white"/>
</svg>
