<svg width="1263" height="390" viewBox="0 0 1263 390" fill="none" xmlns="http://www.w3.org/2000/svg">
<path d="M433.241 99.6886C433.801 99.1285 434.734 99.1285 435.294 99.6886C435.76 100.155 435.76 101.089 435.294 101.649C434.734 102.209 433.801 102.209 433.241 101.649C432.681 101.089 432.681 100.155 433.241 99.6886Z" fill="#B0BADB"/>
<path d="M393.024 107.716C393.584 107.156 394.517 107.156 395.077 107.716C395.637 108.183 395.637 109.116 395.077 109.676C394.517 110.236 393.584 110.236 393.024 109.676C392.464 109.116 392.464 108.183 393.024 107.716Z" fill="#B0BADB"/>
<path d="M411.126 85.1267C411.5 84.7533 412.153 84.7533 412.526 85.1267C412.899 85.5001 412.899 86.1535 412.526 86.5269C412.153 86.9003 411.5 86.9003 411.126 86.5269C410.753 86.1535 410.753 85.5001 411.126 85.1267Z" fill="#B0BADB"/>
<path d="M388.732 65.8035C389.105 65.4301 389.665 65.4301 390.132 65.8035C390.505 66.1769 390.505 66.8303 390.132 67.2037C389.665 67.5771 389.105 67.5771 388.732 67.2037C388.265 66.8303 388.265 66.1769 388.732 65.8035Z" fill="#B0BADB"/>
<path d="M404.501 148.602C404.688 148.415 404.968 148.415 405.155 148.602C405.341 148.789 405.341 149.069 405.155 149.255C404.968 149.442 404.688 149.442 404.501 149.255C404.315 149.069 404.315 148.789 404.501 148.602Z" fill="#B0BADB"/>
<path d="M418.778 145.148C418.964 144.961 419.244 144.961 419.431 145.148C419.618 145.335 419.618 145.615 419.431 145.801C419.244 145.988 418.964 145.988 418.778 145.801C418.591 145.615 418.591 145.335 418.778 145.148Z" fill="#B0BADB"/>
<path d="M444.905 86.433C445.091 86.2463 445.371 86.2463 445.558 86.433C445.745 86.6197 445.745 86.8997 445.558 87.0864C445.371 87.2731 445.091 87.2731 444.905 87.0864C444.718 86.8997 444.718 86.6197 444.905 86.433Z" fill="#B0BADB"/>
<path d="M439.493 123.119C439.679 122.932 439.959 122.932 440.146 123.119C440.333 123.305 440.333 123.585 440.146 123.772C439.959 123.959 439.679 123.959 439.493 123.772C439.306 123.585 439.306 123.305 439.493 123.119Z" fill="#B0BADB"/>
<path d="M427.736 166.431C427.922 166.244 428.202 166.244 428.389 166.431C428.575 166.618 428.575 166.898 428.389 167.084C428.202 167.271 427.922 167.271 427.736 167.084C427.549 166.898 427.549 166.618 427.736 166.431Z" fill="#B0BADB"/>
<path d="M445.931 118.917C446.118 118.731 446.398 118.731 446.584 118.917C446.771 119.104 446.771 119.384 446.584 119.571C446.398 119.757 446.118 119.757 445.931 119.571C445.745 119.384 445.745 119.104 445.931 118.917Z" fill="#B0BADB"/>
<path d="M408.98 51.2411C409.913 50.3076 411.5 50.3076 412.526 51.2411C413.459 52.2679 413.459 53.7615 412.526 54.7883C411.5 55.7218 409.913 55.7218 408.98 54.7883C407.954 53.7615 407.954 52.2679 408.98 51.2411Z" fill="#B0BADB"/>
<path d="M137.633 170.539C138.66 169.512 140.246 169.512 141.179 170.539C142.112 171.472 142.112 173.059 141.179 174.086C140.246 175.019 138.66 175.019 137.633 174.086C136.7 173.059 136.7 171.472 137.633 170.539Z" fill="#B0BADB"/>
<path d="M62.3315 92.9677C63.2646 92.0342 64.8508 92.0342 65.8773 92.9677C66.8104 93.9011 66.8104 95.488 65.8773 96.5149C64.8508 97.4483 63.2646 97.4483 62.3315 96.5149C61.305 95.488 61.305 93.9011 62.3315 92.9677Z" fill="#B0BADB"/>
<path d="M459.555 15.1158C460.488 14.089 462.074 14.089 463.1 15.1158C464.033 16.0493 464.033 17.6362 463.1 18.5696C462.074 19.5965 460.488 19.5965 459.555 18.5696C458.528 17.6362 458.528 16.0493 459.555 15.1158Z" fill="#B0BADB"/>
<path d="M345.996 131.893C347.022 130.866 348.608 130.866 349.541 131.893C350.568 132.827 350.568 134.414 349.541 135.44C348.608 136.374 347.022 136.374 345.996 135.44C345.062 134.414 345.062 132.827 345.996 131.893Z" fill="#B0BADB"/>
<path d="M393.211 20.9969C393.957 20.3435 395.077 20.3435 395.73 20.9969C396.383 21.6503 396.383 22.7705 395.73 23.5173C395.077 24.1707 393.957 24.1707 393.211 23.5173C392.558 22.7705 392.558 21.6503 393.211 20.9969Z" fill="white"/>
<path d="M580.298 99.7821C580.952 99.1286 582.071 99.1286 582.818 99.7821C583.471 100.529 583.471 101.649 582.818 102.302C582.071 102.956 580.952 102.956 580.298 102.302C579.645 101.649 579.645 100.529 580.298 99.7821Z" fill="#B0BADB"/>
<path d="M534.763 267.899C535.416 267.152 536.536 267.152 537.282 267.899C537.935 268.552 537.935 269.673 537.282 270.419C536.536 271.073 535.416 271.073 534.763 270.419C534.11 269.673 534.11 268.552 534.763 267.899Z" fill="#B0BADB"/>
<path d="M566.209 113.504C566.862 112.85 567.982 112.85 568.635 113.504C569.381 114.251 569.381 115.371 568.635 116.024C567.982 116.771 566.862 116.771 566.209 116.024C565.462 115.371 565.462 114.251 566.209 113.504Z" fill="#B0BADB"/>
<path d="M425.216 90.4471C425.963 89.7937 427.083 89.7937 427.736 90.4471C428.482 91.1005 428.482 92.2207 427.736 92.9675C427.083 93.6209 425.963 93.6209 425.216 92.9675C424.563 92.2207 424.563 91.1005 425.216 90.4471Z" fill="#B0BADB"/>
<path d="M420.084 114.531C420.551 114.064 421.391 114.064 421.857 114.531C422.417 114.997 422.417 115.838 421.857 116.398C421.391 116.864 420.551 116.864 420.084 116.398C419.524 115.838 419.524 114.997 420.084 114.531Z" fill="#B0BADB"/>
<path d="M430.442 139.92C430.908 139.454 431.748 139.454 432.215 139.92C432.774 140.48 432.774 141.227 432.215 141.787C431.748 142.254 430.908 142.254 430.442 141.787C429.882 141.227 429.882 140.48 430.442 139.92Z" fill="#B0BADB"/>
<path d="M399.929 56.0955C400.209 55.7221 400.769 55.7221 401.049 56.0955C401.422 56.3755 401.422 56.9356 401.049 57.2156C400.769 57.589 400.209 57.589 399.929 57.2156C399.556 56.9356 399.556 56.3755 399.929 56.0955Z" fill="#B0BADB"/>
<path d="M428.575 94.9278C428.949 94.6478 429.415 94.6478 429.789 94.9278C430.068 95.3012 430.068 95.8613 429.789 96.1413C429.415 96.5147 428.949 96.5147 428.575 96.1413C428.296 95.8613 428.296 95.3012 428.575 94.9278Z" fill="#B0BADB"/>
<path d="M479.803 87.5538C480.176 87.2737 480.736 87.2737 481.016 87.5538C481.389 87.9272 481.389 88.4873 481.016 88.7673C480.736 89.1407 480.176 89.1407 479.803 88.7673C479.523 88.4873 479.523 87.9272 479.803 87.5538Z" fill="#B0BADB"/>
<path d="M112.066 251.096C112.346 250.723 112.906 250.723 113.186 251.096C113.559 251.376 113.559 251.937 113.186 252.217C112.906 252.59 112.346 252.59 112.066 252.217C111.693 251.937 111.693 251.376 112.066 251.096Z" fill="#B0BADB"/>
<path d="M555.571 60.2957C555.944 59.9223 556.411 59.9223 556.784 60.2957C557.064 60.5757 557.064 61.1358 556.784 61.5092C556.411 61.7892 555.944 61.7892 555.571 61.5092C555.291 61.1358 555.291 60.5757 555.571 60.2957Z" fill="#B0BADB"/>
<path d="M930.586 60.2957C930.866 59.9223 931.426 59.9223 931.799 60.2957C932.079 60.5757 932.079 61.1358 931.799 61.5092C931.426 61.7892 930.866 61.7892 930.586 61.5092C930.213 61.1358 930.213 60.5757 930.586 60.2957Z" fill="#B0BADB"/>
<path d="M158.255 147.202C158.628 146.829 159.095 146.829 159.468 147.202C159.748 147.482 159.748 148.042 159.468 148.322C159.095 148.695 158.628 148.695 158.255 148.322C157.975 148.042 157.975 147.482 158.255 147.202Z" fill="#B0BADB"/>
<path d="M430.722 76.5382C431.095 76.2581 431.561 76.2581 431.935 76.5382C432.215 76.9115 432.215 77.3783 431.935 77.7517C431.561 78.0317 431.095 78.0317 430.722 77.7517C430.442 77.3783 430.442 76.9115 430.722 76.5382Z" fill="#B0BADB"/>
<path d="M419.151 83.7263C419.338 83.6329 419.618 83.6329 419.711 83.7263C419.898 83.913 419.898 84.193 419.711 84.3797C419.618 84.5664 419.338 84.5664 419.151 84.3797C418.965 84.193 418.965 83.913 419.151 83.7263Z" fill="#B0BADB"/>
<path d="M451.623 124.518C451.81 124.425 452.09 124.425 452.276 124.518C452.37 124.705 452.37 124.985 452.276 125.172C452.09 125.358 451.81 125.358 451.623 125.172C451.53 124.985 451.53 124.705 451.623 124.518Z" fill="#B0BADB"/>
<path d="M452.09 153.736C452.183 153.643 452.463 153.643 452.65 153.736C452.836 153.923 452.836 154.203 452.65 154.389C452.463 154.483 452.183 154.483 452.09 154.389C451.903 154.203 451.903 153.923 452.09 153.736Z" fill="#B0BADB"/>
<path d="M436.227 154.203C436.32 154.016 436.6 154.016 436.787 154.203C436.973 154.389 436.973 154.576 436.787 154.763C436.6 154.949 436.32 154.949 436.227 154.763C436.04 154.576 436.04 154.389 436.227 154.203Z" fill="#B0BADB"/>
<path d="M435.76 148.696C435.947 148.509 436.227 148.509 436.32 148.696C436.507 148.882 436.507 149.162 436.32 149.349C436.227 149.442 435.947 149.442 435.76 149.349C435.574 149.162 435.574 148.882 435.76 148.696Z" fill="#B0BADB"/>
<path d="M428.389 83.3522C428.575 83.2589 428.762 83.2589 428.949 83.3522C429.135 83.5389 429.135 83.819 428.949 84.0057C428.762 84.099 428.575 84.099 428.389 84.0057C428.202 83.819 428.202 83.5389 428.389 83.3522Z" fill="#B0BADB"/>
<path d="M416.632 90.7273C416.912 90.3539 417.472 90.3539 417.751 90.7273C418.125 91.0073 418.125 91.5674 417.751 91.8475C417.472 92.2209 416.912 92.2209 416.632 91.8475C416.258 91.5674 416.258 91.0073 416.632 90.7273Z" fill="#B0BADB"/>
<path d="M443.039 118.265C443.319 117.985 443.878 117.985 444.252 118.265C444.532 118.638 444.532 119.198 444.252 119.478C443.878 119.758 443.319 119.758 443.039 119.478C442.665 119.198 442.665 118.638 443.039 118.265Z" fill="#B0BADB"/>
<path d="M148.644 212.172C149.017 211.798 149.484 211.798 149.857 212.172C150.137 212.452 150.137 213.012 149.857 213.292C149.484 213.665 149.017 213.665 148.644 213.292C148.364 213.012 148.364 212.452 148.644 212.172Z" fill="#B0BADB"/>
<path d="M127.835 288.809C128.209 288.436 128.675 288.436 129.049 288.809C129.328 289.089 129.328 289.649 129.049 289.93C128.675 290.303 128.209 290.303 127.835 289.93C127.556 289.649 127.556 289.089 127.835 288.809Z" fill="#B0BADB"/>
<path d="M407.674 148.042C407.954 147.668 408.514 147.668 408.794 148.042C409.167 148.322 409.167 148.882 408.794 149.162C408.514 149.535 407.954 149.535 407.674 149.162C407.301 148.882 407.301 148.322 407.674 148.042Z" fill="#B0BADB"/>
<path d="M160.121 204.703C160.494 204.423 161.054 204.423 161.334 204.703C161.614 205.077 161.614 205.543 161.334 205.917C161.054 206.197 160.494 206.197 160.121 205.917C159.841 205.543 159.841 205.077 160.121 204.703Z" fill="#B0BADB"/>
<path d="M175.144 118.918C176.077 117.984 177.663 117.984 178.69 118.918C179.623 119.945 179.623 121.532 178.69 122.465C177.663 123.492 176.077 123.492 175.144 122.465C174.118 121.532 174.118 119.945 175.144 118.918Z" fill="#B0BADB"/>
<path d="M135.953 93.2479C136.607 92.5945 137.726 92.5945 138.38 93.2479C139.126 93.9947 139.126 95.0215 138.38 95.7682C137.726 96.4217 136.607 96.4217 135.953 95.7682C135.207 95.0215 135.207 93.9947 135.953 93.2479Z" fill="#B0BADB"/>
<path d="M149.484 199.476C149.857 199.196 150.417 199.196 150.697 199.476C150.976 199.849 150.976 200.316 150.697 200.689C150.417 200.969 149.857 200.969 149.484 200.689C149.204 200.316 149.204 199.849 149.484 199.476Z" fill="#B0BADB"/>
<path d="M195.766 95.5811C196.046 95.3011 196.605 95.3011 196.885 95.5811C197.259 95.9545 197.259 96.4212 196.885 96.7946C196.605 97.0747 196.046 97.0747 195.766 96.7946C195.392 96.4212 195.392 95.9545 195.766 95.5811Z" fill="#B0BADB"/>
<path d="M118.131 53.7615C118.411 53.3881 118.971 53.3881 119.251 53.7615C119.624 54.0415 119.624 54.6016 119.251 54.8816C118.971 55.255 118.411 55.255 118.131 54.8816C117.758 54.6016 117.758 54.0415 118.131 53.7615Z" fill="#B0BADB"/>
<path d="M186.155 160.551C186.435 160.271 186.994 160.271 187.274 160.551C187.648 160.924 187.648 161.391 187.274 161.764C186.994 162.044 186.435 162.044 186.155 161.764C185.781 161.391 185.781 160.924 186.155 160.551Z" fill="#B0BADB"/>
<path d="M165.346 237.189C165.626 236.909 166.186 236.909 166.466 237.189C166.839 237.562 166.839 238.029 166.466 238.402C166.186 238.682 165.626 238.682 165.346 238.402C164.973 238.029 164.973 237.562 165.346 237.189Z" fill="#B0BADB"/>
<path d="M197.632 153.177C198.005 152.803 198.472 152.803 198.845 153.177C199.125 153.457 199.125 154.017 198.845 154.297C198.472 154.67 198.005 154.67 197.632 154.297C197.352 154.017 197.352 153.457 197.632 153.177Z" fill="#B0BADB"/>
<path d="M483.069 141.507C483.069 142.534 482.229 143.281 481.296 143.281C480.363 143.281 479.523 142.534 479.523 141.507C479.523 140.574 480.363 139.827 481.296 139.827C482.229 139.827 483.069 140.574 483.069 141.507Z" fill="#B0BADB"/>
<path d="M193.34 292.916C194.273 291.982 195.859 291.982 196.792 292.916C197.818 293.943 197.818 295.53 196.792 296.463C195.859 297.397 194.273 297.397 193.34 296.463C192.313 295.53 192.313 293.943 193.34 292.916Z" fill="#B0BADB"/>
<path d="M547.92 80.2721C548.853 79.2452 550.439 79.2452 551.466 80.2721C552.399 81.2055 552.399 82.7924 551.466 83.7259C550.439 84.7527 548.853 84.7527 547.92 83.7259C546.987 82.7924 546.987 81.2055 547.92 80.2721Z" fill="#B0BADB"/>
<path d="M161.707 328.108C162.64 327.081 164.227 327.081 165.253 328.108C166.186 329.041 166.186 330.628 165.253 331.655C164.227 332.589 162.64 332.589 161.707 331.655C160.681 330.628 160.681 329.041 161.707 328.108Z" fill="#B0BADB"/>
<path d="M177.57 262.672C178.223 262.018 179.343 262.018 180.089 262.672C180.743 263.325 180.743 264.445 180.089 265.192C179.343 265.846 178.223 265.846 177.57 265.192C176.824 264.445 176.824 263.325 177.57 262.672Z" fill="#B0BADB"/>
<path d="M209.576 332.122C210.322 331.468 211.442 331.468 212.095 332.122C212.748 332.869 212.748 333.989 212.095 334.642C211.442 335.296 210.322 335.296 209.576 334.642C208.922 333.989 208.922 332.869 209.576 332.122Z" fill="#B0BADB"/>
<path d="M128.955 287.502C129.702 286.756 130.821 286.756 131.475 287.502C132.221 288.156 132.221 289.276 131.475 290.023C130.821 290.676 129.702 290.676 128.955 290.023C128.302 289.276 128.302 288.156 128.955 287.502Z" fill="#B0BADB"/>
<path d="M384.16 338.47C384.813 337.816 385.933 337.816 386.586 338.47C387.332 339.216 387.332 340.337 386.586 340.99C385.933 341.643 384.813 341.643 384.16 340.99C383.413 340.337 383.413 339.216 384.16 338.47Z" fill="#B0BADB"/>
<path d="M184.195 297.77C184.568 297.397 185.128 297.397 185.408 297.77C185.688 298.05 185.688 298.61 185.408 298.89C185.128 299.264 184.568 299.264 184.195 298.89C183.915 298.61 183.915 298.05 184.195 297.77Z" fill="#B0BADB"/>
<path d="M212.935 336.696C213.215 336.323 213.775 336.323 214.148 336.696C214.428 336.976 214.428 337.536 214.148 337.816C213.775 338.19 213.215 338.19 212.935 337.816C212.561 337.536 212.561 336.976 212.935 336.696Z" fill="#B0BADB"/>
<path d="M226.185 322.227C226.465 321.947 227.025 321.947 227.305 322.227C227.678 322.6 227.678 323.067 227.305 323.44C227.025 323.72 226.465 323.72 226.185 323.44C225.812 323.067 225.812 322.6 226.185 322.227Z" fill="#B0BADB"/>
<path d="M215.081 318.213C215.361 317.933 215.921 317.933 216.294 318.213C216.574 318.586 216.574 319.053 216.294 319.426C215.921 319.707 215.361 319.707 215.081 319.426C214.708 319.053 214.708 318.586 215.081 318.213Z" fill="#B0BADB"/>
<path d="M140.992 330.535C141.366 330.162 141.925 330.162 142.205 330.535C142.579 330.815 142.579 331.375 142.205 331.655C141.925 332.028 141.366 332.028 140.992 331.655C140.712 331.375 140.712 330.815 140.992 330.535Z" fill="#B0BADB"/>
<path d="M203.51 325.495C203.697 325.308 203.884 325.308 204.07 325.495C204.257 325.588 204.257 325.868 204.07 326.055C203.884 326.241 203.697 326.241 203.51 326.055C203.324 325.868 203.324 325.588 203.51 325.495Z" fill="#B0BADB"/>
<path d="M578.059 210.771C578.246 210.584 578.526 210.584 578.619 210.771C578.805 210.958 578.805 211.144 578.619 211.331C578.526 211.518 578.246 211.518 578.059 211.331C577.872 211.144 577.872 210.958 578.059 210.771Z" fill="#B0BADB"/>
<path d="M212.748 325.027C212.841 324.934 213.121 324.934 213.308 325.027C213.495 325.214 213.495 325.494 213.308 325.68C213.121 325.774 212.841 325.774 212.748 325.68C212.561 325.494 212.561 325.214 212.748 325.027Z" fill="#B0BADB"/>
<path d="M200.991 332.402C201.271 332.029 201.831 332.029 202.111 332.402C202.484 332.682 202.484 333.242 202.111 333.522C201.831 333.896 201.271 333.896 200.991 333.522C200.618 333.242 200.618 332.682 200.991 332.402Z" fill="#B0BADB"/>
<path d="M455.169 86.6202C455.542 86.3401 456.102 86.3401 456.382 86.6202C456.755 86.9936 456.755 87.5537 456.382 87.8337C456.102 88.2071 455.542 88.2071 455.169 87.8337C454.889 87.5537 454.889 86.9936 455.169 86.6202Z" fill="#B0BADB"/>
<path d="M227.958 333.055C228.704 332.308 229.824 332.308 230.477 333.055C231.224 333.709 231.224 334.829 230.477 335.482C229.824 336.229 228.704 336.229 227.958 335.482C227.305 334.829 227.305 333.709 227.958 333.055Z" fill="#B0BADB"/>
<path d="M147.804 306.825C148.177 306.545 148.644 306.545 149.017 306.825C149.297 307.199 149.297 307.665 149.017 308.039C148.644 308.319 148.177 308.319 147.804 308.039C147.524 307.665 147.524 307.199 147.804 306.825Z" fill="#B0BADB"/>
<path d="M172.998 303.278C173.184 303.091 173.464 303.091 173.558 303.278C173.744 303.464 173.744 303.744 173.558 303.838C173.464 304.024 173.184 304.024 172.998 303.838C172.811 303.744 172.811 303.464 172.998 303.278Z" fill="#B0BADB"/>
<path d="M463.474 153.456C463.847 153.082 464.313 153.082 464.687 153.456C464.967 153.736 464.967 154.296 464.687 154.576C464.313 154.949 463.847 154.949 463.474 154.576C463.194 154.296 463.194 153.736 463.474 153.456Z" fill="#B0BADB"/>
<path d="M526.925 86.9002C527.671 86.2468 528.791 86.2468 529.444 86.9002C530.191 87.647 530.191 88.7672 529.444 89.4206C528.791 90.1674 527.671 90.1674 526.925 89.4206C526.272 88.7672 526.272 87.647 526.925 86.9002Z" fill="#B0BADB"/>
<path d="M582.631 240.455C583.005 240.175 583.471 240.175 583.844 240.455C584.124 240.829 584.124 241.295 583.844 241.669C583.471 241.949 583.005 241.949 582.631 241.669C582.351 241.295 582.351 240.829 582.631 240.455Z" fill="#B0BADB"/>
<path d="M482.882 111.823C483.162 111.543 483.722 111.543 484.002 111.823C484.375 112.197 484.375 112.663 484.002 113.037C483.722 113.317 483.162 113.317 482.882 113.037C482.509 112.663 482.509 112.197 482.882 111.823Z" fill="#B0BADB"/>
<path d="M471.312 119.011C471.405 118.918 471.685 118.918 471.872 119.011C472.058 119.198 472.058 119.478 471.872 119.665C471.685 119.758 471.405 119.758 471.312 119.665C471.125 119.478 471.125 119.198 471.312 119.011Z" fill="#B0BADB"/>
<path d="M480.456 118.637C480.643 118.544 480.923 118.544 481.109 118.637C481.203 118.824 481.203 119.104 481.109 119.291C480.923 119.384 480.643 119.384 480.456 119.291C480.363 119.104 480.363 118.824 480.456 118.637Z" fill="#B0BADB"/>
<path d="M468.699 126.012C469.072 125.639 469.539 125.639 469.912 126.012C470.192 126.293 470.192 126.853 469.912 127.133C469.539 127.506 469.072 127.506 468.699 127.133C468.419 126.853 468.419 126.293 468.699 126.012Z" fill="#B0BADB"/>
<path d="M130.728 340.243C131.475 339.59 132.594 339.59 133.248 340.243C133.901 340.99 133.901 342.11 133.248 342.763C132.594 343.417 131.475 343.417 130.728 342.763C130.075 342.11 130.075 340.99 130.728 340.243Z" fill="#B0BADB"/>
<path d="M160.401 334.549C160.681 334.269 161.241 334.269 161.521 334.549C161.894 334.922 161.894 335.389 161.521 335.762C161.241 336.042 160.681 336.042 160.401 335.762C160.028 335.389 160.028 334.922 160.401 334.549Z" fill="#B0BADB"/>
<path d="M422.884 153.923C423.257 153.549 423.723 153.549 424.097 153.923C424.377 154.203 424.377 154.763 424.097 155.043C423.723 155.416 423.257 155.416 422.884 155.043C422.604 154.763 422.604 154.203 422.884 153.923Z" fill="#B0BADB"/>
<path d="M389.665 127.413C389.945 127.039 390.505 127.039 390.785 127.413C391.158 127.693 391.158 128.253 390.785 128.626C390.505 128.906 389.945 128.906 389.665 128.626C389.292 128.253 389.292 127.693 389.665 127.413Z" fill="#B0BADB"/>
<path d="M753.67 252.03C754.603 251.003 756.189 251.003 757.215 252.03C758.148 252.963 758.148 254.55 757.215 255.577C756.189 256.511 754.603 256.511 753.67 255.577C752.643 254.55 752.643 252.963 753.67 252.03Z" fill="#B0BADB"/>
<path d="M611.464 158.871C612.397 157.844 613.984 157.844 615.01 158.871C615.943 159.804 615.943 161.391 615.01 162.325C613.984 163.351 612.397 163.351 611.464 162.325C610.438 161.391 610.438 159.804 611.464 158.871Z" fill="#B0BADB"/>
<path d="M804.244 215.811C805.177 214.878 806.763 214.878 807.79 215.811C808.723 216.838 808.723 218.425 807.79 219.359C806.763 220.385 805.177 220.385 804.244 219.359C803.217 218.425 803.217 216.838 804.244 215.811Z" fill="#B0BADB"/>
<path d="M737.9 221.786C738.553 221.039 739.673 221.039 740.419 221.786C741.073 222.439 741.073 223.559 740.419 224.213C739.673 224.959 738.553 224.959 737.9 224.213C737.247 223.559 737.247 222.439 737.9 221.786Z" fill="#B0BADB"/>
<path d="M836.249 175.953C836.903 175.3 838.022 175.3 838.769 175.953C839.422 176.606 839.422 177.727 838.769 178.473C838.022 179.127 836.903 179.127 836.249 178.473C835.503 177.727 835.503 176.606 836.249 175.953Z" fill="#B0BADB"/>
<path d="M822.066 189.675C822.813 189.021 823.932 189.021 824.586 189.675C825.239 190.328 825.239 191.448 824.586 192.195C823.932 192.848 822.813 192.848 822.066 192.195C821.413 191.448 821.413 190.328 822.066 189.675Z" fill="#B0BADB"/>
<path d="M769.906 291.236C770.652 290.489 771.772 290.489 772.425 291.236C773.171 291.889 773.171 293.009 772.425 293.756C771.772 294.41 770.652 294.41 769.906 293.756C769.252 293.009 769.252 291.889 769.906 291.236Z" fill="#B0BADB"/>
<path d="M744.618 256.791C744.898 256.511 745.458 256.511 745.738 256.791C746.111 257.164 746.111 257.725 745.738 258.005C745.458 258.378 744.898 258.378 744.618 258.005C744.245 257.725 744.245 257.164 744.618 256.791Z" fill="#B0BADB"/>
<path d="M773.265 295.717C773.638 295.437 774.105 295.437 774.478 295.717C774.758 296.09 774.758 296.557 774.478 296.93C774.105 297.21 773.638 297.21 773.265 296.93C772.985 296.557 772.985 296.09 773.265 295.717Z" fill="#B0BADB"/>
<path d="M824.492 288.342C824.865 288.062 825.332 288.062 825.705 288.342C825.985 288.715 825.985 289.182 825.705 289.555C825.332 289.835 824.865 289.835 824.492 289.555C824.212 289.182 824.212 288.715 824.492 288.342Z" fill="#B0BADB"/>
<path d="M849.873 282.181C850.153 281.808 850.713 281.808 850.992 282.181C851.366 282.461 851.366 283.022 850.992 283.302C850.713 283.675 850.153 283.675 849.873 283.302C849.499 283.022 849.499 282.461 849.873 282.181Z" fill="#B0BADB"/>
<path d="M786.515 281.342C786.795 280.968 787.355 280.968 787.635 281.342C788.008 281.622 788.008 282.182 787.635 282.555C787.355 282.835 786.795 282.835 786.515 282.555C786.142 282.182 786.142 281.622 786.515 281.342Z" fill="#B0BADB"/>
<path d="M632.086 135.44C632.366 135.16 632.926 135.16 633.206 135.44C633.579 135.814 633.579 136.281 633.206 136.654C632.926 136.934 632.366 136.934 632.086 136.654C631.713 136.281 631.713 135.814 632.086 135.44Z" fill="#B0BADB"/>
<path d="M775.411 277.327C775.784 276.954 776.251 276.954 776.624 277.327C776.904 277.607 776.904 278.167 776.624 278.54C776.251 278.82 775.784 278.82 775.411 278.54C775.131 278.167 775.131 277.607 775.411 277.327Z" fill="#B0BADB"/>
<path d="M763.84 284.515C764.027 284.328 764.307 284.328 764.4 284.515C764.587 284.702 764.587 284.982 764.4 285.168C764.307 285.262 764.027 285.262 763.84 285.168C763.654 284.982 763.654 284.702 763.84 284.515Z" fill="#B0BADB"/>
<path d="M773.078 284.142C773.265 283.955 773.451 283.955 773.638 284.142C773.825 284.329 773.825 284.609 773.638 284.702C773.451 284.889 773.265 284.889 773.078 284.702C772.892 284.609 772.892 284.329 773.078 284.142Z" fill="#B0BADB"/>
<path d="M761.321 291.423C761.601 291.143 762.161 291.143 762.441 291.423C762.814 291.796 762.814 292.356 762.441 292.636C762.161 292.916 761.601 292.916 761.321 292.636C760.948 292.356 760.948 291.796 761.321 291.423Z" fill="#B0BADB"/>
<path d="M593.175 249.696C593.549 249.416 594.015 249.416 594.388 249.696C594.668 250.07 594.668 250.536 594.388 250.91C594.015 251.19 593.549 251.19 593.175 250.91C592.895 250.536 592.895 250.07 593.175 249.696Z" fill="#B0BADB"/>
<path d="M604.746 242.322C605.026 241.949 605.586 241.949 605.866 242.322C606.239 242.602 606.239 243.162 605.866 243.442C605.586 243.816 605.026 243.816 604.746 243.442C604.373 243.162 604.373 242.602 604.746 242.322Z" fill="#B0BADB"/>
<path d="M918.829 265.192C918.829 266.499 917.71 267.619 916.31 267.619C914.91 267.619 913.791 266.499 913.791 265.192C913.791 263.792 914.91 262.672 916.31 262.672C917.71 262.672 918.829 263.792 918.829 265.192Z" fill="#B0BADB"/>
<path d="M916.31 217.959C916.31 219.266 915.19 220.386 913.791 220.386C912.484 220.386 911.365 219.266 911.365 217.959C911.365 216.559 912.484 215.438 913.791 215.438C915.19 215.438 916.31 216.559 916.31 217.959Z" fill="#B0BADB"/>
<path d="M951.301 275.367C951.301 276.394 950.555 277.14 949.528 277.14C948.595 277.14 947.849 276.394 947.849 275.367C947.849 274.433 948.595 273.687 949.528 273.687C950.555 273.687 951.301 274.433 951.301 275.367Z" fill="#B0BADB"/>
<path d="M586.364 255.391C586.364 256.418 585.524 257.164 584.591 257.164C583.564 257.164 582.818 256.418 582.818 255.391C582.818 254.457 583.564 253.617 584.591 253.617C585.524 253.617 586.364 254.457 586.364 255.391Z" fill="#B0BADB"/>
<path d="M966.791 148.602C966.791 149.629 966.044 150.375 965.018 150.375C964.085 150.375 963.245 149.629 963.245 148.602C963.245 147.668 964.085 146.828 965.018 146.828C966.044 146.828 966.791 147.668 966.791 148.602Z" fill="#B0BADB"/>
<path d="M968.097 223.466C968.097 224.493 967.351 225.24 966.324 225.24C965.391 225.24 964.645 224.493 964.645 223.466C964.645 222.532 965.391 221.692 966.324 221.692C967.351 221.692 968.097 222.532 968.097 223.466Z" fill="#B0BADB"/>
<path d="M602.226 185.474C602.226 186.127 601.667 186.781 600.92 186.781C600.267 186.781 599.707 186.127 599.707 185.474C599.707 184.727 600.267 184.167 600.92 184.167C601.667 184.167 602.226 184.727 602.226 185.474Z" fill="#B0BADB"/>
<path d="M921.815 255.297C921.815 255.764 921.442 256.137 920.975 256.137C920.509 256.137 920.136 255.764 920.136 255.297C920.136 254.83 920.509 254.457 920.975 254.457C921.442 254.457 921.815 254.83 921.815 255.297Z" fill="#B0BADB"/>
<path d="M580.765 254.551C580.765 255.017 580.392 255.391 579.925 255.391C579.459 255.391 579.085 255.017 579.085 254.551C579.085 254.177 579.459 253.804 579.925 253.804C580.392 253.804 580.765 254.177 580.765 254.551Z" fill="#B0BADB"/>
<path d="M581.605 274.154C581.605 274.62 581.232 274.994 580.765 274.994C580.298 274.994 579.925 274.62 579.925 274.154C579.925 273.687 580.298 273.313 580.765 273.313C581.232 273.313 581.605 273.687 581.605 274.154Z" fill="#B0BADB"/>
<path d="M592.336 269.113C592.336 269.579 591.962 269.953 591.496 269.953C591.029 269.953 590.656 269.579 590.656 269.113C590.656 268.646 591.029 268.272 591.496 268.272C591.962 268.272 592.336 268.646 592.336 269.113Z" fill="#B0BADB"/>
<path d="M781.569 67.4837C781.569 67.9504 781.196 68.3238 780.73 68.3238C780.356 68.3238 779.983 67.9504 779.983 67.4837C779.983 67.0169 780.356 66.6436 780.73 66.6436C781.196 66.6436 781.569 67.0169 781.569 67.4837Z" fill="#B0BADB"/>
<path d="M929.187 201.623C929.187 202.09 928.813 202.463 928.347 202.463C927.88 202.463 927.507 202.09 927.507 201.623C927.507 201.157 927.88 200.783 928.347 200.783C928.813 200.783 929.187 201.157 929.187 201.623Z" fill="#B0BADB"/>
<path d="M595.415 255.857C595.415 256.044 595.228 256.231 594.948 256.231C594.762 256.231 594.575 256.044 594.575 255.857C594.575 255.577 594.762 255.391 594.948 255.391C595.228 255.391 595.415 255.577 595.415 255.857Z" fill="#B0BADB"/>
<path d="M589.163 262.672C589.163 262.859 588.976 263.045 588.696 263.045C588.51 263.045 588.323 262.859 588.323 262.672C588.323 262.392 588.51 262.205 588.696 262.205C588.976 262.205 589.163 262.392 589.163 262.672Z" fill="#B0BADB"/>
<path d="M592.336 249.137C592.336 249.604 591.962 249.977 591.496 249.977C591.029 249.977 590.656 249.604 590.656 249.137C590.656 248.67 591.029 248.297 591.496 248.297C591.962 248.297 592.336 248.67 592.336 249.137Z" fill="#B0BADB"/>
<path d="M863.31 142.348C863.31 142.815 862.936 143.188 862.47 143.188C862.003 143.188 861.63 142.815 861.63 142.348C861.63 141.881 862.003 141.508 862.47 141.508C862.936 141.508 863.31 141.881 863.31 142.348Z" fill="#B0BADB"/>
<path d="M614.637 154.857C614.637 155.323 614.264 155.697 613.797 155.697C613.33 155.697 612.957 155.323 612.957 154.857C612.957 154.39 613.33 154.017 613.797 154.017C614.264 154.017 614.637 154.39 614.637 154.857Z" fill="#B0BADB"/>
<path d="M966.324 72.5243C967.351 71.5909 968.937 71.5909 969.87 72.5243C970.897 73.5511 970.897 75.138 969.87 76.0715C968.937 77.0983 967.351 77.0983 966.324 76.0715C965.391 75.138 965.391 73.5511 966.324 72.5243Z" fill="white"/>
<path d="M1038.55 165.498C1039.48 164.564 1041.07 164.564 1042.09 165.498C1043.03 166.525 1043.03 168.112 1042.09 169.045C1041.07 170.072 1039.48 170.072 1038.55 169.045C1037.52 168.112 1037.52 166.525 1038.55 165.498Z" fill="#B0BADB"/>
<path d="M1005.79 124.892C1006.54 124.239 1007.66 124.239 1008.31 124.892C1009.06 125.639 1009.06 126.759 1008.31 127.413C1007.66 128.066 1006.54 128.066 1005.79 127.413C1005.14 126.759 1005.14 125.639 1005.79 124.892Z" fill="#B0BADB"/>
<path d="M1070.27 66.0838C1070.65 65.7104 1071.21 65.7104 1071.49 66.0838C1071.86 66.3638 1071.86 66.9239 1071.49 67.2039C1071.21 67.5773 1070.65 67.5773 1070.27 67.2039C1069.99 66.9239 1069.99 66.3638 1070.27 66.0838Z" fill="#B0BADB"/>
<path d="M973.043 93.2474C973.229 93.0607 973.509 93.0607 973.603 93.2474C973.789 93.3408 973.789 93.6208 973.603 93.8075C973.509 93.9942 973.229 93.9942 973.043 93.8075C972.856 93.6208 972.856 93.3408 973.043 93.2474Z" fill="#B0BADB"/>
<path d="M938.984 93.7139C939.264 93.4339 939.824 93.4339 940.104 93.7139C940.477 94.0873 940.477 94.5541 940.104 94.9274C939.824 95.2075 939.264 95.2075 938.984 94.9274C938.611 94.5541 938.611 94.0873 938.984 93.7139Z" fill="#B0BADB"/>
<path d="M997.397 146.269C997.77 145.989 998.236 145.989 998.61 146.269C998.89 146.642 998.89 147.109 998.61 147.482C998.236 147.762 997.77 147.762 997.397 147.482C997.117 147.109 997.117 146.642 997.397 146.269Z" fill="#B0BADB"/>
<path d="M927.787 138.428C928.067 138.054 928.627 138.054 929 138.428C929.28 138.708 929.28 139.268 929 139.548C928.627 139.921 928.067 139.921 927.787 139.548C927.414 139.268 927.414 138.708 927.787 138.428Z" fill="#B0BADB"/>
<path d="M955.407 241.015C955.594 240.828 955.874 240.828 955.967 241.015C956.153 241.108 956.153 241.388 955.967 241.575C955.874 241.762 955.594 241.762 955.407 241.575C955.22 241.388 955.22 241.108 955.407 241.015Z" fill="#B0BADB"/>
<path d="M947.196 160.551C947.569 160.177 948.036 160.177 948.409 160.551C948.689 160.831 948.689 161.391 948.409 161.671C948.036 162.044 947.569 162.044 947.196 161.671C946.916 161.391 946.916 160.831 947.196 160.551Z" fill="#B0BADB"/>
<path d="M950.928 61.4165C951.674 60.6698 952.794 60.6698 953.447 61.4165C954.101 62.07 954.101 63.1901 953.447 63.9369C952.794 64.5903 951.674 64.5903 950.928 63.9369C950.275 63.1901 950.275 62.07 950.928 61.4165Z" fill="#B0BADB"/>
<path d="M533.736 359.472C534.483 358.725 535.603 358.725 536.256 359.472C536.909 360.126 536.909 361.246 536.256 361.899C535.603 362.646 534.483 362.646 533.736 361.899C533.083 361.246 533.083 360.126 533.736 359.472Z" fill="#B0BADB"/>
<path d="M1007.66 111.45C1007.94 111.17 1008.5 111.17 1008.78 111.45C1009.15 111.824 1009.15 112.29 1008.78 112.664C1008.5 112.944 1007.94 112.944 1007.66 112.664C1007.29 112.29 1007.29 111.824 1007.66 111.45Z" fill="#B0BADB"/>
<path d="M856.591 100.901C856.871 100.621 857.431 100.621 857.711 100.901C858.084 101.275 858.084 101.742 857.711 102.115C857.431 102.395 856.871 102.395 856.591 102.115C856.218 101.742 856.218 101.275 856.591 100.901Z" fill="#B0BADB"/>
<path d="M955.034 126.105C955.127 126.012 955.407 126.012 955.594 126.105C955.78 126.292 955.78 126.572 955.594 126.759C955.407 126.852 955.127 126.852 955.034 126.759C954.847 126.572 954.847 126.292 955.034 126.105Z" fill="#B0BADB"/>
<path d="M964.178 125.732C964.365 125.545 964.645 125.545 964.831 125.732C964.925 125.919 964.925 126.199 964.831 126.385C964.645 126.479 964.365 126.479 964.178 126.385C964.085 126.199 964.085 125.919 964.178 125.732Z" fill="#B0BADB"/>
<path d="M952.421 133.106C952.794 132.733 953.261 132.733 953.634 133.106C953.914 133.386 953.914 133.946 953.634 134.226C953.261 134.6 952.794 134.6 952.421 134.226C952.141 133.946 952.141 133.386 952.421 133.106Z" fill="#B0BADB"/>
<path d="M778.397 145.522C778.397 146.455 777.65 147.295 776.624 147.295C775.691 147.295 774.851 146.455 774.851 145.522C774.851 144.495 775.691 143.748 776.624 143.748C777.65 143.748 778.397 144.495 778.397 145.522Z" fill="#B0BADB"/>
<path d="M778.024 134.04C778.957 133.106 780.543 133.106 781.476 134.04C782.503 135.067 782.503 136.654 781.476 137.587C780.543 138.614 778.957 138.614 778.024 137.587C776.997 136.654 776.997 135.067 778.024 134.04Z" fill="#B0BADB"/>
<path d="M817.494 121.812C818.147 121.065 819.267 121.065 819.92 121.812C820.667 122.465 820.667 123.586 819.92 124.239C819.267 124.986 818.147 124.986 817.494 124.239C816.747 123.586 816.747 122.465 817.494 121.812Z" fill="#B0BADB"/>
<path d="M784.649 90.0736C784.835 89.8869 785.115 89.8869 785.208 90.0736C785.395 90.2603 785.395 90.447 785.208 90.6337C785.115 90.8204 784.835 90.8204 784.649 90.6337C784.462 90.447 784.462 90.2603 784.649 90.0736Z" fill="#B0BADB"/>
<path d="M750.59 90.6336C750.87 90.2602 751.43 90.2602 751.71 90.6336C752.083 90.9136 752.083 91.4737 751.71 91.7537C751.43 92.1271 750.87 92.1271 750.59 91.7537C750.217 91.4737 750.217 90.9136 750.59 90.6336Z" fill="#B0BADB"/>
<path d="M739.393 135.254C739.673 134.88 740.233 134.88 740.606 135.254C740.886 135.534 740.886 136.094 740.606 136.467C740.233 136.747 739.673 136.747 739.393 136.467C739.113 136.094 739.113 135.534 739.393 135.254Z" fill="#B0BADB"/>
<path d="M758.802 157.377C759.175 157.003 759.641 157.003 760.015 157.377C760.295 157.657 760.295 158.217 760.015 158.497C759.641 158.87 759.175 158.87 758.802 158.497C758.522 158.217 758.522 157.657 758.802 157.377Z" fill="#B0BADB"/>
<path d="M772.705 129.653C773.358 129 774.478 129 775.224 129.653C775.877 130.4 775.877 131.52 775.224 132.174C774.478 132.827 773.358 132.827 772.705 132.174C772.052 131.52 772.052 130.4 772.705 129.653Z" fill="#B0BADB"/>
<path d="M789.221 119.758C789.594 119.478 790.154 119.478 790.434 119.758C790.807 120.131 790.807 120.598 790.434 120.971C790.154 121.251 789.594 121.251 789.221 120.971C788.941 120.598 788.941 120.131 789.221 119.758Z" fill="#B0BADB"/>
<path d="M778.21 115.744C778.49 115.464 779.05 115.464 779.33 115.744C779.703 116.118 779.703 116.584 779.33 116.958C779.05 117.238 778.49 117.238 778.21 116.958C777.837 116.584 777.837 116.118 778.21 115.744Z" fill="#B0BADB"/>
<path d="M766.64 123.025C766.733 122.838 767.013 122.838 767.2 123.025C767.386 123.118 767.386 123.398 767.2 123.585C767.013 123.772 766.733 123.772 766.64 123.585C766.453 123.398 766.453 123.118 766.64 123.025Z" fill="#B0BADB"/>
<path d="M775.877 122.558C775.971 122.465 776.251 122.465 776.437 122.558C776.624 122.745 776.624 123.025 776.437 123.212C776.251 123.398 775.971 123.398 775.877 123.212C775.691 123.025 775.691 122.745 775.877 122.558Z" fill="#B0BADB"/>
<path d="M764.027 129.932C764.4 129.559 764.867 129.559 765.24 129.932C765.52 130.212 765.52 130.772 765.24 131.053C764.867 131.426 764.4 131.426 764.027 131.053C763.747 130.772 763.747 130.212 764.027 129.932Z" fill="#B0BADB"/>
<path d="M1005.24 231.494C1005.89 230.841 1007.01 230.841 1007.75 231.494C1008.41 232.147 1008.41 233.268 1007.75 234.014C1007.01 234.668 1005.89 234.668 1005.24 234.014C1004.49 233.268 1004.49 232.147 1005.24 231.494Z" fill="#B0BADB"/>
<path d="M1007.57 177.726C1008.31 176.979 1009.43 176.979 1010.09 177.726C1010.83 178.38 1010.83 179.5 1010.09 180.153C1009.43 180.9 1008.31 180.9 1007.57 180.153C1006.91 179.5 1006.91 178.38 1007.57 177.726Z" fill="#B0BADB"/>
<path d="M1000.01 255.577C1000.48 255.017 1001.32 255.017 1001.78 255.577C1002.34 256.044 1002.34 256.884 1001.78 257.444C1001.32 257.911 1000.48 257.911 1000.01 257.444C999.45 256.884 999.45 256.044 1000.01 255.577Z" fill="#B0BADB"/>
<path d="M1008.59 235.975C1008.87 235.695 1009.43 235.695 1009.71 235.975C1010.09 236.348 1010.09 236.815 1009.71 237.188C1009.43 237.468 1008.87 237.468 1008.59 237.188C1008.22 236.815 1008.22 236.348 1008.59 235.975Z" fill="#B0BADB"/>
<path d="M1021.75 221.6C1022.12 221.32 1022.59 221.32 1022.96 221.6C1023.24 221.973 1023.24 222.44 1022.96 222.813C1022.59 223.093 1022.12 223.093 1021.75 222.813C1021.47 222.44 1021.47 221.973 1021.75 221.6Z" fill="#B0BADB"/>
<path d="M1059.45 170.726C1059.73 170.446 1060.29 170.446 1060.57 170.726C1060.94 171.099 1060.94 171.566 1060.57 171.939C1060.29 172.219 1059.73 172.219 1059.45 171.939C1059.08 171.566 1059.08 171.099 1059.45 170.726Z" fill="#B0BADB"/>
<path d="M1010.74 217.585C1011.02 217.305 1011.58 217.305 1011.86 217.585C1012.23 217.958 1012.23 218.425 1011.86 218.799C1011.58 219.079 1011.02 219.079 1010.74 218.799C1010.37 218.425 1010.37 217.958 1010.74 217.585Z" fill="#B0BADB"/>
<path d="M999.076 224.773C999.263 224.68 999.543 224.68 999.73 224.773C999.916 224.96 999.916 225.24 999.73 225.427C999.543 225.52 999.263 225.52 999.076 225.427C998.983 225.24 998.983 224.96 999.076 224.773Z" fill="#B0BADB"/>
<path d="M983.214 259.031C983.4 258.938 983.587 258.938 983.774 259.031C983.96 259.218 983.96 259.498 983.774 259.684C983.587 259.778 983.4 259.778 983.214 259.684C983.027 259.498 983.027 259.218 983.214 259.031Z" fill="#B0BADB"/>
<path d="M1031.64 265.566C1031.73 265.473 1032.01 265.473 1032.2 265.566C1032.39 265.753 1032.39 266.033 1032.2 266.22C1032.01 266.313 1031.73 266.313 1031.64 266.22C1031.45 266.033 1031.45 265.753 1031.64 265.566Z" fill="#B0BADB"/>
<path d="M1008.31 224.4C1008.5 224.307 1008.78 224.307 1008.97 224.4C1009.06 224.587 1009.06 224.867 1008.97 225.054C1008.78 225.147 1008.5 225.147 1008.31 225.054C1008.22 224.867 1008.22 224.587 1008.31 224.4Z" fill="#B0BADB"/>
<path d="M996.557 231.774C996.93 231.401 997.397 231.401 997.77 231.774C998.05 232.054 998.05 232.614 997.77 232.894C997.397 233.268 996.93 233.268 996.557 232.894C996.277 232.614 996.277 232.054 996.557 231.774Z" fill="#B0BADB"/>
<path d="M939.824 231.214C940.104 230.934 940.664 230.934 940.944 231.214C941.317 231.587 941.317 232.054 940.944 232.427C940.664 232.707 940.104 232.707 939.824 232.427C939.451 232.054 939.451 231.587 939.824 231.214Z" fill="#B0BADB"/>
<path d="M1022.96 259.312C1023.34 259.032 1023.8 259.032 1024.18 259.312C1024.46 259.685 1024.46 260.152 1024.18 260.525C1023.8 260.805 1023.34 260.805 1022.96 260.525C1022.68 260.152 1022.68 259.685 1022.96 259.312Z" fill="#B0BADB"/>
<path d="M916.496 308.131C917.15 307.385 918.269 307.385 919.016 308.131C919.669 308.785 919.669 309.905 919.016 310.652C918.269 311.305 917.15 311.305 916.496 310.652C915.843 309.905 915.843 308.785 916.496 308.131Z" fill="#B0BADB"/>
<path d="M835.13 301.224C835.316 301.037 835.596 301.037 835.69 301.224C835.876 301.411 835.876 301.691 835.69 301.784C835.596 301.971 835.316 301.971 835.13 301.784C834.943 301.691 834.943 301.411 835.13 301.224Z" fill="#B0BADB"/>
<path d="M1199.69 83.3524C1200.44 82.6989 1201.56 82.6989 1202.21 83.3524C1202.87 84.0991 1202.87 85.2193 1202.21 85.8727C1201.56 86.6195 1200.44 86.6195 1199.69 85.8727C1199.04 85.2193 1199.04 84.0991 1199.69 83.3524Z" fill="#B0BADB"/>
<path d="M1185.6 97.1685C1186.26 96.4217 1187.38 96.4217 1188.12 97.1685C1188.78 97.8219 1188.78 98.9421 1188.12 99.5955C1187.38 100.342 1186.26 100.342 1185.6 99.5955C1184.86 98.9421 1184.86 97.8219 1185.6 97.1685Z" fill="#B0BADB"/>
<path d="M1188.03 195.836C1188.31 195.462 1188.87 195.462 1189.15 195.836C1189.52 196.116 1189.52 196.676 1189.15 196.956C1188.87 197.329 1188.31 197.329 1188.03 196.956C1187.66 196.676 1187.66 196.116 1188.03 195.836Z" fill="#B0BADB"/>
<path d="M1213.32 189.581C1213.6 189.301 1214.16 189.301 1214.53 189.581C1214.81 189.955 1214.81 190.515 1214.53 190.795C1214.16 191.168 1213.6 191.168 1213.32 190.795C1213.04 190.515 1213.04 189.955 1213.32 189.581Z" fill="#B0BADB"/>
<path d="M1226.75 49.7483C1226.75 50.2151 1226.38 50.5884 1225.91 50.5884C1225.45 50.5884 1225.07 50.2151 1225.07 49.7483C1225.07 49.2816 1225.45 48.9082 1225.91 48.9082C1226.38 48.9082 1226.75 49.2816 1226.75 49.7483Z" fill="#B0BADB"/>
<path d="M1180.94 29.2118C1181.59 28.5583 1182.71 28.5583 1183.46 29.2118C1184.11 29.8652 1184.11 30.9853 1183.46 31.7321C1182.71 32.3855 1181.59 32.3855 1180.94 31.7321C1180.29 30.9853 1180.29 29.8652 1180.94 29.2118Z" fill="#B0BADB"/>
<path d="M1198.57 208.717C1198.76 208.53 1199.04 208.53 1199.23 208.717C1199.41 208.811 1199.41 209.091 1199.23 209.277C1199.04 209.464 1198.76 209.464 1198.57 209.277C1198.48 209.091 1198.48 208.811 1198.57 208.717Z" fill="#B0BADB"/>
<path d="M57.7592 343.043C57.7592 344.443 56.6395 345.564 55.2399 345.564C53.9335 345.564 52.8138 344.443 52.8138 343.043C52.8138 341.736 53.9335 340.616 55.2399 340.616C56.6395 340.616 57.7592 341.736 57.7592 343.043Z" fill="#B0BADB"/>
<path d="M55.2398 295.81C55.2398 297.21 54.1201 298.33 52.8138 298.33C51.4141 298.33 50.2944 297.21 50.2944 295.81C50.2944 294.503 51.4141 293.383 52.8138 293.383C54.1201 293.383 55.2398 294.503 55.2398 295.81Z" fill="#B0BADB"/>
<path d="M90.3246 353.312C90.3246 354.339 89.4848 355.085 88.5517 355.085C87.5253 355.085 86.7788 354.339 86.7788 353.312C86.7788 352.378 87.5253 351.538 88.5517 351.538C89.4848 351.538 90.3246 352.378 90.3246 353.312Z" fill="#B0BADB"/>
<path d="M105.721 226.547C105.721 227.574 104.974 228.321 104.041 228.321C103.015 228.321 102.268 227.574 102.268 226.547C102.268 225.614 103.015 224.773 104.041 224.773C104.974 224.773 105.721 225.614 105.721 226.547Z" fill="#B0BADB"/>
<path d="M107.121 301.41C107.121 302.437 106.281 303.184 105.348 303.184C104.321 303.184 103.575 302.437 103.575 301.41C103.575 300.477 104.321 299.637 105.348 299.637C106.281 299.637 107.121 300.477 107.121 301.41Z" fill="#B0BADB"/>
<path d="M60.7452 333.242C60.7452 333.709 60.3719 334.083 59.9054 334.083C59.5321 334.083 59.1589 333.709 59.1589 333.242C59.1589 332.776 59.5321 332.402 59.9054 332.402C60.3719 332.402 60.7452 332.776 60.7452 333.242Z" fill="#B0BADB"/>
<path d="M68.21 279.474C68.21 279.941 67.8368 280.314 67.3702 280.314C66.9037 280.314 66.5304 279.941 66.5304 279.474C66.5304 279.101 66.9037 278.728 67.3702 278.728C67.8368 278.728 68.21 279.101 68.21 279.474Z" fill="#B0BADB"/>
<path d="M2.23947 220.199C2.23947 220.666 1.86622 221.04 1.39967 221.04C0.933118 221.04 0.559875 220.666 0.559875 220.199C0.559875 219.733 0.933118 219.359 1.39967 219.359C1.86622 219.359 2.23947 219.733 2.23947 220.199Z" fill="#B0BADB"/>
<path d="M105.348 215.159C106.281 214.132 107.867 214.132 108.893 215.159C109.827 216.092 109.827 217.679 108.893 218.706C107.867 219.639 106.281 219.639 105.348 218.706C104.321 217.679 104.321 216.092 105.348 215.159Z" fill="#B0BADB"/>
<path d="M177.477 243.442C178.503 242.509 180.089 242.509 181.023 243.442C181.956 244.469 181.956 245.963 181.023 246.989C180.089 247.923 178.503 247.923 177.477 246.989C176.544 245.963 176.544 244.469 177.477 243.442Z" fill="#B0BADB"/>
<path d="M144.818 202.837C145.471 202.183 146.591 202.183 147.337 202.837C147.991 203.49 147.991 204.61 147.337 205.357C146.591 206.011 145.471 206.011 144.818 205.357C144.071 204.61 144.071 203.49 144.818 202.837Z" fill="#B0BADB"/>
<path d="M156.855 245.869C157.135 245.589 157.695 245.589 157.975 245.869C158.348 246.243 158.348 246.709 157.975 247.083C157.695 247.363 157.135 247.363 156.855 247.083C156.482 246.709 156.482 246.243 156.855 245.869Z" fill="#B0BADB"/>
<path d="M111.973 171.098C112.159 171.005 112.439 171.005 112.626 171.098C112.719 171.285 112.719 171.565 112.626 171.752C112.439 171.845 112.159 171.845 111.973 171.752C111.879 171.565 111.879 171.285 111.973 171.098Z" fill="#B0BADB"/>
<path d="M77.9143 171.659C78.1943 171.379 78.7541 171.379 79.1274 171.659C79.4073 172.033 79.4073 172.499 79.1274 172.873C78.7541 173.153 78.1943 173.153 77.9143 172.873C77.5411 172.499 77.5411 172.033 77.9143 171.659Z" fill="#B0BADB"/>
<path d="M163.573 222.159C163.947 221.879 164.507 221.879 164.786 222.159C165.16 222.533 165.16 222.999 164.786 223.373C164.507 223.653 163.947 223.653 163.573 223.373C163.294 222.999 163.294 222.533 163.573 222.159Z" fill="#B0BADB"/>
<path d="M66.7171 216.278C67.0903 215.998 67.5569 215.998 67.9301 216.278C68.21 216.652 68.21 217.212 67.9301 217.492C67.5569 217.865 67.0903 217.865 66.7171 217.492C66.4371 217.212 66.4371 216.652 66.7171 216.278Z" fill="#B0BADB"/>
<path d="M94.337 318.867C94.5236 318.774 94.8035 318.774 94.9902 318.867C95.1768 319.054 95.1768 319.334 94.9902 319.52C94.8035 319.707 94.5236 319.707 94.337 319.52C94.2437 319.334 94.2437 319.054 94.337 318.867Z" fill="#B0BADB"/>
<path d="M86.219 238.401C86.4989 238.121 87.0588 238.121 87.3387 238.401C87.7119 238.775 87.7119 239.335 87.3387 239.615C87.0588 239.895 86.4989 239.895 86.219 239.615C85.8457 239.335 85.8457 238.775 86.219 238.401Z" fill="#B0BADB"/>
<path d="M100.029 210.771C100.775 210.024 101.895 210.024 102.548 210.771C103.201 211.424 103.201 212.545 102.548 213.198C101.895 213.945 100.775 213.945 100.029 213.198C99.3758 212.545 99.3758 211.424 100.029 210.771Z" fill="#B0BADB"/>
<path d="M116.638 200.877C116.918 200.503 117.478 200.503 117.758 200.877C118.131 201.157 118.131 201.717 117.758 201.997C117.478 202.37 116.918 202.37 116.638 201.997C116.265 201.717 116.265 201.157 116.638 200.877Z" fill="#B0BADB"/>
<path d="M105.534 196.862C105.908 196.489 106.374 196.489 106.747 196.862C107.027 197.142 107.027 197.702 106.747 197.982C106.374 198.356 105.908 198.356 105.534 197.982C105.254 197.702 105.254 197.142 105.534 196.862Z" fill="#B0BADB"/>
<path d="M93.9637 204.05C94.1504 203.863 94.4303 203.863 94.5236 204.05C94.7102 204.237 94.7102 204.517 94.5236 204.61C94.4303 204.797 94.1504 204.797 93.9637 204.61C93.7771 204.517 93.7771 204.237 93.9637 204.05Z" fill="#B0BADB"/>
<path d="M103.202 203.677C103.388 203.49 103.575 203.49 103.761 203.677C103.948 203.864 103.948 204.144 103.761 204.237C103.575 204.424 103.388 204.424 103.202 204.237C103.015 204.144 103.015 203.864 103.202 203.677Z" fill="#B0BADB"/>
<path d="M91.4444 210.958C91.7243 210.678 92.2842 210.678 92.5641 210.958C92.9373 211.331 92.9373 211.798 92.5641 212.172C92.2842 212.452 91.7243 212.452 91.4444 212.172C91.0711 211.798 91.0711 211.331 91.4444 210.958Z" fill="#B0BADB"/>
<path d="M812.642 54.6021C813.295 53.8553 814.415 53.8553 815.068 54.6021C815.814 55.2555 815.814 56.3757 815.068 57.1224C814.415 57.7759 813.295 57.7759 812.642 57.1224C811.895 56.3757 811.895 55.2555 812.642 54.6021Z" fill="#B0BADB"/>
<path d="M144.165 309.439C144.911 308.692 146.031 308.692 146.684 309.439C147.337 310.092 147.337 311.213 146.684 311.959C146.031 312.613 144.911 312.613 144.165 311.959C143.512 311.213 143.512 310.092 144.165 309.439Z" fill="#B0BADB"/>
<path d="M146.591 255.578C147.244 254.925 148.364 254.925 149.017 255.578C149.763 256.325 149.763 257.445 149.017 258.098C148.364 258.752 147.244 258.752 146.591 258.098C145.844 257.445 145.844 256.325 146.591 255.578Z" fill="white"/>
<path d="M138.939 333.522C139.499 332.962 140.246 332.962 140.806 333.522C141.272 333.988 141.272 334.828 140.806 335.295C140.246 335.855 139.499 335.855 138.939 335.295C138.473 334.828 138.473 333.988 138.939 333.522Z" fill="#B0BADB"/>
<path d="M147.524 313.919C147.804 313.639 148.364 313.639 148.737 313.919C149.017 314.292 149.017 314.759 148.737 315.133C148.364 315.413 147.804 315.413 147.524 315.133C147.151 314.759 147.151 314.292 147.524 313.919Z" fill="#B0BADB"/>
<path d="M160.774 299.544C161.054 299.17 161.614 299.17 161.894 299.544C162.267 299.824 162.267 300.384 161.894 300.757C161.614 301.037 161.054 301.037 160.774 300.757C160.401 300.384 160.401 299.824 160.774 299.544Z" fill="#B0BADB"/>
<path d="M176.17 249.883C176.45 249.603 177.01 249.603 177.383 249.883C177.663 250.256 177.663 250.723 177.383 251.096C177.01 251.376 176.45 251.376 176.17 251.096C175.89 250.723 175.89 250.256 176.17 249.883Z" fill="#B0BADB"/>
<path d="M149.67 295.53C149.95 295.157 150.51 295.157 150.883 295.53C151.163 295.81 151.163 296.37 150.883 296.65C150.51 297.024 149.95 297.024 149.67 296.65C149.297 296.37 149.297 295.81 149.67 295.53Z" fill="#B0BADB"/>
<path d="M138.1 302.718C138.286 302.531 138.473 302.531 138.66 302.718C138.846 302.905 138.846 303.185 138.66 303.278C138.473 303.465 138.286 303.465 138.1 303.278C137.913 303.185 137.913 302.905 138.1 302.718Z" fill="#B0BADB"/>
<path d="M122.144 336.976C122.33 336.789 122.61 336.789 122.797 336.976C122.89 337.163 122.89 337.443 122.797 337.536C122.61 337.723 122.33 337.723 122.144 337.536C121.957 337.443 121.957 337.163 122.144 336.976Z" fill="#B0BADB"/>
<path d="M170.572 343.51C170.758 343.323 170.945 343.323 171.132 343.51C171.318 343.697 171.318 343.977 171.132 344.07C170.945 344.257 170.758 344.257 170.572 344.07C170.385 343.977 170.385 343.697 170.572 343.51Z" fill="#B0BADB"/>
<path d="M147.337 302.344C147.431 302.157 147.711 302.157 147.897 302.344C148.084 302.531 148.084 302.811 147.897 302.904C147.711 303.091 147.431 303.091 147.337 302.904C147.151 302.811 147.151 302.531 147.337 302.344Z" fill="#B0BADB"/>
<path d="M135.487 309.625C135.86 309.345 136.42 309.345 136.7 309.625C137.073 309.998 137.073 310.465 136.7 310.839C136.42 311.119 135.86 311.119 135.487 310.839C135.207 310.465 135.207 309.998 135.487 309.625Z" fill="#B0BADB"/>
<path d="M78.7541 309.159C79.0341 308.786 79.5939 308.786 79.9672 309.159C80.2471 309.439 80.2471 309.999 79.9672 310.279C79.5939 310.652 79.0341 310.652 78.7541 310.279C78.3809 309.999 78.3809 309.439 78.7541 309.159Z" fill="#B0BADB"/>
<path d="M161.987 337.256C162.267 336.976 162.827 336.976 163.107 337.256C163.48 337.629 163.48 338.096 163.107 338.469C162.827 338.749 162.267 338.749 161.987 338.469C161.614 338.096 161.614 337.629 161.987 337.256Z" fill="#B0BADB"/>
<path d="M55.4265 386.077C56.1729 385.33 57.2927 385.33 57.9458 386.077C58.599 386.73 58.599 387.85 57.9458 388.504C57.2927 389.25 56.1729 389.25 55.4265 388.504C54.7733 387.85 54.7733 386.73 55.4265 386.077Z" fill="#B0BADB"/>
<path d="M801.071 301.784C801.351 301.411 801.911 301.411 802.191 301.784C802.564 302.064 802.564 302.624 802.191 302.904C801.911 303.277 801.351 303.277 801.071 302.904C800.698 302.624 800.698 302.064 801.071 301.784Z" fill="#B0BADB"/>
<path d="M164.88 343.137C165.066 342.95 165.346 342.95 165.44 343.137C165.626 343.23 165.626 343.51 165.44 343.697C165.346 343.884 165.066 343.884 164.88 343.697C164.693 343.51 164.693 343.23 164.88 343.137Z" fill="#B0BADB"/>
<path d="M130.821 343.604C131.101 343.324 131.661 343.324 131.941 343.604C132.314 343.977 132.314 344.444 131.941 344.817C131.661 345.097 131.101 345.097 130.821 344.817C130.448 344.444 130.448 343.977 130.821 343.604Z" fill="#B0BADB"/>
</svg>
