<svg width="1263" height="972" viewBox="0 0 1263 972" fill="none" xmlns="http://www.w3.org/2000/svg">
<g clip-path="url(#clip0_5_1287)">
<mask id="mask0_5_1287" style="mask-type:luminance" maskUnits="userSpaceOnUse" x="86" y="188" width="1195" height="673">
<path d="M1243.19 860.712H123.459C102.847 860.712 86.135 843.994 86.135 823.373V225.954C86.135 205.334 102.847 188.615 123.459 188.615H1243.19C1263.8 188.615 1280.51 205.334 1280.51 225.954V823.373C1280.51 843.994 1263.8 860.712 1243.19 860.712Z" fill="white"/>
</mask>
<g mask="url(#mask0_5_1287)">
<mask id="mask1_5_1287" style="mask-type:luminance" maskUnits="userSpaceOnUse" x="-92" y="175" width="1551" height="690">
<path d="M1458.54 864.689H-91.8923V175.342H1458.54V864.689Z" fill="white"/>
</mask>
<g mask="url(#mask1_5_1287)">
<g style="mix-blend-mode:multiply" opacity="0.3">
<path d="M775.971 284.875C780.73 282.635 787.728 282.448 792.673 282.168C798.645 281.888 804.524 281.608 810.402 280.301C817.027 278.901 822.253 279.835 828.505 282.168C833.17 284.035 837.462 287.116 842.035 289.263C844.181 290.29 846.234 291.876 847.913 293.65C850.246 295.984 850.339 297.384 851.366 300.371C852.112 302.518 853.139 303.451 853.139 305.972C853.139 307.652 852.579 309.612 851.926 311.293C850.899 314.373 848.846 316.893 847.167 319.6C845.767 321.747 845.114 324.268 843.714 326.508C840.355 331.829 836.996 335.469 831.117 337.896C824.772 340.51 817.494 341.35 810.682 342.47C806.017 343.217 801.258 343.404 796.499 343.964C792.86 344.431 790.061 344.711 786.608 343.404C781.29 341.35 775.038 340.23 769.999 337.336C767.946 336.216 765.8 335.563 764.307 333.789C763.001 332.202 761.788 328.655 761.228 326.695C760.388 323.988 760.761 321.281 760.388 318.48C759.828 315.213 758.055 312.319 756.935 309.146C755.722 305.412 751.617 299.251 754.416 295.144C756.935 291.503 765.24 289.729 768.879 288.796C770.092 288.796 772.612 286.462 775.971 284.875Z" fill="#0B132E"/>
</g>
<path style="mix-blend-mode:multiply" opacity="0.3" d="M735.941 317.08C734.012 318.698 731.835 319.631 729.409 319.88C728.196 316.52 722.411 315.773 722.131 311.572C724.837 309.892 728.476 304.851 732.115 308.025C732.675 308.492 732.768 309.985 733.235 310.546C733.888 311.386 735.007 311.759 735.381 312.692C736.034 314.839 734.354 319.6 733.981 321.747L735.941 317.08Z" fill="url(#paint0_linear_5_1287)"/>
<g opacity="0.5">
<path opacity="0.5" d="M568.821 343.684C565.182 344.057 563.782 345.551 560.89 347.325C556.784 349.752 552.865 350.498 547.92 350.218C545.774 350.032 543.721 349.658 541.668 349.098C536.629 347.791 533.457 348.165 529.071 348.911C525.712 349.565 522.819 349.098 519.553 350.218C517.78 350.872 516.287 351.245 514.328 351.338C508.729 351.432 506.023 347.511 500.798 347.044C499.025 346.858 496.692 346.764 494.826 347.044C492.213 347.325 491.933 348.258 489.974 349.938C483.162 355.726 476.257 348.631 469.725 346.018C464.5 343.871 458.808 342.471 453.396 340.697C449.29 339.297 445.091 339.67 440.706 339.67C432.588 339.67 425.963 340.51 418.405 343.404C412.339 345.738 406.461 346.298 400.489 349.378C389.012 355.352 379.214 365.62 366.431 369.261C353.274 372.995 339.277 373.742 326.68 367.861C317.629 363.66 310.351 358.993 299.527 359.646C297.474 359.833 295.608 360.486 293.648 361.047C290.476 361.887 287.677 361.98 284.224 361.887C280.025 361.7 276.199 359.46 272.654 357.593C269.201 355.726 265.749 354.046 262.203 352.365C254.645 348.818 246.433 344.991 238.035 343.591C231.224 342.47 225.532 341.444 218.627 342.564C213.961 343.311 209.762 344.617 205.377 346.018C191.847 350.312 178.13 353.299 165.533 359.646C152.19 366.461 138.846 372.528 127.556 382.05C118.504 389.704 114.772 399.692 115.705 410.8C116.265 416.775 121.677 422.935 125.409 427.696C129.328 432.83 133.434 437.871 138.473 442.165C143.138 446.085 149.11 450.379 154.709 453.18C158.908 455.327 162.36 458.034 166.466 460.181C176.45 465.688 188.674 466.248 199.218 470.262C206.216 472.969 213.868 474.463 220.68 477.637C224.785 479.597 229.264 480.064 233.183 482.491C236.356 484.451 239.248 486.505 242.048 488.932C245.5 491.919 249.886 493.972 253.805 496.493C257.444 498.826 261.27 500.88 265.469 502.467C271.72 504.801 277.692 507.321 284.224 509.281C289.356 510.868 294.581 511.708 299.807 512.828C312.217 515.535 324.907 516.842 337.691 517.682C341.517 517.962 345.342 518.616 349.168 518.803C352.154 518.896 355.14 518.616 358.126 518.989C361.952 519.363 365.031 520.016 368.857 519.549C371.656 519.269 374.082 518.803 376.881 518.709C385.839 518.429 394.61 518.616 403.382 519.829C422.79 522.443 440.146 531.871 458.528 537.472C465.34 539.526 471.872 542.046 478.31 544.753C481.109 545.966 484.002 546.62 486.708 547.833C489.134 548.86 491.187 550.354 493.706 551.194C497.625 552.501 501.731 553.621 505.557 555.021C510.129 556.795 514.794 557.261 519.367 558.755C529.631 561.929 540.641 564.822 551.372 566.409C560.143 567.716 568.541 570.703 577.219 572.197C593.455 574.997 609.878 576.584 626.114 579.011C636.192 580.598 646.176 581.998 656.16 584.332C663.625 586.012 671.463 586.572 679.021 588.253C687.326 590.026 695.164 591.613 703.655 592.546C713.173 593.667 722.69 593.48 732.395 593.48C738.087 593.573 743.499 592.546 749.191 592.36C752.363 592.266 755.536 592.827 758.615 592.266C760.295 591.893 761.508 591.426 763.281 591.333C768.413 591.053 773.545 590.773 778.583 590.026C785.675 588.999 792.673 588.626 799.672 587.412C801.538 587.132 803.497 587.319 805.364 586.946C807.51 586.572 809.469 585.545 811.615 585.079C821.506 582.652 832.05 581.625 842.128 580.038C854.258 578.171 866.295 575.837 878.426 573.69C888.783 572.01 898.581 571.45 909.125 571.357C916.683 571.357 924.241 572.29 931.706 573.784C940.197 575.371 949.062 573.317 957.46 574.811C963.338 575.837 969.124 575.651 975.096 575.651C982.654 575.651 991.332 574.531 998.703 575.837C1005.98 577.144 1013.63 576.678 1021 576.678C1029.22 576.678 1037.43 574.624 1045.73 575.651C1057.68 577.331 1070.27 576.771 1082.5 576.678C1089.03 576.584 1095.47 574.624 1102 574.531C1107.5 574.437 1112.64 573.037 1118.05 571.917C1129.06 569.583 1140.35 569.396 1151.36 567.156C1155.56 566.316 1159.57 565.663 1163.49 563.982C1168.16 562.022 1172.82 561.835 1177.02 559.035C1182.62 555.394 1188.12 552.594 1193.26 548.487C1198.29 544.286 1204.73 540.272 1210.61 537.192C1213.97 535.418 1217.61 534.205 1220.88 532.431C1224.33 530.564 1227.31 527.951 1230.67 525.99C1234.59 523.75 1238.7 519.923 1238.88 515.349C1238.98 509.281 1235.9 503.214 1234.41 497.333C1232.35 489.678 1227.87 482.491 1221.44 476.89C1214.81 471.009 1208.56 464.008 1201.09 458.874C1193.82 453.927 1186.44 450.193 1177.95 447.112C1173.19 445.432 1168.25 444.125 1163.58 442.352C1159.29 440.765 1155.09 438.711 1150.52 437.871C1144.73 436.844 1139.42 434.884 1133.54 433.95C1128.87 433.204 1124.67 431.43 1120.1 430.497C1112.08 428.723 1104.98 426.483 1097.52 423.402C1089.21 419.948 1080.54 418.175 1071.95 415.374C1063.18 412.481 1054.41 409.774 1045.36 407.813C1037.33 406.04 1029.31 403.333 1021.1 402.866C1015.69 402.492 1010.83 402.866 1005.51 402.026C1001.04 401.372 996.557 401.932 992.078 401.839C986.386 401.746 981.161 400.719 975.376 400.812C971.177 400.812 967.537 400.252 963.338 399.785C954.101 398.759 944.676 398.385 935.345 397.638C928.814 397.078 922.562 395.118 916.31 393.438C911.924 392.224 908.658 389.517 904.553 387.837C902.873 387.09 901.007 387.09 899.234 386.624C897.928 386.25 896.808 385.41 895.408 385.223C892.702 384.663 889.716 384.383 886.917 384.01C882.065 383.356 876.746 383.916 871.894 383.916C880.354 383.916 888.783 383.916 897.181 383.916C902.5 383.916 907.725 383.916 912.951 383.916C919.856 383.916 926.481 385.037 933.292 385.037C941.597 384.943 949.808 384.757 958.113 384.943C970.057 385.223 982.094 387.65 994.038 388.864C1006.26 390.264 1018.3 393.251 1030.43 395.491C1044.89 398.199 1059.17 400.626 1073.72 402.866C1090.33 405.48 1106.94 407.627 1123.46 411.08C1137.92 414.067 1152.57 416.588 1167.04 419.948C1188.12 424.896 1211.54 433.95 1227.03 448.139C1234.5 454.953 1241.4 461.581 1247.66 469.235C1250.27 472.596 1254.28 474.369 1257.92 476.89C1261.65 479.317 1265.1 481.744 1268.28 484.824C1270.61 487.065 1273.88 490.145 1274.25 493.412C1274.44 495.186 1272.85 498.266 1272.1 499.946C1269.68 506.107 1264.64 511.988 1259.79 516.842C1251.67 524.87 1242.62 531.031 1233.19 537.659C1228.43 540.926 1225.17 544.38 1219.94 547.18C1213.88 550.354 1207.72 553.621 1201 555.675C1191.67 558.382 1181.78 559.035 1172.54 562.115C1163.49 565.196 1154.35 568.556 1144.73 570.143C1141.1 570.703 1137.46 571.637 1133.91 572.664C1125.98 574.904 1118.51 575.184 1110.49 575.837C1098.83 576.864 1087.16 578.171 1075.5 579.011C1047.04 581.065 1018.95 582.932 990.492 582.932C982.654 583.025 974.909 583.212 967.071 583.025C960.166 582.932 953.261 581.905 946.263 581.905C936.185 581.812 926.201 580.785 916.123 580.785C903.246 580.785 889.996 581.345 877.493 584.239C863.683 587.412 850.153 591.52 836.343 594.32C807.976 600.108 777.93 599.828 749.097 599.828C733.048 599.828 716.999 600.108 700.949 599.081C685.18 598.054 669.13 597.774 653.454 595.627C626.767 591.986 599.427 591.52 572.834 586.572C545.214 581.438 518.527 572.29 491.933 564.076C484.935 561.929 478.497 558.942 471.685 556.608C464.873 554.274 457.875 552.501 450.97 550.354C440.333 546.9 429.789 543.446 419.058 540.272C403.195 535.605 386.212 531.871 369.603 530.564C356.446 529.444 343.103 529.817 330.04 528.324C316.603 526.737 301.86 525.43 288.89 521.79C278.439 518.896 268.268 515.535 258.19 511.615C249.606 508.254 241.581 503.4 233.276 499.293C225.345 495.279 216.947 491.172 208.549 487.905C202.017 485.384 195.579 482.304 188.861 480.25C179.156 477.357 169.359 475.21 159.654 472.223C151.91 469.889 144.072 467.742 136.14 466.155C131.008 465.128 124.85 463.355 120.557 460.648C111.599 455.047 105.721 445.712 98.1627 438.711C89.1116 430.403 87.7119 419.948 87.6186 408.933C87.5253 403.706 88.2718 397.545 89.9514 392.598C91.3511 388.304 92.1908 384.57 94.8969 380.836C99.0025 375.142 104.135 369.728 109.827 365.247C117.105 359.646 124.57 353.485 132.874 349.098C137.167 346.764 142.019 345.831 146.498 343.964C149.763 342.471 152.656 341.07 156.202 339.857C166 336.59 176.264 334.349 186.248 331.456C196.699 328.468 207.803 326.882 218.44 324.361C225.812 322.588 233.183 321.187 240.648 320.254C257.817 318.107 275.266 316.613 292.622 315.587C303.539 314.933 314.643 315.307 325.467 316.24C333.119 316.987 340.77 315.96 348.422 317.454C351.345 318.014 354.331 318.387 357.379 318.574C360.739 318.76 361.392 319.694 364.098 320.721C366.151 321.561 367.924 321.561 369.883 322.028C372.402 322.588 374.549 323.988 376.788 324.921C382.853 327.348 387.239 328.095 393.677 328.095C396.943 328.095 400.209 327.628 403.382 326.695C408.327 325.201 412.433 323.801 417.472 323.801C425.31 323.801 432.961 325.668 440.706 326.788C462.261 329.869 484.095 331.176 505.743 333.603C515.261 334.629 524.592 336.683 534.11 337.803C538.869 338.363 543.254 339.95 547.92 340.604C553.518 341.35 561.823 340.79 566.675 340.697C569.008 343.124 568.915 343.404 568.821 343.684Z" fill="url(#paint1_radial_5_1287)"/>
<path opacity="0.5" d="M618.462 634.085C610.998 632.125 604.746 629.978 597.281 629.791C593.082 629.698 590.096 628.671 586.177 626.991C574.607 621.95 562.849 618.59 551.092 614.109C543.068 611.028 535.136 608.601 528.138 602.627C521.606 597.12 513.395 593.666 505.837 590.492C493.986 585.638 482.602 579.197 470.752 574.063C459.088 569.022 446.771 570.143 434.641 568.089C422.417 566.129 410.473 561.928 398.156 561.181C392.371 560.901 386.492 561.275 380.707 561.275C374.922 561.275 370.163 560.154 364.564 558.754C354.487 556.327 344.596 553.247 334.798 549.513C330.506 547.833 326.214 545.966 321.828 544.472C314.363 541.952 307.085 542.232 299.527 541.018C292.902 539.898 286.743 540.178 280.118 539.992C271.72 539.712 262.949 536.911 254.738 535.044C246.9 533.271 239.342 531.59 231.69 528.51C228.238 527.11 225.158 524.963 221.893 523.096C218.44 521.136 214.894 520.202 211.442 518.522C198.938 512.174 186.435 506.387 173.558 501.346C167.026 498.732 160.121 497.052 153.589 494.252C143.045 489.864 132.688 484.077 121.77 481.276C114.305 479.409 106.747 477.543 99.2824 475.956C93.3106 474.742 87.6186 472.595 81.6467 471.102C75.3949 469.515 69.1431 465.781 63.2646 462.794C57.1061 459.807 50.6676 455.886 44.3225 453.926C33.4052 450.472 25.0072 439.644 17.2624 430.309C10.4508 422.188 3.82571 412.573 1.39963 401.185C-0.653199 391.383 -1.86624 380.929 0.186596 370.847C2.42605 359.739 6.99827 345.084 14.1832 337.336C20.2484 330.801 27.1534 326.227 33.4985 320.16C39.0971 314.839 44.6024 310.545 50.5743 305.971C62.8913 296.263 75.115 286.742 87.7119 277.5C93.6838 273.113 100.309 269.659 106.561 265.832C110.386 263.498 114.399 262.658 118.224 260.231C124.103 256.497 130.448 253.977 136.513 250.523C141.365 247.816 145.564 244.269 150.23 241.375C158.721 236.054 165.533 227.467 173.464 221.306C178.69 217.292 184.008 213.931 189.98 211.691C199.685 207.957 209.576 203.85 219.466 200.956C227.678 198.622 235.889 194.795 243.634 190.595C249.886 187.141 256.511 185.087 262.763 181.353C270.134 176.966 277.319 171.552 285.344 168.751C293.368 165.951 302.42 165.111 310.724 164.551C327.52 163.431 344.223 159.603 360.925 157.737C381.92 155.496 402.448 152.322 423.163 147.468C434.547 144.855 445.838 141.774 457.222 138.88C464.873 136.92 472.991 135.707 480.549 133.28C488.388 130.759 495.946 128.146 504.064 126.372C511.902 124.785 519.74 122.451 527.578 120.398C540.735 116.851 554.078 114.33 567.328 111.437C573.58 110.13 580.019 109.943 586.457 110.316C590.749 110.596 594.762 112.65 598.774 114.33C601.947 115.544 604.932 116.757 607.918 118.531C609.038 119.278 610.438 119.651 611.464 120.398C612.957 121.331 612.771 121.985 613.704 123.292C616.41 126.652 622.568 127.959 626.767 128.986C629.287 129.639 631.899 129.732 634.419 130.479C638.058 131.599 641.697 132.533 645.523 133.186C652.148 134.306 658.119 134.68 664.931 134.587C675.009 134.587 685.086 135.427 695.257 136.36C701.042 136.92 706.828 138.134 712.613 138.6C721.384 139.441 730.155 138.974 738.926 139.907C750.124 141.214 761.787 141.588 772.705 144.575C780.636 146.722 788.288 149.802 796.312 151.389C797.899 151.762 805.27 152.322 805.55 154.283C802.191 155.776 798.832 155.87 795.286 155.963C786.235 156.243 776.904 157.27 767.853 158.11C756.562 159.23 745.085 159.603 733.794 161.657C721.664 163.897 709.814 166.698 697.497 167.818C687.232 168.845 677.061 169.405 666.797 168.565C657.56 167.725 649.442 168.471 640.204 169.592C630.126 170.805 620.235 172.579 610.251 174.539C597.094 177.153 584.497 181.727 571.527 185.18C552.305 190.315 534.11 188.914 514.888 184.62C507.889 183.127 500.798 181.26 493.893 178.833C488.294 176.873 482.416 172.765 476.724 171.739C466.366 169.965 456.849 177.059 446.678 177.526C440.799 177.806 435.014 177.153 429.135 177.713C425.496 178.086 421.391 178.646 417.938 180.233C415.605 181.353 413.646 183.314 411.313 184.62C402.075 189.941 391.624 186.954 382.107 184.9C376.881 183.78 371.843 182.287 366.617 181.54C360.459 180.513 355.327 181.54 349.168 181.633C341.517 181.727 333.865 183.967 326.214 184.9C316.976 186.021 307.738 188.448 298.5 189.848C292.529 190.781 287.583 192.275 282.358 196.009C274.8 201.516 267.708 207.49 260.336 213.185C245.687 224.479 228.144 228.12 212.188 235.961C208.642 237.735 205.283 239.695 201.737 241.749C196.605 244.736 191.1 246.416 185.688 248.75C175.237 253.23 164.973 257.244 154.896 263.125C139.779 271.9 124.756 280.861 109.733 289.822C93.7771 299.25 79.9671 312.412 64.1043 321.934C51.1342 329.681 37.8841 338.176 26.4069 348.537C21.648 352.925 18.4755 362.353 16.7026 368.98C14.2765 377.755 14.4631 386.903 14.6497 396.051C14.743 402.212 18.7554 406.226 19.4086 412.2C19.5952 414.16 19.0353 416.214 19.5952 418.174C20.8082 422.748 25.9403 427.135 28.8329 429.842C37.4175 437.777 47.775 444.031 57.0127 450.752C61.585 454.019 66.3438 456.073 71.1026 458.78C77.5411 462.514 83.5129 467.088 90.6045 469.141C100.962 472.222 111.413 473.435 121.677 477.169C127.276 479.129 132.781 480.063 138.286 482.49C145.938 485.85 153.869 487.531 161.894 489.304C175.051 492.385 186.621 500.226 199.405 504.613C200.711 505.08 202.017 505.827 203.137 506.573C205.097 507.88 206.776 510.027 208.829 511.427C211.442 513.108 214.334 514.135 217.134 515.628C224.785 519.829 232.717 521.882 241.021 522.816C243.727 523.096 244.567 523.749 247.086 524.963C251.379 527.016 257.63 528.043 262.203 528.51C274.146 529.723 285.81 530.844 297.754 531.217C303.073 531.404 308.765 532.057 313.617 534.858C318.656 537.658 323.508 540.832 328.826 542.792C334.985 545.126 341.33 545.499 347.489 548.486C353.927 551.567 360.272 553.433 367.084 555.02C376.415 557.167 385.186 558.101 394.61 558.381C401.609 558.568 409.167 559.034 416.072 560.154C427.549 561.928 439.12 563.328 450.597 565.195C456.849 566.222 462.727 566.595 468.886 568.462C475.697 570.423 482.509 570.796 488.947 574.25C500.891 580.691 513.955 583.398 525.898 589.932C531.497 593.013 536.629 596.84 541.948 600.667C548.013 605.054 553.892 609.628 560.797 612.335C568.168 615.322 575.446 618.123 582.351 622.603C592.895 629.604 603.813 639.313 616.13 641.273C618.649 641.646 623.221 641.459 625.367 639.779C626.767 638.752 626.767 639.873 626.767 637.819C626.767 636.419 624.154 634.458 618.462 634.085Z" fill="url(#paint2_radial_5_1287)"/>
<path opacity="0.5" d="M185.221 148.869C164.6 153.256 144.165 158.204 123.45 162.124C112.066 164.271 99.5624 166.605 89.7648 172.953C81.74 178.18 74.7418 184.621 67.4635 190.688C62.4248 194.796 57.8526 199.183 52.6272 203.104C46.9352 207.398 41.1499 211.411 35.6446 216.079C28.833 221.866 22.7678 228.307 16.6093 234.842C8.67787 243.243 0.186614 251.177 -8.30465 259.018C-12.6902 263.126 -20.1551 266.206 -25.7537 268.54C-33.5918 271.807 -41.7098 274.421 -47.9617 280.581C-56.7328 289.169 -58.5991 302.891 -61.1184 314.186C-63.4512 324.828 -64.291 335.749 -64.291 346.671C-64.291 351.712 -65.1308 357.499 -64.1044 362.447C-62.7047 368.981 -59.5322 374.955 -55.2399 379.996C-49.9212 386.25 -42.4563 390.451 -37.1376 396.705C-32.1922 402.399 -30.2326 408.933 -27.2467 415.748C-25.6604 419.388 -24.4474 422.842 -22.3012 426.296C-20.6216 428.909 -18.7554 431.336 -17.1692 434.044C-13.6234 440.111 -12.5969 446.739 -8.11803 452.433C-6.43844 454.58 -4.85217 456.914 -3.07927 459.154C-1.5863 461.021 0.186605 461.861 2.05282 463.354C4.94544 465.595 7.55815 468.022 10.5441 470.169C16.516 474.556 23.141 478.757 29.8594 482.024C33.5918 483.797 37.5108 485.851 40.4035 488.651C42.2697 490.332 44.6024 491.172 46.3753 492.852C47.6817 494.066 48.5215 495.932 49.8278 497.239C51.4141 498.826 52.9071 500.32 54.4934 501.813C58.0392 505.174 60.6519 508.628 64.8508 511.055C66.997 512.268 68.8632 513.202 71.1026 514.042C74.2752 515.255 77.0745 515.349 80.4337 515.909C89.1116 517.309 97.6962 516.095 106.467 516.749C112.253 517.122 118.224 518.989 124.103 519.082C129.422 519.269 133.901 522.35 138.66 523.75C140.059 524.03 140.712 523.936 141.925 524.497C142.952 525.057 144.072 525.71 145.098 525.99C147.804 526.737 150.23 527.484 152.749 528.417C154.989 529.164 156.948 531.124 159.281 531.964C160.867 532.524 162.64 532.898 164.133 533.738C165.253 534.298 165.906 535.325 167.213 535.885C161.427 532.898 155.642 530.657 149.39 528.791C143.698 527.11 136.14 528.23 130.168 528.23C122.703 528.324 115.892 525.71 108.613 524.683C98.0694 523.283 87.5253 523.656 76.7946 523.656C55.5198 523.75 35.458 514.135 19.0354 501.44C12.7835 496.493 8.21131 490.332 2.51937 484.824C-0.186637 482.21 -3.4525 479.503 -6.71837 477.636C-11.1973 475.023 -16.6093 472.782 -20.8083 469.609C-24.8206 466.622 -31.8189 461.394 -36.0179 458.407C-40.3102 455.327 -45.349 452.806 -49.9212 450.099C-53.2804 448.139 -56.0797 445.899 -58.4124 442.911C-60.9318 439.831 -62.0515 436.284 -64.291 433.11C-66.3438 430.31 -67.8368 427.416 -70.1696 424.802C-71.4759 423.402 -72.5023 421.908 -73.7154 420.508C-75.115 418.921 -76.7013 417.988 -78.1943 416.494C-80.2471 414.441 -81.7401 412.014 -83.4197 409.867C-84.4461 408.467 -85.5658 408.373 -86.7788 407.346C-87.9919 406.133 -88.925 404.359 -89.9514 402.959C-93.2173 398.198 -96.9497 393.718 -98.4427 388.024C-100.402 380.743 -101.709 372.808 -105.534 366.274C-110.293 357.966 -111.133 348.351 -114.865 339.763C-119.904 328.188 -121.49 314.56 -122.89 302.051C-123.637 296.264 -122.89 291.316 -124.756 285.715C-126.343 281.235 -128.115 277.314 -131.661 273.954C-135.86 269.753 -140.526 268.166 -143.232 262.752C-145.565 257.992 -146.404 253.978 -144.165 248.937C-142.672 245.576 -137.726 242.496 -134.834 240.629C-127.462 235.868 -119.438 231.854 -111.133 229.054C-101.988 225.974 -92.7507 223.827 -83.4197 221.306C-75.6749 219.253 -67.7435 217.479 -60.1853 215.052C-45.9088 210.571 -36.6711 200.583 -25.1939 191.995C-19.5952 187.888 -16.6093 182.941 -12.5036 177.433C-10.9173 175.286 -10.0775 173.046 -8.7712 170.712C-6.34513 166.418 -2.70601 162.965 0.093303 158.951C4.4789 152.696 10.2642 149.243 16.7959 145.509C24.4474 141.121 31.7256 135.614 40.1235 132.813C47.3084 130.293 54.8666 128.613 61.8649 125.719C66.9037 123.666 71.6625 121.238 76.9812 120.025C83.4196 118.531 90.3246 118.811 96.8564 118.998C111.973 119.372 125.876 121.425 140.806 117.691C153.683 114.424 165.253 109.757 177.01 103.783C182.702 100.889 188.021 97.5284 193.899 94.8214C198.845 92.4877 204.443 88.2871 210.042 87.8203C215.921 87.3536 220.493 88.7538 223.572 93.9812C225.905 97.9951 225.905 103.876 224.599 108.17C223.572 111.344 221.519 114.144 219.187 116.478C214.801 120.772 210.695 124.879 206.683 129.546C204.443 132.067 201.924 133.654 199.591 135.987C197.165 138.228 195.299 141.401 193.433 144.015C191.287 147.096 189.141 150.829 188.487 154.47C188.207 154.563 185.501 148.869 185.221 148.869Z" fill="url(#paint3_radial_5_1287)"/>
<path opacity="0.5" d="M1200.07 145.789C1201.19 143.175 1203.05 140.841 1204.64 138.507C1208.93 132.253 1212.57 125.439 1217.61 119.931C1222.93 114.144 1227.97 107.983 1233.47 102.382C1243.92 91.8341 1257.27 85.1131 1269.4 77.9254C1281.53 70.7377 1294.4 64.5768 1307.09 58.7893C1315.31 55.0555 1323.61 51.2282 1332.2 48.7079C1353.75 42.547 1376.14 39.8399 1398.35 40.4C1417.67 40.7734 1436.14 42.827 1454.06 52.0684C1467.22 58.7893 1478.23 71.5778 1485.78 86.1399C1497.08 108.263 1495.77 135.707 1494.46 160.537C1493.81 173.232 1493.9 185.928 1493.34 198.623C1492.88 210.571 1491.85 222.706 1491.85 234.655C1491.76 246.51 1491.01 258.271 1490.54 270.126C1490.26 278.994 1489.52 288.142 1487.84 296.824C1485.5 308.119 1484.01 325.668 1473.56 330.895C1463.02 336.123 1461.24 318.48 1460.12 310.079C1458.63 299.064 1453.97 288.422 1449.49 278.434C1445.57 269.566 1442.95 261.912 1436.05 255.751C1428.96 249.497 1421.77 243.523 1413.66 239.509C1403.11 234.281 1391.82 231.761 1381.74 225.227C1377.45 222.52 1374.56 218.879 1370.73 215.425C1366.63 211.691 1362.05 208.704 1357.58 205.81C1347.03 198.903 1336.11 193.395 1324.82 188.541C1312.04 182.941 1298.98 181.447 1286.01 177.433C1270.24 172.579 1254.37 168.285 1238.6 163.524C1230.11 160.911 1221.44 159.884 1213.04 157.364C1206.13 155.403 1200.07 153.35 1192.88 151.763C1199.04 151.109 1199.04 148.122 1200.07 145.789Z" fill="url(#paint4_radial_5_1287)"/>
</g>
<g style="mix-blend-mode:soft-light" opacity="0.6">
<path d="M1277.33 620.364L1268.56 660.41L1234.97 660.97L1259.13 624.471L1226.85 660.97L1213.04 660.876L1240.56 628.485L1265.38 615.51L1277.33 620.364Z" fill="#13223F"/>
</g>
<g style="mix-blend-mode:soft-light" opacity="0.6">
<path d="M1215.56 576.023L1237.76 606.828L1236.65 624.47L1209.21 660.876L1159.94 660.969L1187.75 607.108L1169.18 627.177L1166.94 622.043L1209.21 576.023H1215.56Z" fill="#13223F"/>
</g>
<g style="mix-blend-mode:soft-light" opacity="0.6">
<path d="M1150.05 622.044L1156.3 660.97L1148.09 661.436L1144.73 652.102L1141.56 615.51L1150.05 622.044Z" fill="#ECDEDD"/>
</g>
<g style="mix-blend-mode:soft-light" opacity="0.6">
<path d="M991.052 651.634L998.516 662.743L966.698 663.023L970.617 641.366L980.881 643.046L991.052 651.634Z" fill="#13223F"/>
</g>
<g style="mix-blend-mode:soft-light" opacity="0.6">
<path d="M957.46 586.479L970.803 615.51L962.405 663.303H929.84L941.597 619.617L930.213 648.741L928.44 643.234L954.754 586.105L957.46 586.479Z" fill="#13223F"/>
</g>
<g style="mix-blend-mode:soft-light" opacity="0.6">
<path d="M769.906 518.615L816.374 585.452L836.903 654.528L785.302 664.796L792.3 586.758L776.811 664.796H672.023L716.625 576.21L666.238 665.636L606.146 667.597L656.72 555.954L647.482 560.155L591.496 595.906L651.215 543.072L769.906 518.615Z" fill="#ECDEDD"/>
</g>
<path d="M848.193 640.153L852.765 658.635L845.674 656.768L840.448 638.192L848.193 640.153Z" fill="#ECDEDD"/>
<g style="mix-blend-mode:soft-light" opacity="0.6">
<path d="M420.551 633.245L501.264 662.93L363.071 658.729L298.221 622.977L338.624 654.435L243.914 593.947L253.058 591.52L420.551 633.245Z" fill="#13223F"/>
</g>
<g style="mix-blend-mode:soft-light" opacity="0.6">
<path d="M194.179 576.21L241.208 599.92L338.624 667.877H225.065L197.165 635.392L208.736 668.997L192.313 669.743L149.297 601.134L194.179 576.21Z" fill="#13223F"/>
</g>
<g style="mix-blend-mode:soft-light" opacity="0.6">
<path d="M529.817 662.93L507.143 659.476L492.12 631.752L503.597 627.738L529.817 662.93Z" fill="#13223F"/>
</g>
<g style="mix-blend-mode:soft-light" opacity="0.6">
<path d="M549.879 650.794L526.645 652.568L516.941 635.485L536.349 630.071L549.879 650.794Z" fill="#13223F"/>
</g>
<path d="M1243.27 660.969L1260.35 643.047H1283.3L1285.35 657.142L1292.82 656.769L1297.76 653.221L1314.19 652.755L1322.12 658.449L1332.66 624.564L1339.75 620.363L1335.74 655.648L1339.75 655.742L1346.75 652.475L1366.91 660.689L1243.27 660.969Z" fill="#0B132A"/>
<g style="mix-blend-mode:soft-light" opacity="0.3">
<path d="M949.995 762.438L1057.21 763.464L1061.41 762.438L830.744 757.957L892.702 754.316L1198.57 757.957L1182.71 763.744L1092.2 761.878L1087.35 764.305L1209.68 767.852L1199.23 771.212L939.824 767.852L949.995 762.438Z" fill="#14203A"/>
</g>
<g style="mix-blend-mode:multiply" opacity="0.5">
<path d="M1236.74 773.918L1223.3 779.986L1010.46 779.706L1027.72 769.064L1236.74 773.918Z" fill="#0B132A"/>
</g>
<g style="mix-blend-mode:soft-light" opacity="0.3">
<path d="M587.67 772.612L816.374 771.212L811.895 773.919H670.436L649.628 778.773L514.701 779.333L587.67 772.612Z" fill="#14203A"/>
</g>
<g style="mix-blend-mode:multiply" opacity="0.5">
<path d="M693.764 779.987L702.069 775.319L952.234 777.653L933.386 779.987H693.764Z" fill="#0B132A"/>
</g>
<g style="mix-blend-mode:multiply" opacity="0.5">
<path d="M735.474 766.731L769.532 761.597L936.465 762.81L912.671 768.784L735.474 766.731Z" fill="#0B132A"/>
</g>
<g style="mix-blend-mode:soft-light" opacity="0.5">
<path d="M949.995 762.438L1412.54 767.852L1331.64 773.919L939.824 767.852L949.995 762.438Z" fill="#14203A"/>
</g>
<path d="M1261.56 743.768L1459.28 749.462V750.769L1254.37 743.954L1261.56 743.768Z" fill="#4D254A"/>
<path d="M1459.28 775.039L1188.4 774.106L1185.04 773.266L1459.1 774.666L1459.28 775.039Z" fill="#4D254A"/>
<path d="M1459.28 687.293L836.903 721.178L1459.28 684.586V687.293Z" fill="#4D254A"/>
<g style="mix-blend-mode:soft-light" opacity="0.2">
<path d="M1459.28 763.091L1185.04 770.372L1173.85 761.784L1390.61 754.317L1381.74 753.29L1129.71 756.65L1099.29 748.156L1254.37 743.955L1459.28 750.769V763.091Z" fill="#13223F"/>
</g>
<path opacity="0.4" d="M848.846 791.375L845.674 799.682H811.335L817.587 789.601L903.713 784.28L900.074 788.668L848.846 791.375Z" fill="#1D0C27"/>
<path opacity="0.4" d="M757.869 801.083L756.002 792.962L771.492 792.028V800.896L757.869 801.083Z" fill="#1D0C27"/>
<path opacity="0.4" d="M1099.29 748.156L1096.12 759.171L1085.3 757.49H1056.74L1054.78 749.182L1150.89 743.955V746.755L1099.29 748.156Z" fill="#1D0C27"/>
<path opacity="0.4" d="M1142.21 765.985L1144.17 760.664L1174.87 769.159V774.013L1162.09 774.666V768.972L1142.21 765.985Z" fill="#1D0C27"/>
<path d="M940.851 594.693L922.842 611.309L931.893 648.274L934.972 650.608L935.998 655.742L904.18 643.233L886.264 617.843L891.303 566.596L914.537 562.955L940.851 594.693Z" fill="#48163A"/>
<path fill-rule="evenodd" clip-rule="evenodd" d="M1070.37 738.354L988.906 743.581L951.861 745.915L884.958 750.115L805.457 753.663L825.052 705.029L856.311 676.465L867.882 677.772L888.69 708.389L877.959 586.292L870.214 532.337L871.707 528.79L866.295 481.09L886.171 464.848L903.806 500.506L930.027 532.897L941.69 575.464L956.34 648.274L954.754 648.741L948.315 615.696L945.796 614.109L940.851 594.693L931.426 588.812L940.851 650.701L964.178 660.969L972.11 667.317L980.881 700.548L1031.36 730.513L1043.87 727.152L1052.17 729.579L1070.37 738.354ZM935.905 655.742L924.708 598.054H922.748L916.496 575.277L891.209 597.773L893.915 621.95L900.447 626.711L904.179 643.14L935.905 655.742Z" fill="url(#paint5_linear_5_1287)"/>
<g style="mix-blend-mode:soft-light">
<path d="M1027.26 732.66L985.64 721.178L988.906 743.581L989.185 745.075L957.366 745.821L937.865 658.262L927.6 601.227L886.171 464.848L903.806 500.506L930.027 532.897L941.69 575.464L956.34 648.274L954.754 648.741L948.315 615.696L945.796 614.109L940.851 594.693L931.426 588.812L940.851 650.701L964.178 660.969L972.11 667.317L980.881 700.548L1031.36 730.513L1027.26 732.66Z" fill="#ECABA4"/>
</g>
<path d="M940.85 594.693L945.423 600.388L954.754 648.741H953.447L947.196 616.817L943.65 615.51L937.305 598.054L940.85 594.693Z" fill="#48163A"/>
<g style="mix-blend-mode:soft-light">
<path d="M934.972 650.608L935.998 655.742L904.179 643.233L931.893 648.274L934.972 650.608Z" fill="#ECABA4"/>
</g>
<g style="mix-blend-mode:soft-light" opacity="0.5">
<path d="M900.447 626.711L927.227 629.231L931.893 648.274L904.179 643.233L900.447 626.711Z" fill="#ECABA4"/>
</g>
<g style="mix-blend-mode:soft-light">
<path d="M867.882 677.772L888.69 708.389L870.868 748.155H866.109L856.311 705.029V676.465L867.882 677.772Z" fill="#ECABA4"/>
</g>
<path d="M934.599 550.167L908.565 538.872L908.752 538.592L934.785 549.793L934.599 550.167Z" fill="#471737"/>
<path d="M877.679 583.958L877.399 583.585L913.511 555.021L913.697 555.301L877.679 583.958Z" fill="#471737"/>
<path d="M875.347 567.809L875.16 567.529L909.872 542.886L910.058 543.166L875.347 567.809Z" fill="#471737"/>
<path d="M886.077 576.957L883.185 561.928L883.651 561.835L886.45 576.864L886.077 576.957Z" fill="#471737"/>
<path d="M871.894 528.977L871.614 528.603L898.114 504.146H898.208L909.965 507.694L909.871 508.067L898.208 504.613L871.894 528.977Z" fill="#471737"/>
<path d="M883.278 651.168L883.185 650.795L904.179 643.047L904.273 643.42L883.278 651.168Z" fill="#471737"/>
<path d="M898.301 551.193L891.023 510.774L891.489 510.681L898.674 551.1L898.301 551.193Z" fill="#471737"/>
<path d="M887.57 695.134L887.477 694.761L940.197 668.717L940.291 668.997L887.57 695.134Z" fill="#471737"/>
<path d="M888.783 708.483L888.597 708.203L941.597 675.064H941.69L975.469 679.638L975.376 680.012L941.69 675.531L888.783 708.483Z" fill="#471737"/>
<path d="M875.346 738.541L875.253 738.167L952.141 722.205V722.578L875.346 738.541Z" fill="#471737"/>
<path d="M919.949 748.249L913.697 730.42L914.07 730.326L920.322 748.155L919.949 748.249Z" fill="#471737"/>
<path d="M910.058 694.948L908.285 684.586L908.658 684.493L910.431 694.855L910.058 694.948Z" fill="#471737"/>
<path d="M916.776 690.654V680.386H917.15L917.243 690.654H916.776Z" fill="#471737"/>
<g style="mix-blend-mode:multiply" opacity="0.4">
<path d="M886.171 464.848L916.123 563.515L913.604 564.915L895.595 512.081L890.836 515.162L898.488 558.288L895.128 562.768L881.878 483.797L875.253 486.691L880.945 524.31L873.014 533.271L866.295 481.09L886.171 464.848Z" fill="#AE9AFF"/>
</g>
<g style="mix-blend-mode:multiply" opacity="0.2">
<path d="M911.924 646.221L935.998 655.742L926.201 605.335L927.6 601.228L939.358 664.983L957.367 745.822L945.983 746.288L934.692 666.85L928.814 663.77L934.692 709.416H924.148L911.924 646.221Z" fill="#AE9AFF"/>
</g>
<g style="mix-blend-mode:multiply" opacity="0.2">
<path d="M898.488 722.392L877.586 558.288L883.185 547.646L904.179 716.977L898.488 722.392Z" fill="#AE9AFF"/>
</g>
<g style="mix-blend-mode:soft-light" opacity="0.2">
<path d="M940.851 656.769L972.11 667.317L978.268 690.653L968.564 688.786L975.376 722.391L964.458 725.192L957.367 673.758L952.141 671.517L954.754 694.947L949.155 695.787L940.851 656.769Z" fill="#ECDEDD"/>
</g>
<g style="mix-blend-mode:soft-light" opacity="0.2">
<path d="M930.026 532.898L941.69 575.464L942.81 580.971L927.041 576.211L913.604 532.338L911.458 532.058L921.629 573.97H919.389L894.848 494.999L903.806 500.506L930.026 532.898Z" fill="#ECDEDD"/>
</g>
<path d="M981.627 714.738L990.025 722.392L1027.26 732.66L1029.78 742.088L989.185 745.075L985.64 721.178L980.881 715.111V700.549L981.627 714.738Z" fill="#69264D"/>
<path d="M910.245 725.192V716.044L911.924 724.632L910.245 725.192Z" fill="#A45754"/>
<path d="M911.924 715.39V710.63L913.884 709.416L913.697 714.457L911.924 715.39Z" fill="#A45754"/>
<path d="M896.528 583.771L895.595 578.17L896.528 576.21L898.488 582.091L896.528 583.771Z" fill="#A45754"/>
<path d="M899.234 534.671L900.54 540.178H898.488V534.671H899.234Z" fill="#A45754"/>
<path fill-rule="evenodd" clip-rule="evenodd" d="M485.682 646.221L478.03 700.735L484.469 712.217L486.801 742.181L490.907 745.168L507.33 766.078L468.886 797.816L346.462 805.47L356.446 768.692L366.431 766.078L415.885 577.611L419.804 574.997L418.498 575.837L436.414 507.787L434.734 504.8L441.826 494.812L448.264 493.412L450.97 479.69L449.29 473.716L480.27 341.91L501.638 333.976L521.793 358.059L495.386 549.98L498.558 555.954L496.786 577.611L510.036 604.401L503.597 627.738L488.854 646.221H485.682ZM442.012 517.309L438.653 511.521L426.336 555.861L424.843 557.074L420.551 574.437L430.628 567.623L442.012 517.309Z" fill="url(#paint6_linear_5_1287)"/>
<g style="mix-blend-mode:soft-light">
<path d="M521.793 358.059L495.386 549.98L498.558 555.954L496.786 577.611L492.96 593.853L474.484 616.91L475.604 637.726L485.682 646.221L474.484 712.217L416.445 754.316L405.341 780.36L396.197 782.507L392.371 771.772L417.658 655.742L477.097 651.821L428.855 652.755L444.345 579.198L463.474 569.956L479.43 477.916L477.097 471.102L501.638 333.976L521.793 358.059Z" fill="#ECABA4"/>
</g>
<g style="mix-blend-mode:soft-light">
<path d="M510.036 604.401L503.037 609.348L486.895 613.362L481.016 614.576L496.786 594.319L497.625 579.197L510.036 604.401Z" fill="#F4CECA"/>
</g>
<g style="mix-blend-mode:soft-light" opacity="0.9">
<path d="M488.854 646.221L481.016 637.726V619.057L503.037 609.349L510.036 604.401L503.597 627.738L488.854 646.221Z" fill="#ECABA4"/>
</g>
<g style="mix-blend-mode:soft-light" opacity="0.9">
<path d="M486.801 742.181L485.308 756.65L488.388 780.36L454.702 797.816L465.526 748.155L475.324 740.781L476.63 732.66L484.469 712.217L486.801 742.181Z" fill="#ECABA4"/>
</g>
<g style="mix-blend-mode:soft-light" opacity="0.9">
<path d="M507.33 766.078L502.384 773.079L488.947 780.08L486.895 757.396L490.907 745.168L507.33 766.078Z" fill="#ECABA4"/>
</g>
<g style="mix-blend-mode:soft-light">
<path d="M462.634 749.089L447.984 753.663L416.445 754.316L474.858 714.084L478.03 700.735L484.469 712.217L475.884 729.113L462.634 749.089Z" fill="#F4CECA"/>
</g>
<path d="M449.29 473.715L477.097 471.102L481.016 477.916L501.638 485.944L479.057 478.383L450.97 479.689L449.29 473.715Z" fill="#479CF2"/>
<path d="M434.734 504.8L436.973 506.573L436.414 507.787L434.734 504.8Z" fill="#401738"/>
<path d="M438.653 511.614L439.773 507.787H444.905L442.012 517.402L438.653 511.614Z" fill="#401738"/>
<g style="mix-blend-mode:soft-light" opacity="0.5">
<path d="M366.431 766.078L397.037 800.243L365.311 780.08L356.446 768.692L366.431 766.078Z" fill="#ECABA4"/>
</g>
<g style="mix-blend-mode:soft-light" opacity="0.5">
<path d="M444.345 579.197L415.885 577.61L430.628 567.622L463.474 569.956L444.345 579.197Z" fill="#ECABA4"/>
</g>
<path d="M509.756 444.592L484.842 427.976L459.088 432.923L458.901 432.176L484.935 427.136L510.129 443.938L509.756 444.592Z" fill="#471737"/>
<path d="M515.354 404.173L491.56 389.424L491.933 388.771L515.728 403.519L515.354 404.173Z" fill="#471737"/>
<path d="M499.212 436.844L498.465 436.751L503.224 396.425L504.064 396.518L499.212 436.844Z" fill="#471737"/>
<path d="M518.247 382.796L515.074 380.276L517.687 353.485L518.434 353.579L515.914 379.903L518.714 382.143L518.247 382.796Z" fill="#471737"/>
<path d="M472.991 430.029L472.245 429.842L491.374 337.522L492.12 337.709L472.991 430.029Z" fill="#471737"/>
<path d="M467.766 396.052L467.486 395.305L480.363 391.478L480.643 392.224L467.766 396.052Z" fill="#471737"/>
<path d="M469.446 471.942L468.699 471.755L477.097 428.909L477.843 429.003L469.446 471.942Z" fill="#471737"/>
<path d="M459.368 651.915L458.622 651.728L488.761 481.65L489.601 481.837L459.368 651.915Z" fill="#471737"/>
<path d="M440.053 526.363L439.959 525.616L471.125 522.442L481.483 525.616L481.203 526.363L471.032 523.189L440.053 526.363Z" fill="#471737"/>
<path d="M495.199 550.354L478.123 543.446L478.403 542.699L495.479 549.607L495.199 550.354Z" fill="#471737"/>
<path d="M469.725 591.426L442.572 587.506L442.665 586.759L469.819 590.679L469.725 591.426Z" fill="#471737"/>
<path d="M440.053 652.568L439.306 652.475L451.343 588.346L452.09 588.532L440.053 652.568Z" fill="#471737"/>
<path d="M403.755 720.058L403.662 719.311L474.391 711.75L474.484 712.59L403.755 720.058Z" fill="#471737"/>
<path d="M414.392 671.05H391.531V670.304H414.392V671.05Z" fill="#471737"/>
<path d="M374.082 774.199L373.336 774.012L396.663 670.584L397.41 670.771L374.082 774.199Z" fill="#471737"/>
<path d="M377.815 748.622L377.721 747.782L397.69 747.035V747.782L377.815 748.622Z" fill="#471737"/>
<path d="M407.487 670.77L406.647 670.584L427.829 578.264L428.575 578.357L407.487 670.77Z" fill="#471737"/>
<path d="M420.271 613.362H406.647V612.615H420.271V613.362Z" fill="#471737"/>
<path opacity="0.5" d="M447.984 753.662L461.607 766.077L454.702 797.815L397.69 802.296L397.037 800.242L366.431 766.077L399.743 797.815L396.197 782.506L416.445 754.316L447.984 753.662Z" fill="#1D0C27"/>
<path opacity="0.5" d="M356.446 768.691L365.311 780.08L356.446 804.91L391.531 802.67L346.462 805.47L356.446 768.691Z" fill="#1D0C27"/>
<g style="mix-blend-mode:soft-light" opacity="0.2">
<path d="M484.842 651.821L474.858 714.084L450.503 719.684L458.995 660.409L437.627 663.77L424.563 727.526H420.271L431.002 669.277H428.202L408.234 739.941L398.809 742.088L417.658 655.742L484.842 651.821Z" fill="#ECDEDD"/>
</g>
<g style="mix-blend-mode:soft-light" opacity="0.2">
<path d="M496.972 575.277L495.386 587.132H482.136L486.801 567.623H481.296L468.326 619.897H457.128L471.592 547.646L498.558 555.954L496.972 575.277Z" fill="#ECDEDD"/>
</g>
<g style="mix-blend-mode:soft-light" opacity="0.2">
<path d="M521.793 358.059L517.034 393.157L509.942 389.144L512.275 371.128L509.942 369.634L498.838 456.167L491.747 450.379L503.597 369.634L501.638 366.18L486.241 461.394L479.803 456.167L501.638 333.976L521.793 358.059Z" fill="#88DEFF"/>
</g>
<g style="mix-blend-mode:soft-light" opacity="0.2">
<path d="M498.838 525.99L485.308 521.696L492.12 482.771L504.064 486.691L498.838 525.99Z" fill="#ECDEDD"/>
</g>
<g style="mix-blend-mode:multiply" opacity="0.5">
<path d="M472.618 471.475L491.747 353.578L484.655 354.512L471.685 416.681L467.579 418.081L485.495 339.95L501.638 333.976L477.097 471.102L472.618 471.475Z" fill="#AE9AFF"/>
</g>
<g style="mix-blend-mode:multiply" opacity="0.5">
<path d="M479.057 478.383L463.474 569.956L439.679 568.276L451.717 505.267H454.702L444.905 563.515L449.29 563.328L461.981 481.743H459.368L455.542 502.093L452.93 502L456.009 479.503L479.057 478.383Z" fill="#AE9AFF"/>
</g>
<g style="mix-blend-mode:multiply" opacity="0.5">
<path d="M444.345 579.198L428.855 652.755H423.257L434.174 594.6L427.083 594.413L403.662 707.923L396.197 709.416L422.417 578.357L444.345 579.198Z" fill="#AE9AFF"/>
</g>
<g style="mix-blend-mode:multiply" opacity="0.5">
<path d="M381.92 771.772L391.531 722.392H403.102L392.371 771.772H381.92Z" fill="#AE9AFF"/>
</g>
<g style="mix-blend-mode:multiply" opacity="0.5">
<path d="M429.042 745.168L434.174 722.392H447.331L444.345 734.06L429.042 745.168Z" fill="#B3A9BE"/>
</g>
<g style="mix-blend-mode:multiply" opacity="0.5">
<path d="M385.093 694.947H391.625L381.267 740.5L371.936 745.168L385.093 694.947Z" fill="#B3A9BE"/>
</g>
<path d="M377.815 772.892L384.253 759.543L378.748 774.665L377.815 772.892Z" fill="#A45754"/>
<path d="M397.876 721.178L400.116 712.217L398.996 718.938L397.876 721.178Z" fill="#A45754"/>
<path d="M408.794 624.471L410.007 622.417L410.193 630.631L408.794 624.471Z" fill="#A45754"/>
<path d="M405.061 648.367L406.741 646.594L405.061 655.088V648.367Z" fill="#A45754"/>
<g style="mix-blend-mode:soft-light">
<path d="M497.625 579.197L510.036 604.401L496.786 594.319L497.625 579.197Z" fill="#F4CECA"/>
</g>
<path d="M465.433 472.222L469.912 478.849L460.115 479.316L454.982 473.155L465.433 472.222Z" fill="#47FFF2"/>
<path d="M481.016 477.916L483.069 478.757L481.763 479.317L479.057 478.383L474.951 478.476L478.403 473.716L481.016 477.916Z" fill="#47FFF2"/>
<path style="mix-blend-mode:screen" opacity="0.7" d="M521.793 358.059L495.386 549.98L481.763 479.317L477.097 471.102L501.638 333.976L521.793 358.059Z" fill="url(#paint7_linear_5_1287)"/>
<path d="M863.963 440.671L856.964 434.417L848.286 341.35L852.765 324.081L862.003 325.481L880.292 369.074L895.315 405.666L913.604 487.158L911.085 489.305L903.246 461.114L896.715 459.154L885.984 460.274L874.6 456.727L868.535 425.176L865.549 424.335L865.922 440.671H863.963Z" fill="url(#paint8_linear_5_1287)"/>
<g style="mix-blend-mode:soft-light">
<path d="M880.292 369.074L895.315 405.666L913.604 487.158L902.313 454.86L884.211 453.273L875.72 412.48L871.148 396.145L852.765 324.081L862.003 325.481L880.292 369.074Z" fill="#ECABA4"/>
</g>
<g style="mix-blend-mode:soft-light">
<path d="M865.922 440.671L860.697 433.576V424.335H865.549L865.922 440.671Z" fill="#ECABA4"/>
</g>
<path d="M865.549 424.336H860.697L877.119 419.295L868.535 425.176L865.549 424.336Z" fill="#401738"/>
<path d="M853.978 400.906L853.605 400.346L869.095 388.771L869.561 389.424L853.978 400.906Z" fill="#471737"/>
<path d="M850.806 366.461L850.339 365.807L861.35 358.246L861.816 358.9L850.806 366.461Z" fill="#471737"/>
<path d="M862.936 393.624L855.751 362.446L856.498 362.26L863.683 393.438L862.936 393.624Z" fill="#471737"/>
<path d="M855.471 416.96L855.098 416.307L873.107 403.519L873.48 404.172L855.471 416.96Z" fill="#471737"/>
<g style="mix-blend-mode:multiply" opacity="0.5">
<path d="M852.765 324.081L876.186 414.534L884.211 453.273L880.945 454.487L867.042 393.531L865.456 396.145L866.762 419.295H860.697L848.286 341.35L852.765 324.081Z" fill="#AE9AFF"/>
</g>
<path d="M877.866 362.726L861.443 358.899L861.63 358.152L878.053 361.98L877.866 362.726Z" fill="#471737"/>
<g style="mix-blend-mode:soft-light" opacity="0.2">
<path d="M862.003 325.481L892.049 396.425L879.079 389.144L874.6 372.621H871.054L880.945 402.399H872.921L852.765 324.081L862.003 325.481Z" fill="#ECDEDD"/>
</g>
<path d="M895.315 406.04L873.294 404.266V403.426L895.408 405.293L895.315 406.04Z" fill="#471737"/>
<path d="M902.313 454.86L903.246 461.114L896.715 459.154L885.984 460.274L874.6 456.727L883.465 449.353L902.313 454.86Z" fill="#47ABF2"/>
<g style="mix-blend-mode:soft-light" opacity="0.3">
<path d="M1108.16 828.153L1249.8 829.087L1102.09 811.444L1098.36 801.269L1459.28 793.521V838.421L1284.14 838.515L983.027 828.153H1108.16Z" fill="#13223F"/>
</g>
<g style="mix-blend-mode:soft-light" opacity="0.3">
<path d="M1459.28 866.706H239.062L520.486 832.541L1459.28 846.076V866.706Z" fill="#13223F"/>
</g>
<g style="mix-blend-mode:soft-light" opacity="0.3">
<path d="M340.77 831.14L534.483 819.938C534.483 819.938 681.54 825.633 682.66 825.913C683.78 826.099 514.328 831.14 514.328 831.14L344.596 838.141L340.77 831.14Z" fill="#13223F"/>
</g>
<g style="mix-blend-mode:soft-light" opacity="0.3">
<path d="M738.74 835.341L770.932 828.153H917.243L1047.5 835.341H738.74Z" fill="#13223F"/>
</g>
<path opacity="0.5" d="M1008.78 833.194V828.993L1053.48 830.58L1058.7 840.288L1050.49 840.195L1047.5 835.341L1008.78 833.194Z" fill="#1D0C27"/>
<path opacity="0.5" d="M1081.19 831.794L1082.78 840.662L1067.01 840.475L1066.26 830.954L1081.19 831.794Z" fill="#1D0C27"/>
<path opacity="0.5" d="M1123.83 828.153L1127.75 814.524L1177.58 820.499L1172.63 828.153H1123.83Z" fill="#1D0C27"/>
<path opacity="0.5" d="M1177.58 828.62L1183.74 821.339L1197.73 822.832L1194.28 828.713L1177.58 828.62Z" fill="#1D0C27"/>
<g style="mix-blend-mode:soft-light" opacity="0.3">
<path d="M-93.7771 855.597L356.353 848.036L169.639 866.705H-93.7771V855.597Z" fill="#13223F"/>
</g>
<g style="mix-blend-mode:soft-light" opacity="0.3">
<path d="M1284.14 838.515L1206.32 828.993H1245.88L1436.52 824.979L1447.9 828.153L1305.69 831.7L1312.41 832.541H1459.28V838.421L1284.14 838.515Z" fill="#14203A"/>
</g>
<g style="mix-blend-mode:soft-light" opacity="0.3">
<path d="M1311.76 844.023L1339.19 854.664H1150.05L1114.04 841.129L1311.76 844.023Z" fill="#14203A"/>
</g>
<g style="mix-blend-mode:soft-light" opacity="0.3">
<path d="M678.275 844.022L785.395 845.329L789.687 844.022L559.024 838.141L620.982 833.287L926.854 838.141L910.991 845.702L820.48 843.275L815.628 846.542L937.865 851.21L927.507 855.597L668.104 851.21L678.275 844.022Z" fill="#14203A"/>
</g>
<g style="mix-blend-mode:soft-light" opacity="0.3">
<path d="M1102.84 841.128L1107.32 847.849L965.018 848.596L969.683 838.515L1102.84 841.128Z" fill="#14203A"/>
</g>
<g style="mix-blend-mode:soft-light" opacity="0.3">
<path d="M315.856 857.371L544.654 855.598L540.175 859.145H398.716L377.815 865.492L242.981 866.239L315.856 857.371Z" fill="#14203A"/>
</g>
<g style="mix-blend-mode:soft-light" opacity="0.3">
<path d="M172.904 867.079L-46.282 866.705L-24.5407 863.998L248.113 858.864L172.904 867.079Z" fill="#14203A"/>
</g>
<g style="mix-blend-mode:soft-light" opacity="0.5">
<path d="M1459.28 838.421L1210.8 835.808L1003.28 828.153L1459.28 832.541V838.421Z" fill="#14203A"/>
</g>
<g style="mix-blend-mode:soft-light" opacity="0.5">
<path d="M678.275 844.022L1140.82 851.21L1059.91 859.145L668.104 851.21L678.275 844.022Z" fill="#14203A"/>
</g>
<path d="M677.341 860.918L680.514 859.892L701.229 860.358L677.341 860.918Z" fill="#A45754"/>
<path d="M128.769 859.611L131.941 858.584L152.656 859.051L128.769 859.611Z" fill="#A45754"/>
<path d="M698.15 843.369L698.71 841.782H702.629L698.15 843.369Z" fill="#A45754"/>
<path d="M656.347 851.583L651.215 852.704L651.774 852.143L655.134 851.21L656.347 851.583Z" fill="#A45754"/>
<path d="M188.954 860.918L183.822 861.945L184.288 861.478L187.741 860.545L188.954 860.918Z" fill="#A45754"/>
<path d="M514.328 851.49H516.754L515.541 852.424L514.328 851.49Z" fill="#A45754"/>
<path d="M552.025 858.678L563.223 859.425H557.624L552.025 858.678Z" fill="#A45754"/>
<path d="M1206.32 856.624L1220.6 856.251L1216.12 857.745L1206.32 856.624Z" fill="#A45754"/>
<path d="M1188.78 860.078L1192.32 859.145H1198.67L1188.78 860.078Z" fill="#A45754"/>
<path d="M998.983 852.423L1003.93 850.743H1017.27L998.983 852.423Z" fill="#A45754"/>
<path d="M279.465 326.415L277.319 329.775L283.011 341.723L243.821 474.836L241.208 473.436L243.261 454.393L234.769 451.313L226.745 465.408L220.679 466.435L206.216 505.64H205.75L213.028 479.877L211.069 478.663L218.813 451.406L201.737 451.126L195.579 457.754L184.568 459.527L177.663 450.192L167.213 451.313L153.683 439.084L144.725 454.393L131.755 456.727L115.518 496.306H112.066L108.52 495.092L152.656 361.513L156.202 360.86L162.92 341.443L158.535 340.323L171.412 311.106L264.722 289.916L287.676 330.429L285.157 334.909L279.465 326.415Z" fill="url(#paint9_linear_5_1287)"/>
<g style="mix-blend-mode:soft-light">
<path d="M287.676 330.335L285.157 334.909L279.465 326.415L277.319 329.775L283.011 341.723L243.821 474.836L242.794 473.156L251.845 437.311L235.609 448.979L226.745 465.408L221.799 463.074L206.216 505.64H205.75L214.241 478.383L213.401 477.823L248.673 351.432L246.9 341.63L251.472 338.643L254.551 325.014V317.733L264.722 289.916L287.676 330.335Z" fill="#ECABA4"/>
</g>
<path d="M254.551 317.733L277.506 362.073L254.551 325.014L162.174 343.59L158.535 340.323L254.551 317.733Z" fill="#479CF2"/>
<path d="M277.319 329.775L279.465 326.414L285.157 334.909L279.185 333.695L277.319 329.775Z" fill="#29102A"/>
<path d="M228.798 383.355L218.813 451.405L201.737 451.125L195.579 457.753L184.568 459.526L177.663 450.192L167.213 451.312L153.683 439.084L144.725 454.392L131.755 456.726L115.518 496.305H112.066L108.52 495.092H112.346L132.128 440.67L139.219 438.71L160.961 421.814L228.798 383.355Z" fill="#290823"/>
<g style="mix-blend-mode:soft-light">
<path d="M144.725 454.393L139.219 438.711L148.737 431.243L153.683 439.084L144.725 454.393Z" fill="#ECABA4"/>
</g>
<g style="mix-blend-mode:soft-light">
<path d="M195.579 457.753L192.78 454.393L198.098 437.311L201.737 451.126L195.579 457.753Z" fill="#ECABA4"/>
</g>
<path d="M156.202 361.233L156.109 360.486L246.9 341.257L246.993 342.004L156.202 361.233Z" fill="#230D32"/>
<path d="M193.06 332.388L192.406 332.108L205.377 303.171L206.03 303.544L193.06 332.388Z" fill="#230D32"/>
<path d="M221.239 325.854L220.493 325.574L231.597 297.29L232.25 297.57L221.239 325.854Z" fill="#230D32"/>
<path d="M226.745 311.292L226.558 310.545L259.777 302.984L259.963 303.731L226.745 311.292Z" fill="#230D32"/>
<path d="M143.138 436.097L142.392 435.817L168.239 358.152L168.985 358.339L143.138 436.097Z" fill="#230D32"/>
<path d="M161.894 378.969L161.801 378.129L245.034 364.127L245.127 364.874L161.894 378.969Z" fill="#230D32"/>
<path d="M206.123 371.221L205.377 371.034L211.722 348.911L212.468 349.098L206.123 371.221Z" fill="#230D32"/>
<path d="M149.484 416.307L149.297 415.56L189.98 404.919L190.26 405.666L149.484 416.307Z" fill="#230D32"/>
<path d="M216.574 369.447L215.827 369.354L217.507 361.419L208.083 363.473L207.989 362.726L218.533 360.393L216.574 369.447Z" fill="#230D32"/>
<path d="M261.736 412.947L239.528 383.636L240.088 383.169L262.389 412.48L261.736 412.947Z" fill="#230D32"/>
<path d="M234.769 451.313L235.609 448.979L251.845 437.311L243.261 454.393L234.769 451.313Z" fill="#29102A"/>
<path d="M254.925 402.959L254.271 402.772L263.696 372.808L271.534 381.396L270.974 381.956L264.069 374.301L254.925 402.959Z" fill="#230D32"/>
<g style="mix-blend-mode:soft-light" opacity="0.2">
<path d="M279.465 315.866L269.014 345.644L257.351 323.054L266.308 292.81L279.465 315.866Z" fill="#ECDEDD"/>
</g>
<g style="mix-blend-mode:soft-light" opacity="0.2">
<path d="M277.506 362.073L257.351 428.816L251.845 422.188L264.535 381.396L262.109 373.555L243.354 433.39L239.808 431.99L266.122 343.684L277.506 362.073Z" fill="#ECDEDD"/>
</g>
<g style="mix-blend-mode:soft-light" opacity="0.2">
<path d="M247.646 355.352L254.551 363.566L239.808 415.934L231.877 411.546L247.646 355.352Z" fill="#ECDEDD"/>
</g>
<g style="mix-blend-mode:multiply" opacity="0.5">
<path d="M264.722 289.916L254.551 317.733L226.651 324.361L236.262 296.45L264.722 289.916Z" fill="#AE9AFF"/>
</g>
<g style="mix-blend-mode:multiply" opacity="0.5">
<path d="M254.551 325.015L251.845 336.963L245.034 342.004L248.673 351.432L225.345 435.164L220.866 442.818L228.798 383.356L213.868 391.851L235.796 328.749L254.551 325.015Z" fill="#AE9AFF"/>
</g>
<g style="mix-blend-mode:multiply" opacity="0.5">
<path d="M183.075 409.306L201.737 357.032L213.868 355.352L201.551 398.851L183.075 409.306Z" fill="#AE9AFF"/>
</g>
<path d="M161.894 398.011L163.48 382.329H165.72V398.011H161.894Z" fill="#6D4654"/>
<path d="M168.612 394.37V391.85L169.732 391.29V394.37H168.612Z" fill="#6D4654"/>
<path d="M182.422 392.877L185.968 386.996H189.047L185.688 392.877H182.422Z" fill="#6D4654"/>
<path d="M215.081 314.653L217.974 307.185L220.866 305.878L215.081 314.653Z" fill="#6D4654"/>
<path d="M234.769 356.659V350.218L236.916 353.392L234.769 356.659Z" fill="#6D4654"/>
<path d="M198.285 336.309L197.165 331.268L208.922 328.468L211.255 333.695L198.285 336.309Z" fill="#47FFF2"/>
<path d="M214.054 333.135L212.375 327.628L224.412 324.921L226.371 330.802L214.054 333.135Z" fill="#47FFF2"/>
<path d="M230.011 329.962L230.757 323.521L232.996 322.867L231.504 329.588L230.011 329.962Z" fill="#47FFF2"/>
<path d="M1106.38 478.757L1104.24 466.342L1106.38 461.114L1110.12 477.917L1106.38 478.757Z" fill="#47FFF2"/>
<path d="M1065.42 318.2L1064.49 302.518L1066.91 301.678L1070.09 318.2H1065.42Z" fill="#47FFF2"/>
<path d="M1079.7 331.082V327.535V325.668L1081.84 331.082H1079.7Z" fill="#47FFF2"/>
<path d="M1090.99 226.066V222.519V220.652L1093.13 226.066H1090.99Z" fill="#47FFF2"/>
<path d="M1078.3 278.901L1077.74 269.099L1080.72 268.353L1082.03 278.901H1078.3Z" fill="#47FFF2"/>
<path d="M1083.43 325.668L1081.84 317.36L1083.71 311.853L1083.43 325.668Z" fill="#47FFF2"/>
<path d="M1073.17 411.92L1074.56 415.094V418.267L1071.77 411.92H1073.17Z" fill="#47FFF2"/>
<path d="M1095.28 410.8L1096.68 417.147L1093.79 414.254L1094.44 410.8H1095.28Z" fill="#47FFF2"/>
<path d="M223.106 611.215L225.905 602.627L229.264 601.601L224.505 612.615L223.106 611.215Z" fill="#47FFF2"/>
<path d="M231.037 612.616L232.717 610.002L233.743 611.309L231.037 612.616Z" fill="#47FFF2"/>
<path d="M261.27 541.952V524.87L266.308 519.549L263.789 543.072L261.27 541.952Z" fill="#47FFF2"/>
<path d="M269.201 530.937L272.28 525.803L275.453 524.59V530.564L269.201 530.937Z" fill="#47FFF2"/>
<path d="M278.345 469.422L283.384 458.314L287.49 453.833L285.157 464.848L278.345 469.422Z" fill="#47FFF2"/>
<path d="M281.051 441.231L284.784 434.417L285.624 437.964L283.757 442.445L281.051 441.231Z" fill="#47FFF2"/>
<path d="M304.846 368.233L308.951 362.633L311.471 362.353L309.698 368.047L304.846 368.233Z" fill="#47FFF2"/>
<path d="M334.985 304.572L338.624 303.731L339.93 304.572L337.411 306.905L334.985 304.572Z" fill="#47FFF2"/>
<path d="M315.203 393.624L316.976 387.837H318.749L316.976 393.811L315.203 393.624Z" fill="#47FFF2"/>
<path d="M304.846 358.525V354.511L306.245 352.645V358.525H304.846Z" fill="#47FFF2"/>
<path d="M333.959 329.868L337.411 320.16L339.93 321.374L336.944 329.775L333.959 329.868Z" fill="#47FFF2"/>
<path d="M331.719 277.874V268.539L333.959 266.952L334.985 277.874H331.719Z" fill="#47FFF2"/>
<path d="M723.25 229.614V219.346L727.449 212.438L726.61 234.188L723.25 229.614Z" fill="#47FFF2"/>
<path d="M734.168 212.531V203.01L736.5 200.583V210.571L734.168 212.531Z" fill="#47FFF2"/>
<path d="M628.26 227.467L625.274 213.558L626.767 204.69L630.313 227.467H628.26Z" fill="#47FFF2"/>
<path d="M663.345 195.543V191.622H665.398L663.345 195.543Z" fill="#47FFF2"/>
<path d="M757.962 231.387V227.467H760.108L757.962 231.387Z" fill="#47FFF2"/>
<path d="M650.468 191.622V185.274L653.454 181.447V189.662L650.468 191.622Z" fill="#47FFF2"/>
<path d="M726.143 280.394V274.98L727.169 273.58V281.421L726.143 280.394Z" fill="#47FFF2"/>
<path d="M616.503 296.264V289.263L618.929 286.089V296.264H616.503Z" fill="#47FFF2"/>
<path d="M1149.4 516.002L1137.83 482.024L1140.26 469.329L1133.72 435.164L1143.52 420.602L1187.94 435.164L1193.54 459.06L1191.58 461.861L1193.54 474.743L1196.33 476.143L1211.26 539.059L1199.23 537.752L1193.82 521.323L1191.2 520.856L1190.18 518.989L1149.4 516.002Z" fill="url(#paint10_linear_5_1287)"/>
<g style="mix-blend-mode:soft-light">
<path d="M1187.94 435.164L1193.54 459.06L1161.34 451.406L1191.58 461.861L1193.54 474.743L1196.33 476.143L1211.26 539.059L1206.13 533.551L1198.48 509.934L1163.02 502.933L1143.52 420.602L1187.94 435.164Z" fill="#ECABA4"/>
</g>
<path d="M1198.48 509.935L1190.18 518.989L1149.4 516.002L1163.02 502.934L1198.48 509.935Z" fill="#479CF2"/>
<path d="M1211.26 539.058L1199.23 537.751L1206.13 533.551L1211.26 539.058Z" fill="#479CF2"/>
<path d="M1178.33 471.849L1173.57 455.887L1174.31 455.606L1179.07 471.662L1178.33 471.849Z" fill="#230D32"/>
<path d="M1204.55 511.334L1198.39 510.307L1198.57 509.561L1204.64 510.587L1204.55 511.334Z" fill="#230D32"/>
<path d="M1138.48 480.343L1138.02 479.783L1154.35 466.341L1154.53 466.434L1193.63 474.369L1193.54 475.115L1154.53 467.181L1138.48 480.343Z" fill="#230D32"/>
<g style="mix-blend-mode:soft-light" opacity="0.2">
<path d="M1178.7 432.177L1182.8 456.54L1178.7 457.38L1187.66 460.461L1190.27 480.063L1176.37 478.383L1167.88 441.231L1165.92 440.391L1177.39 505.827L1163.02 502.933L1143.52 420.602L1178.7 432.177Z" fill="#ECDEDD"/>
</g>
<path d="M1152.57 502.933V495.372H1153.79V502.373L1152.57 502.933Z" fill="#90576A"/>
<path d="M1149.4 493.785L1148.56 489.678L1149.03 488.277L1151.08 492.011L1149.4 493.785Z" fill="#90576A"/>
<path d="M1143.52 445.711L1144.73 439.271L1146.51 445.711H1143.52Z" fill="#90576A"/>
<path d="M1162.28 516.935L1177.39 505.827L1185.98 507.601L1170.02 517.495L1162.28 516.935Z" fill="#47FFF2"/>
<path d="M1173.66 517.962L1197.17 511.334L1194.47 514.414L1176.37 517.962H1173.66Z" fill="#47FFF2"/>
<path d="M822.906 447.111L832.704 432.643H836.623L848.193 475.022L842.501 479.689H828.971L822.906 447.111Z" fill="url(#paint11_linear_5_1287)"/>
<g style="mix-blend-mode:soft-light">
<path d="M836.623 432.643L848.193 475.022L835.97 471.101L832.704 432.643H836.623Z" fill="#ECABA4"/>
</g>
<path d="M848.193 475.022L842.501 479.689H828.971L835.97 471.102L848.193 475.022Z" fill="url(#paint12_linear_5_1287)"/>
<path d="M291.316 547.646L309.698 482.304L323.135 475.489L328.08 490.518L316.043 546.713H312.684L311.471 545.126L314.737 529.63L312.87 527.297L306.619 540.179H301.766L298.407 543.632L291.316 547.646Z" fill="url(#paint13_linear_5_1287)"/>
<g style="mix-blend-mode:soft-light">
<path d="M328.08 490.518L316.043 546.713L313.43 545.126L318.376 525.99L311.471 519.176L323.135 475.489L328.08 490.518Z" fill="#ECABA4"/>
</g>
<path d="M318.376 525.99L314.737 529.631L312.87 527.297L306.619 540.179H301.766L298.407 543.633L291.316 547.647L292.902 544.659L299.807 530.564L311.471 519.176L318.376 525.99Z" fill="#290823"/>
<path d="M324.814 505.173L316.976 498.732L304.099 502.933L303.913 502.186L317.163 497.799L325.281 504.52L324.814 505.173Z" fill="#230D32"/>
<g style="mix-blend-mode:soft-light" opacity="0.2">
<path d="M326.587 485.944L318.002 516.002L312.964 513.668L323.135 475.489L326.587 485.944Z" fill="#ECDEDD"/>
</g>
<path d="M209.949 594.973H196.046L193.06 592.733L211.628 548.58L225.438 542.139L226.931 544.192L214.241 580.037L215.174 585.358L209.949 594.973Z" fill="url(#paint14_linear_5_1287)"/>
<g style="mix-blend-mode:soft-light">
<path d="M226.931 544.192L214.241 580.037L209.949 580.784L225.438 542.139L226.931 544.192Z" fill="#ECABA4"/>
</g>
<g style="mix-blend-mode:soft-light">
<path d="M209.949 594.973L198.472 591.519L203.324 587.599L215.174 585.358L209.949 594.973Z" fill="#ECABA4"/>
</g>
<path d="M193.06 592.733L198.472 591.52L209.949 594.973H196.046L193.06 592.733Z" fill="#290823"/>
<path d="M204.537 566.129L204.257 565.382L217.88 560.995L220.026 564.542L219.28 564.916L217.507 561.929L204.537 566.129Z" fill="#471737"/>
<path d="M130.728 772.519L153.123 784.934L144.258 793.335L125.689 784.28V775.226L130.728 772.519Z" fill="#A9576A"/>
<path d="M113.932 745.168L105.068 753.662L106.281 747.315L109.267 742.834L113.932 745.168Z" fill="#A9576A"/>
<g style="mix-blend-mode:soft-light">
<path d="M153.123 784.934L156.295 799.869L147.151 805.47H144.258V793.335L153.123 784.934Z" fill="#ECABA4"/>
</g>
<g style="mix-blend-mode:multiply" opacity="0.4">
<path d="M144.258 793.335V800.243H139.406V793.335L132.501 791.468L121.77 802.109H113.932L125.689 784.28L144.258 793.335Z" fill="#AE9AFF"/>
</g>
<path d="M1216.58 716.044L1220.13 712.217L1229.55 706.336L1220.13 649.488L1225.26 646.688L1241.31 649.488L1275.09 716.044H1216.58Z" fill="url(#paint15_linear_5_1287)"/>
<g style="mix-blend-mode:soft-light">
<path d="M1241.31 649.488L1275.09 714.271L1253.72 713.337L1236.55 658.729H1234.31L1243.27 686.453L1237.39 685.52L1225.26 646.688L1241.31 649.488Z" fill="#ECABA4"/>
</g>
<g style="mix-blend-mode:soft-light">
<path d="M1229.55 706.336L1245.88 714.27L1221.34 711.47L1229.55 706.336Z" fill="#ECABA4"/>
</g>
<g style="mix-blend-mode:multiply" opacity="0.2">
<path d="M1243.27 686.453L1237.39 709.416L1231.79 707.363L1237.39 685.52L1243.27 686.453Z" fill="#AE9AFF"/>
</g>
<g style="mix-blend-mode:multiply" opacity="0.2">
<path d="M1225.26 646.688L1233.57 673.291L1226.66 688.787L1220.13 649.488L1225.26 646.688Z" fill="#AE9AFF"/>
</g>
<path d="M267.708 830.114L278.066 848.596L53.5603 853.077L80.0605 839.635H93.2173L116.638 790.815L127.182 789.321L174.771 690L173.278 690.093L198.285 638.193L247.553 628.298L270.507 674.224L263.229 710.63H255.018L252.312 726.592L263.416 729.392L262.483 733.22L270.507 737.98L256.511 819.472L267.708 830.114Z" fill="url(#paint16_linear_5_1287)"/>
<g style="mix-blend-mode:soft-light">
<path d="M270.507 674.224L263.229 710.63H255.018L252.312 726.592L263.416 729.392L262.483 733.22L270.507 737.98L260.243 755.623L249.233 754.969L210.415 771.865L247.553 628.298L270.507 674.224Z" fill="#ECABA4"/>
</g>
<g style="mix-blend-mode:soft-light">
<path d="M256.511 819.472L234.863 823.299L219 849.81L192.5 850.37L214.241 776.533L251.752 759.917L260.15 758.89L269.014 746.568L256.511 819.472Z" fill="#ECABA4"/>
</g>
<g style="mix-blend-mode:soft-light">
<path d="M278.066 848.596L226.745 850.183L247.74 828.993L267.708 830.113L278.066 848.596Z" fill="#ECABA4"/>
</g>
<g style="mix-blend-mode:soft-light">
<path d="M127.182 789.321L129.702 807.524L142.019 814.898H127.835L121.77 805.377L116.638 790.815L127.182 789.321Z" fill="#ECDEC9"/>
</g>
<g style="mix-blend-mode:soft-light">
<path d="M93.2173 839.635L116.638 850.183L90.6979 845.049L80.0605 839.635H93.2173Z" fill="#ECDEC9"/>
</g>
<path d="M255.018 710.63L255.578 707.643L263.229 710.63H255.018Z" fill="#479CF2"/>
<path d="M142.019 814.898L147.991 817.139L161.614 814.898L210.415 771.865L249.233 754.97L251.752 759.917L214.241 776.533L165.813 817.885L156.482 820.873L127.835 814.898H142.019Z" fill="#401738"/>
<path d="M249.233 754.97L251.752 759.917L214.241 776.533L210.415 771.865L249.233 754.97Z" fill="#793B6A"/>
<path d="M256.511 819.472L267.708 830.113L245.314 831.42L234.863 823.299L256.511 819.472Z" fill="#90576A"/>
<path d="M186.528 689.907L185.875 689.534L208.642 635.859L209.296 636.233L186.528 689.907Z" fill="#230D32"/>
<path d="M202.111 689.44L201.364 689.16L221.613 633.525L222.359 633.805L202.111 689.44Z" fill="#230D32"/>
<path d="M230.011 660.502L229.264 660.316L232.063 646.78L243.541 642.953L243.821 643.7L232.717 647.434L230.011 660.502Z" fill="#230D32"/>
<path d="M266.868 690L239.715 658.823L210.975 664.517L210.789 663.677L239.901 657.982L240.088 658.169L267.428 689.534L266.868 690Z" fill="#230D32"/>
<path d="M260.057 755.903L220.773 732.193L151.723 738.54L151.63 737.7L220.866 731.353L220.959 731.446L260.337 755.249L260.057 755.903Z" fill="#230D32"/>
<path d="M197.912 734.06L197.165 733.686L215.267 690L216.014 690.373L197.912 734.06Z" fill="#230D32"/>
<path d="M162.267 716.697L162.08 715.857L205.936 713.057L206.03 713.897L162.267 716.697Z" fill="#230D32"/>
<path d="M140.059 762.904L139.966 762.157L213.588 759.264L213.681 760.01L140.059 762.904Z" fill="#230D32"/>
<path d="M155.549 816.205L154.802 815.738L181.396 760.851L182.049 761.224L155.549 816.205Z" fill="#230D32"/>
<path d="M175.331 850.836L174.584 850.556L195.672 791.935L196.419 792.308L175.331 850.836Z" fill="#230D32"/>
<path d="M201.084 821.806H185.501L185.408 820.966H200.991L201.084 821.806Z" fill="#230D32"/>
<path d="M223.852 766.357L223.106 766.077L232.903 739.193L233.65 739.473L223.852 766.357Z" fill="#230D32"/>
<path d="M114.492 849.25L113.746 848.97L127.462 814.805L128.209 815.085L114.492 849.25Z" fill="#230D32"/>
<path d="M123.17 827.034H99.5624L99.4691 826.193H123.17V827.034Z" fill="#230D32"/>
<path d="M118.598 838.514H108.52L112.253 826.473L112.999 826.753L109.547 837.768H118.504L118.598 838.514Z" fill="#230D32"/>
<g style="mix-blend-mode:soft-light" opacity="0.2">
<path d="M241.954 764.305L226.558 820.873H217.787L224.878 787.548L222.359 787.921L203.044 850.37H192.5L214.241 776.533L241.954 764.305Z" fill="#ECDEDD"/>
</g>
<g style="mix-blend-mode:soft-light" opacity="0.2">
<path d="M260.15 758.89L269.014 746.568L260.15 798.469H247.366L254.085 759.637L260.15 758.89Z" fill="#ECDEDD"/>
</g>
<g style="mix-blend-mode:soft-light" opacity="0.2">
<path d="M255.578 707.643L251.939 731.726L244.94 729.019L247.273 714.831H244.38L240.181 738.074L228.704 731.726L238.502 694.854L255.578 707.643Z" fill="#ECDEDD"/>
</g>
<g style="mix-blend-mode:soft-light" opacity="0.2">
<path d="M270.507 674.224L265.375 700.081L252.498 689.72L259.31 651.914L270.507 674.224Z" fill="#ECDEDD"/>
</g>
<g style="mix-blend-mode:soft-light" opacity="0.2">
<path d="M245.593 636.046L250.632 647.061L237.009 691.867L232.063 688.413L245.593 636.046Z" fill="#ECDEDD"/>
</g>
<g style="mix-blend-mode:multiply" opacity="0.5">
<path d="M171.412 850.743L184.662 809.39L170.665 821.432L159.468 851.116H153.123L165.813 817.885L179.903 805.843L214.241 776.532L192.5 850.37L171.412 850.743Z" fill="#AE9AFF"/>
</g>
<g style="mix-blend-mode:multiply" opacity="0.5">
<path d="M212.748 690.28L195.859 746.568H205.936L223.292 690.186L231.69 689.72L210.415 771.865L205.19 773.452L170.012 778.866L193.806 716.51H188.021L147.991 817.138L142.019 814.898L191.94 690.186L212.748 690.28Z" fill="#AE9AFF"/>
</g>
<g style="mix-blend-mode:multiply" opacity="0.5">
<path d="M247.553 628.298L232.063 688.413H208.176L232.81 631.285L247.553 628.298Z" fill="#AE9AFF"/>
</g>
<path d="M251.752 759.917L249.233 754.97L258.097 755.623L260.15 758.89L251.752 759.917Z" fill="#90576A"/>
<path d="M133.994 846.73L138.1 838.142L143.418 834.595L135.767 846.73H133.994Z" fill="#90576A"/>
<path d="M143.605 838.142L145.658 833.661H147.617L146.404 839.635L143.605 838.142Z" fill="#90576A"/>
<path d="M136.327 794.642L140.339 790.628L141.179 792.121L137.446 796.509L136.327 794.642Z" fill="#90576A"/>
<path d="M186.061 784.561L189.514 779.8L188.021 786.054L186.061 784.561Z" fill="#90576A"/>
<path d="M198.192 743.675L207.989 731.727L198.378 745.355L198.192 743.675Z" fill="#90576A"/>
<path d="M171.598 721.458L171.505 719.685L172.625 722.952L171.598 721.458Z" fill="#90576A"/>
<path d="M203.044 704.749L205.657 698.401L205.283 703.162L203.044 704.749Z" fill="#90576A"/>
<path d="M232.063 688.413L263.229 710.63L255.578 707.642L231.69 689.72L174.024 691.494L173.278 690.093L232.063 688.413Z" fill="#479CF2"/>
<path d="M232.903 690.653L234.21 689.72L257.91 706.802L255.578 707.642L232.903 690.653Z" fill="#47FFF2"/>
<path d="M194.553 690.84L194.459 689.533L210.415 689.253L211.348 690.373L194.553 690.84Z" fill="#47FFF2"/>
<path d="M999.73 805.843L1009.15 775.786L1004.4 769.065L1020.91 719.684L1027.16 712.496L1023.43 571.263L1039.57 551.66L1047.97 565.382L1064.02 717.351L1072.7 722.298L1058.52 579.944L1060.94 575.65L1054.22 518.709L1095.47 489.678L1129.99 514.788L1147.63 601.134L1164.52 611.682L1169.18 647.807L1161.34 658.635H1157.24L1160.41 684.212L1173.1 698.494L1220.6 828.527H884.958L898.114 820.032L933.946 819.379L937.865 825.633L947.756 814.058L986.2 810.604L995.624 816.578L999.73 805.843Z" fill="url(#paint17_linear_5_1287)"/>
<g style="mix-blend-mode:soft-light">
<path d="M1047.97 565.382L1064.02 717.351L1072.7 722.298L1074.66 733.033L1064.02 738.727L1050.49 730.233V716.324L1039.57 551.66L1047.97 565.382Z" fill="#ECABA4"/>
</g>
<g style="mix-blend-mode:soft-light">
<path d="M1129.99 514.788L1147.63 601.134L1127.57 622.043L1132.88 645.193L1157.24 658.635L1160.41 684.212L1173.1 698.494L1220.6 828.527H1141.1L1119.07 689.16L1109.93 676.838L1103.77 597.773L1106.38 595.066L1095.47 489.678L1129.99 514.788Z" fill="#ECABA4"/>
</g>
<g style="mix-blend-mode:soft-light">
<path d="M1169.18 647.807L1162.74 654.528L1147.63 640.993L1136.62 623.537L1141.1 611.682L1149.77 602.534L1164.52 611.682L1169.18 647.807Z" fill="#ECABA4"/>
</g>
<path d="M1060.94 575.65L1106.38 595.067L1147.63 601.134L1103.77 597.774L1060.94 575.65Z" fill="#290823"/>
<path d="M1004.4 769.065L1064.02 761.69L1078.2 765.331L1064.02 763.091L1009.9 772.332L1009.15 775.786L1004.4 769.065Z" fill="#290823"/>
<path d="M947.756 814.059L982.467 819.566L1029.68 828.527H939.638L937.865 825.634L947.756 814.059Z" fill="#290823"/>
<path d="M898.114 820.032L914.91 825.913L941.037 828.527H884.958L898.114 820.032Z" fill="#290823"/>
<g style="mix-blend-mode:soft-light" opacity="0.5">
<path d="M1074.66 733.033L1086.69 828.527H1069.34L1064.02 738.727L1074.66 733.033Z" fill="#ECABA4"/>
</g>
<g style="mix-blend-mode:soft-light">
<path d="M1109.93 676.838L1160.41 684.212L1173.1 698.494L1119.07 689.16L1109.93 676.838Z" fill="#ECABA4"/>
</g>
<g style="mix-blend-mode:soft-light">
<path d="M1149.77 602.534L1164.52 611.682H1141.1L1149.77 602.534Z" fill="#ECABA4"/>
</g>
<path d="M1210.42 828.62L1201.47 806.217H1192.42L1192.32 805.937L1168.9 710.163H1137.08L1148.09 774.012H1141.93L1148 828.433L1147.25 828.526L1141.1 773.265H1147.16L1136.15 709.416H1169.46L1169.55 709.696L1193.07 805.47H1202.03L1211.17 828.34L1210.42 828.62Z" fill="#230D32"/>
<path d="M1178.7 748.902V748.155L1191.11 747.408V748.155L1178.7 748.902Z" fill="#230D32"/>
<path d="M1141.47 738.447H1126.82V737.7H1141.47V738.447Z" fill="#230D32"/>
<path d="M1071.02 705.776L1070.93 705.029L1120.94 700.642V701.482L1071.02 705.776Z" fill="#230D32"/>
<path d="M1095.09 828.526L1086.32 748.248L1095.75 746.194L1104.98 805.47H1120.47L1107.22 702.228L1107.97 702.135L1121.41 806.216H1104.33L1104.24 805.936L1095.09 747.128L1087.16 748.808L1095.84 828.433L1095.09 828.526Z" fill="#230D32"/>
<path d="M1128.4 748.902H1114.04V748.155H1128.4V748.902Z" fill="#230D32"/>
<path d="M1065.98 654.902L1065.89 654.155L1107.78 649.208L1107.88 649.955L1065.98 654.902Z" fill="#230D32"/>
<path d="M1086.32 704.095L1079.7 652.941L1080.54 652.848L1087.07 704.002L1086.32 704.095Z" fill="#230D32"/>
<path d="M1089.96 778.773V777.933L1100.13 776.906L1100.23 777.653L1089.96 778.773Z" fill="#230D32"/>
<path d="M1094.72 651.354L1089.59 589.465L1090.33 589.372L1095.47 651.354H1094.72Z" fill="#230D32"/>
<path d="M1057.77 551.94L1057.68 551.567L1053.85 518.802L1054.6 518.709L1058.42 551.1L1065.51 549.98L1063.65 528.977L1075.68 517.962L1076.9 530.377L1098.92 522.723L1099.11 522.816L1134.47 535.884L1134.19 536.631L1098.92 523.563L1076.24 531.404L1075.03 519.549L1064.49 529.257L1066.35 550.633L1057.77 551.94Z" fill="#230D32"/>
<path d="M1184.86 774.853L1147.63 774.012V773.266L1184.95 774.106L1184.86 774.853Z" fill="#230D32"/>
<path d="M1072.7 722.672V721.832L1109.93 719.685V720.431L1072.7 722.672Z" fill="#230D32"/>
<path d="M1063.83 717.631L1049.93 708.763L1027.26 712.964L1027.07 712.123L1050.02 707.923L1050.21 708.016L1064.3 716.977L1063.83 717.631Z" fill="#230D32"/>
<path d="M1008.22 758.236L1008.13 757.49L1064.77 750.769L1064.86 751.515L1008.22 758.236Z" fill="#230D32"/>
<path d="M1002.16 798.563L1002.06 797.816L1067.01 789.135L1067.1 789.882L1002.16 798.563Z" fill="#230D32"/>
<path d="M1023.8 827.406L1023.06 827.313L1026.79 795.108L1027.54 795.202L1023.8 827.406Z" fill="#230D32"/>
<path d="M1055.16 635.672L1044.33 625.311L1025.11 631.098L1024.92 630.352L1044.52 624.471L1055.62 635.112L1055.16 635.672Z" fill="#230D32"/>
<path d="M1024.18 592.452L1023.8 591.799L1041.35 580.971L1041.72 581.624L1024.18 592.452Z" fill="#230D32"/>
<path d="M1025.11 641.366L1024.92 640.619L1044.99 635.019L1045.17 635.765L1025.11 641.366Z" fill="#230D32"/>
<path d="M1026.88 695.788L1026.51 695.134L1048.25 684.586L1048.62 685.239L1026.88 695.788Z" fill="#230D32"/>
<path d="M1037.15 710.63L1035.37 691.121L1036.21 691.027L1037.99 710.537L1037.15 710.63Z" fill="#230D32"/>
<path d="M1077.83 704.096L1074.94 681.972L1083.62 680.105L1083.71 680.852L1075.78 682.533L1078.58 704.002L1077.83 704.096Z" fill="#230D32"/>
<path d="M1064.86 536.631L1064.49 535.884L1076.43 530.563L1076.71 531.217L1064.86 536.631Z" fill="#230D32"/>
<path d="M1089.59 526.269L1087.07 495.372L1087.81 495.278L1090.33 526.269H1089.59Z" fill="#230D32"/>
<path d="M1088.84 508.627L1088.56 507.88L1096.87 504.333L1097.15 505.08L1088.84 508.627Z" fill="#230D32"/>
<path d="M1144.64 587.132L1104.7 579.664L1104.8 578.824L1144.73 586.385L1144.64 587.132Z" fill="#230D32"/>
<path d="M1136.8 585.452L1126.45 533.645L1127.19 533.458L1137.64 585.265L1136.8 585.452Z" fill="#230D32"/>
<path d="M1138.3 556.7L1130.83 554.553L1131.02 553.807L1138.58 555.954L1138.3 556.7Z" fill="#230D32"/>
<g style="mix-blend-mode:soft-light" opacity="0.2">
<path d="M1173.1 698.495L1193.63 754.596L1176.46 753.663L1164.52 716.324L1157.98 715.671L1173.1 791.748L1161.16 793.895L1152.95 748.529L1147.63 751.142L1161.16 814.058L1139.42 818.165L1119.07 689.16L1173.1 698.495Z" fill="#ECDEDD"/>
</g>
<g style="mix-blend-mode:soft-light" opacity="0.2">
<path d="M1193.63 828.527L1184.86 782.88L1203.15 780.733L1220.6 828.527H1193.63Z" fill="#ECDEDD"/>
</g>
<g style="mix-blend-mode:soft-light" opacity="0.2">
<path d="M1120.94 508.254L1132.04 565.195L1138.48 564.915L1128.78 520.202L1130.92 519.642L1145.48 590.866L1130.92 588.439L1122.9 541.205L1120.57 541.018L1128.78 598.333L1106.38 595.066L1095.47 489.678L1120.94 508.254Z" fill="#ECDEDD"/>
</g>
<g style="mix-blend-mode:soft-light" opacity="0.2">
<path d="M1120.47 611.682L1126.82 667.13L1128.4 667.317L1124.11 632.405L1126.82 632.965L1134.19 680.385L1119.07 678.425L1111.52 605.708L1120.47 611.682Z" fill="#ECDEDD"/>
</g>
<g style="mix-blend-mode:soft-light" opacity="0.2">
<path d="M1047.97 565.382L1057.4 654.528L1051.14 651.355L1045.64 592.173H1044.05L1051.14 671.051L1047.22 666.943L1039.57 551.66L1047.97 565.382Z" fill="#ECDEDD"/>
</g>
<g style="mix-blend-mode:soft-light" opacity="0.2">
<path d="M1027.16 712.497L1049.93 708.296L1050.49 715.39L1020.91 719.684L1027.16 712.497Z" fill="#ECDEDD"/>
</g>
<g style="mix-blend-mode:soft-light">
<path d="M1050.49 730.232L1064.02 717.351L1072.7 722.298L1074.66 733.033L1064.02 738.727L1050.49 730.232Z" fill="#ECABA4"/>
</g>
<g style="mix-blend-mode:soft-light">
<path d="M986.2 810.604L1008.13 824.42L947.756 814.058L986.2 810.604Z" fill="#ECABA4"/>
</g>
<g style="mix-blend-mode:soft-light">
<path d="M933.946 819.379L938.891 827.313L914.91 825.913L898.114 820.032L933.946 819.379Z" fill="#ECABA4"/>
</g>
<g style="mix-blend-mode:multiply" opacity="0.5">
<path d="M1119.07 689.16L1141.1 828.526H1130.08L1114.04 715.67L1104.24 717.257L1111.52 786.24H1104.24L1086.7 588.438L1103.77 597.773L1109.93 676.838L1119.07 689.16Z" fill="#AE9AFF"/>
</g>
<g style="mix-blend-mode:multiply" opacity="0.5">
<path d="M1095.47 489.678L1106.38 595.066L1097.71 591.332L1092.85 540.552L1089.96 542.419L1092.85 584.145H1089.96L1083.43 515.161H1080.16L1083.43 544.752L1073.26 548.019L1069.06 508.254L1095.47 489.678Z" fill="#AE9AFF"/>
</g>
<g style="mix-blend-mode:multiply" opacity="0.5">
<path d="M1039.57 551.66L1050.49 730.233L1064.02 738.727V761.69L1043.68 764.211L1044.61 735.647L1041.25 735.18L1039.57 764.678L1031.36 765.704L1027.16 567.996L1039.57 551.66Z" fill="#AE9AFF"/>
</g>
<g style="mix-blend-mode:multiply" opacity="0.5">
<path d="M1050.49 828.527L1054.78 773.639L1065.98 770.745L1069.34 828.527H1050.49Z" fill="#AE9AFF"/>
</g>
<g style="mix-blend-mode:multiply" opacity="0.5">
<path d="M1050.49 799.59L1048.44 810.605L1037.52 811.258V802.297L1050.49 799.59Z" fill="#B3A9BE"/>
</g>
<g style="mix-blend-mode:multiply" opacity="0.5">
<path d="M1100.23 827.313L1097.43 799.589L1114.04 795.108L1117.21 828.527L1100.23 827.313Z" fill="#B3A9BE"/>
</g>
<path d="M1161.34 658.635H1157.24L1132.88 645.193L1127.57 622.043L1147.63 601.134L1149.77 602.534L1141.1 611.682L1136.62 623.537L1147.63 640.993L1162.74 654.528L1169.18 647.807L1161.34 658.635Z" fill="#479CF2"/>
<path d="M1089.96 804.63L1088.28 795.108H1089.96L1092.95 805.377L1089.96 804.63Z" fill="#90576A"/>
<path d="M1086.7 814.058V810.604H1088.28L1087.91 814.432L1086.7 814.058Z" fill="#90576A"/>
<path d="M1121.22 819.379L1119.07 811.818L1120.94 811.258L1121.22 819.379Z" fill="#90576A"/>
<path d="M1044.05 788.201L1051.52 777.84L1048.44 784.094L1044.05 788.201Z" fill="#90576A"/>
<path d="M1023.43 751.143L1020.91 745.448L1022.12 742.555L1025.02 751.143H1023.43Z" fill="#90576A"/>
<path d="M1083.43 633.899V622.044L1084.74 620.363L1083.43 633.899Z" fill="#90576A"/>
<path d="M1078.95 620.923L1076.71 618.31H1079.51L1080.16 620.363L1078.95 620.923Z" fill="#90576A"/>
<path d="M1080.16 559.501V555.487L1082.78 553.434L1081.47 560.155L1080.16 559.501Z" fill="#90576A"/>
<path d="M1042.19 676.838L1043.21 674.131L1044.05 675.438L1042.19 676.838Z" fill="#90576A"/>
<path d="M1127.57 622.044L1136.62 623.538L1147.63 640.993L1132.88 645.194L1127.57 622.044Z" fill="#47FFF2"/>
<path d="M1145.29 652.101L1152.29 645.193L1154.81 647.434L1148.37 653.781L1145.29 652.101Z" fill="#47FFF2"/>
<path d="M1157.24 658.636L1159.57 651.635L1162.74 654.529L1161.34 658.636H1157.24Z" fill="#47FFF2"/>
<path d="M1237.58 829.18L1223.49 743.674L1229.46 721.178L1254.65 724.818L1272.01 779.053L1278.82 780.079L1259.41 693.174L1268.84 678.425L1294.87 681.879L1344.51 812.471H1353.28L1365.32 821.339L1386.69 826.286L1237.58 829.18Z" fill="url(#paint18_linear_5_1287)"/>
<g style="mix-blend-mode:soft-light" opacity="0.6">
<path d="M1254.65 724.818L1283.3 828.06L1254.37 828.807L1229.46 721.178L1254.65 724.818Z" fill="#ECABA4"/>
</g>
<path d="M1229.93 780.827L1229.27 780.36L1239.72 766.078L1266.04 765.611V766.451L1240.1 766.825L1229.93 780.827Z" fill="#230D32"/>
<path d="M1261.37 828.807L1252.6 801.643L1253.35 801.363L1262.12 828.621L1261.37 828.807Z" fill="#230D32"/>
<path d="M1234.69 774.012L1226.01 732.659L1226.75 732.473L1235.43 773.919L1234.69 774.012Z" fill="#230D32"/>
<path d="M1260.07 745.354L1249.8 742.554L1245.51 723.138L1246.26 722.951L1250.55 741.901L1260.35 744.608L1260.07 745.354Z" fill="#230D32"/>
<g style="mix-blend-mode:soft-light" opacity="0.2">
<path d="M1254.65 724.818L1262.03 751.609H1260.25L1266.04 782.973L1257.36 784.56L1245.88 748.528H1240.1L1247.84 784.56H1244.11L1229.46 721.178L1254.65 724.818Z" fill="#ECDEDD"/>
</g>
<g style="mix-blend-mode:multiply" opacity="0.5">
<path d="M1229.46 721.178L1244.95 788.107L1241.12 791.655L1231.79 752.916L1230.77 753.849L1242.34 827.313L1239.26 827.78L1223.49 743.674L1229.46 721.178Z" fill="#AE9AFF"/>
</g>
<g style="mix-blend-mode:multiply" opacity="0.5">
<path d="M1268.84 678.425L1295.34 810.044L1291.79 808.457L1281.43 765.984L1280.87 763.744L1279.29 765.424L1284.23 791.468L1282.09 798.282L1259.41 693.174L1268.84 678.425Z" fill="#AE9AFF"/>
</g>
<path d="M1242.06 816.299L1240.38 806.777H1242.06L1245.04 817.045L1242.06 816.299Z" fill="#90576A"/>
<path d="M922.375 812.844L927.88 811.911L957.273 811.631L922.375 812.844Z" fill="#8188FB"/>
<path d="M357.753 852.236L241.488 867.078H231.037L357.753 852.236Z" fill="#8188FB"/>
<path d="M884.958 828.527L916.963 828.994L1062.62 838.795L937.865 831.794L884.958 828.527Z" fill="#8188FB"/>
<path style="mix-blend-mode:screen" opacity="0.3" d="M947.849 827.127C946.822 828.713 945.703 829.74 944.396 830.3C941.317 831.421 937.025 832.261 931.893 832.727C930.586 825.166 930.68 816.858 931.146 809.204C937.771 809.391 947.662 812.471 953.447 807.804C952.234 816.392 950.368 823.299 947.849 827.127ZM953.447 807.804C947.662 812.471 937.771 809.391 931.146 809.204C931.986 796.322 933.666 779.706 933.946 763.184C940.571 763.651 946.542 764.304 950.555 765.611C951.861 765.891 953.914 765.518 955.034 765.331C955.687 780.36 955.22 795.762 953.447 807.804ZM955.034 765.331C953.914 765.518 951.861 765.891 950.555 765.611C946.542 764.304 940.571 763.651 933.946 763.184C933.852 756.37 933.572 748.995 933.199 742.461C940.011 742.741 946.729 745.261 953.447 745.261C954.194 751.609 954.754 758.423 955.034 765.331ZM953.447 745.261C946.729 745.261 940.011 742.741 933.199 742.461C932.639 730.419 930.68 718.098 929 708.95C935.065 710.537 940.944 712.964 946.636 716.417C949.715 723.138 951.954 733.5 953.447 745.261ZM946.636 716.417C940.944 712.964 935.065 710.537 929 708.95C927.787 703.162 926.387 696.721 924.241 691.494C929.28 694.668 933.945 698.775 938.051 703.536C941.317 707.363 944.49 711.657 946.636 716.417ZM931.893 832.727C924.428 833.381 915.377 833.194 906.232 832.167C906.232 832.167 904.553 828.34 904.459 828.06C904.366 827.967 904.179 818.912 904.179 818.912C913.137 820.032 922.188 809.017 931.146 809.204C930.68 816.858 930.586 825.166 931.893 832.727ZM931.146 809.204C922.188 809.017 913.137 820.032 904.179 818.912C925.454 818.912 888.41 784.467 888.783 767.478C897.181 768.412 924.614 762.437 933.946 763.184C933.666 779.706 931.986 796.322 931.146 809.204ZM933.946 763.184C924.614 762.437 897.181 768.412 888.783 767.478C888.97 760.944 894.848 730.419 895.128 723.792C903.153 724.538 924.334 741.994 933.199 742.461C933.572 748.995 933.852 756.37 933.946 763.184ZM933.199 742.461C924.334 741.994 903.153 724.538 895.128 723.792C895.688 711.937 907.539 717.818 907.539 705.963C914.91 706.243 922.095 707.083 929 708.95C930.68 718.098 932.639 730.419 933.199 742.461ZM929 708.95C922.095 707.083 914.91 706.243 907.539 705.963C907.539 699.055 907.259 692.147 906.699 685.333C912.577 685.706 918.549 687.947 924.241 691.494C926.387 696.721 927.787 703.162 929 708.95ZM904.459 828.06C904.553 828.34 906.232 832.167 906.232 832.167C897.368 831.234 888.597 829.367 881.132 826.66C875.44 821.339 876.373 812.191 876.373 804.91C885.144 805.75 894.848 817.699 904.179 818.912C904.179 818.912 904.366 827.967 904.459 828.06ZM904.179 818.912C894.848 817.699 885.144 805.75 876.373 804.91C876.373 794.455 878.612 777.84 880.105 762.717C888.503 761.41 880.292 766.638 888.783 767.478C888.41 784.467 925.454 818.912 904.179 818.912ZM888.783 767.478C880.292 766.638 888.503 761.41 880.105 762.717C880.758 756.37 881.412 749.275 882.345 742.834C890.183 741.434 887.01 723.045 895.128 723.792C894.848 730.419 888.97 760.944 888.783 767.478ZM895.128 723.792C887.01 723.045 890.183 741.434 882.345 742.834C884.118 731.353 885.051 717.911 887.29 707.643C893.729 705.589 900.914 705.496 907.539 705.963C907.539 717.818 895.688 711.937 895.128 723.792ZM907.539 705.963C900.914 705.496 893.729 705.589 887.29 707.643C888.503 701.762 889.063 695.134 890.369 690.28C895.222 686.453 900.914 684.96 906.699 685.333C907.259 692.147 907.539 699.055 907.539 705.963ZM881.132 826.66C876.373 824.98 872.267 822.926 869.001 820.499C865.082 817.605 862.47 814.058 861.816 810.044C861.536 807.897 861.35 805.377 861.257 802.39C865.642 803.697 870.774 804.35 876.373 804.91C876.373 812.191 875.44 821.339 881.132 826.66ZM876.373 804.91C870.774 804.35 865.642 803.697 861.257 802.39C861.07 792.962 862.096 779.706 864.149 765.518C869.468 764.678 874.787 763.651 880.105 762.717C878.612 777.84 876.373 794.455 876.373 804.91ZM880.105 762.717C874.787 763.651 869.468 764.678 864.149 765.518C865.082 759.264 866.109 752.823 867.415 746.475C872.36 744.981 877.399 743.768 882.345 742.834C881.412 749.275 880.758 756.37 880.105 762.717ZM882.345 742.834C877.399 743.768 872.36 744.981 867.415 746.475C869.748 735.087 872.64 723.885 876 714.457C879.359 711.19 883.185 709.043 887.29 707.643C885.051 717.911 884.118 731.353 882.345 742.834ZM887.29 707.643C883.185 709.043 879.359 711.19 876 714.457C878.052 708.95 880.199 704.096 882.438 700.082C883.371 698.464 884.304 697.032 885.237 695.788C886.855 693.61 888.565 691.774 890.369 690.28C889.063 695.134 888.503 701.762 887.29 707.643Z" fill="url(#paint19_linear_5_1287)"/>
</g>
</g>
</g>
<defs>
<linearGradient id="paint0_linear_5_1287" x1="11608.5" y1="4703.7" x2="11370.3" y2="4668.68" gradientUnits="userSpaceOnUse">
<stop stop-color="#E8DDFF"/>
<stop offset="1" stop-color="#AA8AD8"/>
</linearGradient>
<radialGradient id="paint1_radial_5_1287" cx="0" cy="0" r="1" gradientUnits="userSpaceOnUse" gradientTransform="translate(875007 184824) scale(638894 153231)">
<stop stop-color="#B5EFD9"/>
<stop offset="1" stop-color="#637AD1"/>
</radialGradient>
<radialGradient id="paint2_radial_5_1287" cx="0" cy="0" r="1" gradientUnits="userSpaceOnUse" gradientTransform="translate(594576 344544) scale(411196 270904)">
<stop stop-color="#B5EFD9"/>
<stop offset="1" stop-color="#637AD1"/>
</radialGradient>
<radialGradient id="paint3_radial_5_1287" cx="0" cy="0" r="1" gradientUnits="userSpaceOnUse" gradientTransform="translate(273359 290622) scale(188111 227256)">
<stop stop-color="#B5EFD9"/>
<stop offset="1" stop-color="#637AD1"/>
</radialGradient>
<radialGradient id="paint4_radial_5_1287" cx="0" cy="0" r="1" gradientUnits="userSpaceOnUse" gradientTransform="translate(224168 189031) scale(157592 151910)">
<stop stop-color="#B5EFD9"/>
<stop offset="1" stop-color="#637AD1"/>
</radialGradient>
<linearGradient id="paint5_linear_5_1287" x1="222402" y1="219415" x2="222402" y2="130056" gradientUnits="userSpaceOnUse">
<stop stop-color="#733152"/>
<stop offset="1" stop-color="#4F1D4F"/>
</linearGradient>
<linearGradient id="paint6_linear_5_1287" x1="-37069.1" y1="383942" x2="-37069.1" y2="145790" gradientUnits="userSpaceOnUse">
<stop stop-color="#5C214A"/>
<stop offset="1" stop-color="#63163D"/>
</linearGradient>
<linearGradient id="paint7_linear_5_1287" x1="-555.375" y1="116955" x2="-555.375" y2="66971.3" gradientUnits="userSpaceOnUse">
<stop/>
<stop offset="1" stop-color="#025486"/>
</linearGradient>
<linearGradient id="paint8_linear_5_1287" x1="47896.4" y1="78788.9" x2="47896.4" y2="49544.2" gradientUnits="userSpaceOnUse">
<stop stop-color="#5C214A"/>
<stop offset="1" stop-color="#4F1D4F"/>
</linearGradient>
<linearGradient id="paint9_linear_5_1287" x1="13222.8" y1="106513" x2="13222.8" y2="56658.7" gradientUnits="userSpaceOnUse">
<stop stop-color="#3B1436"/>
<stop offset="1" stop-color="#311134"/>
</linearGradient>
<linearGradient id="paint10_linear_5_1287" x1="91050.4" y1="62989.6" x2="91050.4" y2="47957.4" gradientUnits="userSpaceOnUse">
<stop stop-color="#3B1B36"/>
<stop offset="1" stop-color="#311134"/>
</linearGradient>
<linearGradient id="paint11_linear_5_1287" x1="22279" y1="22290.6" x2="22279" y2="19919.4" gradientUnits="userSpaceOnUse">
<stop stop-color="#3B1B36"/>
<stop offset="1" stop-color="#311134"/>
</linearGradient>
<linearGradient id="paint12_linear_5_1287" x1="17905.8" y1="4382.04" x2="18301.7" y2="4382.04" gradientUnits="userSpaceOnUse">
<stop stop-color="#3B1436"/>
<stop offset="1" stop-color="#311134"/>
</linearGradient>
<linearGradient id="paint13_linear_5_1287" x1="9710.35" y1="39252.7" x2="9710.35" y2="33675" gradientUnits="userSpaceOnUse">
<stop stop-color="#3B1B36"/>
<stop offset="1" stop-color="#311134"/>
</linearGradient>
<linearGradient id="paint14_linear_5_1287" x1="6317.07" y1="31614" x2="6317.07" y2="28623.5" gradientUnits="userSpaceOnUse">
<stop stop-color="#5C214A"/>
<stop offset="1" stop-color="#4F1D4F"/>
</linearGradient>
<linearGradient id="paint15_linear_5_1287" x1="76759.1" y1="50430.9" x2="76759.1" y2="45277.7" gradientUnits="userSpaceOnUse">
<stop stop-color="#733152"/>
<stop offset="1" stop-color="#4F1D4F"/>
</linearGradient>
<linearGradient id="paint16_linear_5_1287" x1="12895.3" y1="194972" x2="12895.3" y2="140845" gradientUnits="userSpaceOnUse">
<stop stop-color="#3B1436"/>
<stop offset="1" stop-color="#311134"/>
</linearGradient>
<linearGradient id="paint17_linear_5_1287" x1="318097" y1="284547" x2="318097" y2="161545" gradientUnits="userSpaceOnUse">
<stop stop-color="#3B1B36"/>
<stop offset="1" stop-color="#311134"/>
</linearGradient>
<linearGradient id="paint18_linear_5_1287" x1="217317" y1="127162" x2="217317" y2="102815" gradientUnits="userSpaceOnUse">
<stop stop-color="#3B1B36"/>
<stop offset="1" stop-color="#311134"/>
</linearGradient>
<linearGradient id="paint19_linear_5_1287" x1="96390.1" y1="124361" x2="91932.7" y2="123823" gradientUnits="userSpaceOnUse">
<stop/>
<stop offset="1" stop-color="#8DF9C2"/>
</linearGradient>
<clipPath id="clip0_5_1287">
<rect width="1367" height="972" fill="white"/>
</clipPath>
</defs>
</svg>
