<svg width="858" height="825" viewBox="0 0 858 825" fill="none" xmlns="http://www.w3.org/2000/svg">
<path style="mix-blend-mode:screen" opacity="0.3" fill-rule="evenodd" clip-rule="evenodd" d="M161.806 824.867C161.806 824.867 -26.7005 753.638 3.21881 605.135C32.9907 456.779 129.823 420.796 295.337 600.711C460.999 780.625 579.202 392.186 461.736 425.81C344.417 459.433 242.721 335.115 201.748 226.871C160.627 118.627 416.488 50.6433 494.456 118.333C572.275 186.022 532.039 141.338 589.077 47.6939C646.115 -45.8028 787.753 18.3471 787.753 69.2247C787.753 120.25 700.796 127.623 700.796 127.623C961.374 160.362 844.792 384.665 721.872 383.338C598.952 381.863 447.882 231.443 630.05 449.11C812.072 666.63 432.701 767.353 355.913 676.658C279.125 586.111 112.432 615.753 84.281 688.603C56.1303 761.454 161.806 824.867 161.806 824.867ZM315.529 145.91C220.318 169.21 238.447 483.913 436.238 377.734C617.817 280.256 460.999 110.222 315.529 145.91ZM690.479 12.5957C643.315 -5.83816 531.597 72.1741 581.266 139.273C624.302 197.377 828.579 66.4227 690.479 12.5957ZM792.912 320.22C806.029 343.226 861.888 305.473 837.127 277.159C814.725 251.499 779.647 297.215 792.912 320.22ZM785.542 328.921C818.852 254.448 601.605 182.63 562.4 269.785C523.343 356.941 750.022 408.408 785.542 328.921ZM600.279 232.18C644.2 193.985 521.427 133.375 490.624 146.942C453.188 163.311 536.018 287.777 600.279 232.18ZM450.24 680.787C483.107 729.895 671.466 646.574 596.152 551.455C553.115 497.186 410.004 620.472 450.24 680.787ZM315.529 634.039C324.225 626.96 269.84 573.576 244.931 585.816C220.171 597.909 302.117 644.952 315.529 634.039ZM240.215 587.733C262.913 545.851 122.749 476.245 77.2066 542.459C31.6644 608.674 204.695 653.653 240.215 587.733ZM54.6565 679.46C89.2921 708.512 125.696 620.472 95.0402 602.628C47.8768 575.051 20.0208 650.261 54.6565 679.46ZM66.4473 592.895C87.2287 573.871 38.2967 546.589 25.032 571.364C11.9146 596.286 45.6659 611.918 66.4473 592.895Z" fill="url(#paint0_linear_210_136)"/>
<g style="mix-blend-mode:color-dodge" opacity="0.5">
<path fill-rule="evenodd" clip-rule="evenodd" d="M161.806 824.867C161.806 824.867 -26.7005 753.638 3.21881 605.135C32.9907 456.779 129.823 420.796 295.337 600.711C460.999 780.625 579.202 392.186 461.736 425.81C344.417 459.433 242.721 335.115 201.748 226.871C160.627 118.627 416.488 50.6433 494.456 118.333C572.275 186.022 532.039 141.338 589.077 47.6939C646.115 -45.8028 787.753 18.3471 787.753 69.2247C787.753 120.25 700.796 127.623 700.796 127.623C961.374 160.362 844.792 384.665 721.872 383.338C598.952 381.863 447.882 231.443 630.05 449.11C812.072 666.63 432.701 767.353 355.913 676.658C279.125 586.111 112.432 615.753 84.281 688.603C56.1303 761.454 161.806 824.867 161.806 824.867ZM315.529 145.91C220.318 169.21 238.447 483.913 436.238 377.734C617.817 280.256 460.999 110.222 315.529 145.91ZM690.479 12.5957C643.315 -5.83816 531.597 72.1741 581.266 139.273C624.302 197.377 828.579 66.4227 690.479 12.5957ZM792.912 320.22C806.029 343.226 861.888 305.473 837.127 277.159C814.725 251.499 779.647 297.215 792.912 320.22ZM785.542 328.921C818.852 254.448 601.605 182.63 562.4 269.785C523.343 356.941 750.022 408.408 785.542 328.921ZM600.279 232.18C644.2 193.985 521.427 133.375 490.624 146.942C453.188 163.311 536.018 287.777 600.279 232.18ZM450.24 680.787C483.107 729.895 671.466 646.574 596.152 551.455C553.115 497.186 410.004 620.472 450.24 680.787ZM315.529 634.039C324.225 626.96 269.84 573.576 244.931 585.816C220.171 597.909 302.117 644.952 315.529 634.039ZM240.215 587.733C262.913 545.851 122.749 476.245 77.2066 542.459C31.6644 608.674 204.695 653.653 240.215 587.733ZM54.6565 679.46C89.2921 708.512 125.696 620.472 95.0402 602.628C47.8768 575.051 20.0208 650.261 54.6565 679.46ZM66.4473 592.895C87.2287 573.871 38.2967 546.589 25.032 571.364C11.9146 596.286 45.6659 611.918 66.4473 592.895Z" fill="url(#paint1_radial_210_136)"/>
</g>
<defs>
<linearGradient id="paint0_linear_210_136" x1="1.65706e+06" y1="177429" x2="1.46187e+06" y2="802233" gradientUnits="userSpaceOnUse">
<stop stop-color="#FF00FF"/>
<stop offset="1"/>
</linearGradient>
<radialGradient id="paint1_radial_210_136" cx="0" cy="0" r="1" gradientUnits="userSpaceOnUse" gradientTransform="translate(632082 534761) scale(461566 444108)">
<stop stop-color="#B5EFD9"/>
<stop offset="1" stop-color="#637AD1"/>
</radialGradient>
</defs>
</svg>
