<svg width="543" height="724" viewBox="0 0 543 724" fill="none" xmlns="http://www.w3.org/2000/svg">
<g id="tower">
<path id="Vector" d="M61.4268 656.471L72.1575 655.537L74.2103 678.22L99.6841 664.592L104.63 664.872L113.028 615.211L223.694 607.277L241.05 597.569L243.756 556.496L247.301 560.417L253.46 578.526L254.02 617.452L336.04 622.492L340.799 603.916L354.889 719.106L52.3757 723.4L61.4268 656.471Z" fill="url(#paint0_linear_5_2010)"/>
<path  d="M284.066 228.983L277.627 231.876L264.377 222.822L260.552 187.07L257.379 91.6695L278.84 59.9316L284.066 228.983Z" fill="#501634"/>
<path  d="M251.748 103L270.876 110.654L274.049 229.392L264.531 222.017L251.748 103Z" fill="#452256"/>
<path  d="M92 250.954L102.731 130.91L119.34 124.096L109.356 209.601L92 250.954Z" fill="#452256"/>
<path  d="M99.6841 664.592L104.63 664.872L113.028 615.212L223.694 607.277L241.05 597.569L242.636 556.217L247.301 560.417L253.46 578.527L254.02 617.452L318.964 621.466L326.336 611.385L340.799 603.917L344.251 631.734L336.04 653.017L331.468 637.802L264.471 653.204V683.075H249.541V663.846L210.164 674.3L198.407 685.129L130.757 686.436L74.2103 678.221L99.6841 664.592Z" fill="#452256"/>
<path  d="M340.799 603.917L342.012 613.345L339.212 615.212L326.336 611.385L340.799 603.917Z" fill="#367AC9"/>
<path  d="M248.048 560.231L253.46 578.527L249.168 578.993L243.756 573.113L242.636 555.097L248.048 560.231Z" fill="#367AC9"/>
<path  d="M264.471 653.204L230.412 633.041L268.576 628.28L331.468 637.802L264.471 653.204Z" fill="#367AC9"/>
<path  d="M318.964 621.466L324.656 625.2H259.432L254.02 617.452L318.964 621.466Z" fill="#367AC9"/>
<path   d="M223.694 607.277L242.636 609.518L214.363 618.572L193.555 621.279L218.095 625.2L132.25 638.455L121.705 636.588L113.028 615.212L223.694 607.277Z" fill="#367AC9"/>
<path   d="M99.6841 664.592L169.854 675.14L147.739 678.22H74.2103L99.6841 664.592Z" fill="#367AC9"/>
<path   d="M72.1575 655.537L72.4375 658.711L61.4268 656.471L72.1575 655.537Z" fill="#367AC9"/>
<path   d="M210.164 674.301L141.581 664.592L249.541 663.846L210.164 674.301Z" fill="#367AC9"/>
<path   d="M242.636 101.804L235.918 98.2571L234.425 81.4547L242.636 71.6533V101.804Z" fill="url(#paint1_linear_5_2010)"/>
<g   style="mix-blend-mode:soft-light">
<path d="M249.541 663.846V683.075H264.471V653.204L331.468 637.802L336.04 653.017L344.251 631.734L354.889 719.107L212.31 721.067L210.164 674.3L249.541 663.846Z" fill="#ECABA4"/>
</g>
<path   d="M73.4639 481.819L67.8652 464.923L72.4375 423.757L77.5695 416.383L73.4639 481.819Z" fill="url(#paint2_linear_5_2010)"/>
<path   d="M325.962 347.68L342.012 361.682L351.996 400.234L348.823 419.277L334.547 444.294L325.962 347.68Z" fill="url(#paint3_linear_5_2010)"/>
<g   style="mix-blend-mode:soft-light">
<path d="M342.012 361.682L351.996 401.821L349.57 406.022L330.068 382.031L327.549 349.08L342.012 361.682Z" fill="#ECABA4"/>
</g>
<path   d="M346.117 454.002C346.117 454.002 357.781 509.45 374.67 514.958C391.56 520.465 405.183 431.226 405.183 431.226L405.463 433.279C405.463 433.279 392.679 518.598 374.95 516.078C357.315 513.557 343.878 457.829 343.878 457.829L346.117 454.002Z" fill="url(#paint4_linear_5_2010)"/>
<path   d="M333.52 592.901L294.423 597.569L310.379 574.045L314.112 566.018H319.897L333.52 592.901Z" fill="#479CF2"/>
<path   d="M70.5712 463.43C70.5712 463.43 49.5763 531.199 33.4336 535.12C17.2908 538.947 0.588287 488.727 0.588287 488.727L1.61468 487.326C1.61468 487.326 18.6905 546.788 36.8861 531.386C53.8686 517.104 69.1716 457.549 69.1716 457.549L70.5712 463.43Z" fill="url(#paint5_linear_5_2010)"/>
<path   d="M109.948 586.367L144.287 567.044L174.053 569.378L206.245 609.517H286.305L310.379 574.045L314.112 566.018L315.885 568.818L328.015 589.541L329.695 637.521L320.27 636.121L240.583 639.108L238.344 663.845L165.935 668.046L164.162 674.3H81.5819L81.3953 634.721L92.9658 595.609L109.948 586.367Z" fill="#452256"/>
<g class="light">
<path d="M109.948 586.367L144.287 567.044L174.053 569.378L206.245 609.517H286.305L310.379 574.045L314.112 566.018L315.885 568.818L328.015 589.541L329.695 637.521L320.27 636.121L240.583 639.108L238.344 663.845L165.935 668.046L164.162 674.3H81.5819L81.3953 634.721L92.9658 595.609L109.948 586.367Z" fill="#47FFF2"/>
</g>
<path   d="M65.2525 617.452L87.1805 260.961L109.202 208.406L126.931 56.0645L185.996 0.243164L230.972 41.7825L235.918 98.2573L242.636 101.804V71.6535L248.048 68.4797L264.377 220.822L277.627 229.876L284.066 226.982L278.84 57.9315L300.582 63.4389L347.237 586.368L333.52 592.902L319.897 566.018H314.112L310.379 574.046L286.305 609.518L183.29 610.264L165.935 602.983L157.07 658.711L160.056 661.138L164.162 685.502L147.273 687.089L151.938 638.455L154.457 576.94L134.769 580.58L126.278 664.592L124.318 685.502L120.399 684.942L124.318 661.605L124.598 581.234L130.943 578.993L91.6594 592.902L74.2103 644.896L65.2525 649.377V617.452Z" fill="url(#paint6_linear_5_2010)"/>
<g   style="mix-blend-mode:soft-light">
<path d="M230.972 41.7825L235.918 98.2573L242.636 101.804V71.6535L248.048 68.4797L264.377 220.822L277.627 229.876L284.066 226.982L278.84 57.9315L300.582 63.4389L347.237 586.368L333.52 592.902L319.897 566.018H314.112L310.379 574.046L286.305 609.518H206.245L203.819 311.555L198.407 322.663V508.05L185.996 478.179V318.276L184.13 302.873L185.996 0.243164L230.972 41.7825Z" fill="#ECABA4"/>
</g>
<g   style="mix-blend-mode:soft-light">
<path d="M185.996 610.264L185.903 513.837L185.996 494.234L202.419 535.12L200.739 609.798L185.996 610.264Z" fill="#ECABA4"/>
</g>
<g   style="mix-blend-mode:soft-light">
<path d="M187.769 721.067L183.01 696.796V689.235L201.299 702.024L206.245 721.347L187.769 721.067Z" fill="#ECABA4"/>
</g>
<path   d="M285.839 609.611L263.911 220.915L264.844 220.821L286.772 609.517L285.839 609.611Z" fill="#471737"/>
<path   d="M288.918 441.12V440.653L277.161 229.969L278.094 229.876L289.851 440.093L333.52 439.159V440.093L288.918 441.12Z" fill="#471737"/>
<path   d="M313.645 566.018L308.7 439.627H309.633L314.578 565.925L313.645 566.018Z" fill="#471737"/>
<path   d="M315.698 439.626L312.059 335.731H284.066V334.798H312.992V335.265L316.724 439.626H315.698Z" fill="#471737"/>
<path   d="M282.013 308.661V307.634L322.323 306.421V307.448L282.013 308.661Z" fill="#471737"/>
<path   d="M308.513 153.519L281.92 151.372L282.013 150.438L308.607 152.492L308.513 153.519Z" fill="#471737"/>
<path   d="M304.501 105.258L280.054 101.244L280.24 100.311L304.687 104.231L304.501 105.258Z" fill="#471737"/>
<path   d="M233.958 608.584L230.226 437.76H231.252L234.891 608.584H233.958Z" fill="#471737"/>
<path   d="M283.039 555.003L256.912 553.696V553.229L254.766 520.558L280.893 519.531V520.465L255.793 521.492L257.845 552.763L283.039 554.07V555.003Z" fill="#471737"/>
<path   d="M250.567 316.502L203.725 312.115L203.819 311.088L250.661 315.569L250.567 316.502Z" fill="#471737"/>
<path   d="M223.974 313.515L211.843 23.2061H212.776L224.907 313.515H223.974Z" fill="#471737"/>
<path   d="M219.868 206.259L184.69 201.405L184.877 200.472L219.961 205.326L219.868 206.259Z" fill="#471737"/>
<path   d="M215.296 95.6434L184.13 92.4696L184.224 91.5361L215.389 94.6166L215.296 95.6434Z" fill="#471737"/>
<path   d="M119.653 581.233H118.626L139.808 43.3691H140.741L119.653 581.233Z" fill="#361737"/>
<path   d="M129.823 319.209L129.543 318.275L184.037 302.406L184.317 303.34L129.823 319.209Z" fill="#361737"/>
<path   d="M135.889 200.566L135.609 199.632L184.69 184.137L185.063 185.07L135.889 200.566Z" fill="#361737"/>
<path   d="M148.019 313.515H146.993L147.552 262.547L131.69 266.561L131.41 265.628L148.486 261.334L148.019 313.515Z" fill="#361737"/>
<path   d="M137.008 133.355L136.542 132.515L183.944 104.604L184.41 105.445L137.008 133.355Z" fill="#361737"/>
<path   d="M265.217 720.414L264.004 683.075L264.937 682.981L266.15 720.32L265.217 720.414Z" fill="#361737"/>
<path   d="M313.459 720.414L310.846 642.469L311.779 642.376L314.485 720.321L313.459 720.414Z" fill="#361737"/>
<path   d="M313.552 694.743L313.459 693.81L351.903 689.049L352.089 689.982L313.552 694.743Z" fill="#361737"/>
<path   d="M349.01 671.686H311.406V670.753H349.01V671.686Z" fill="#361737"/>
<path   d="M292.184 719.853H291.157V709.212H265.31V708.278H292.184V719.853Z" fill="#361737"/>
<path   d="M278.934 708.745H278.001V650.87H278.934V708.745Z" fill="#361737"/>
<path   d="M210.257 692.316L210.164 691.383L265.03 688.676L265.124 689.703L210.257 692.316Z" fill="#361737"/>
<path   d="M319.431 274.962H303.941V274.496L301.515 212.887H313.925V213.82H302.541L304.874 273.936H319.431V274.962Z" fill="#361737"/>
<path   d="M279.494 488.447L279.4 487.514L310.939 485.273L311.033 486.207L279.494 488.447Z" fill="#361737"/>
<path   d="M313.645 551.642L313.459 550.616L343.598 545.948L343.691 546.882L313.645 551.642Z" fill="#361737"/>
<path   d="M283.039 609.611L287.798 607.277L287.238 620.159L283.879 629.587H277.627L272.869 609.518L283.039 609.611Z" fill="url(#paint7_linear_5_2010)"/>
<path   d="M269.136 609.518L265.684 639.295L255.233 642.376L244.689 618.479L242.636 609.518H269.136Z" fill="url(#paint8_linear_5_2010)"/>
<path   d="M119.186 583.193L117.6 620.159L113.028 618.478L109.948 611.944L105.469 588.047L119.186 583.193Z" fill="url(#paint9_linear_5_2010)"/>
<g   style="mix-blend-mode:soft-light">
<path d="M265.684 639.295L256.726 640.695L250.474 625.2L249.728 613.438L268.856 611.944L265.684 639.295Z" fill="#ECABA4"/>
</g>
<g   style="mix-blend-mode:soft-light">
<path d="M287.238 620.159L283.879 629.587H278.467V611.945L287.705 609.518L287.238 620.159Z" fill="#ECABA4"/>
</g>
<g   style="mix-blend-mode:multiply" opacity="0.5">
<path d="M185.996 0.243164L184.13 262.081L177.318 266.095L172.933 12.5649L185.996 0.243164Z" fill="#AE9AFF"/>
</g>
<g   style="mix-blend-mode:multiply" opacity="0.5">
<path d="M159.683 597.569V569.845L130.943 578.993L136.822 438.88L148.019 432.159V531.48L156.977 522.332L160.429 354.308L184.13 346.653L183.29 610.265L159.683 597.569Z" fill="#AE9AFF"/>
</g>
<g   style="mix-blend-mode:multiply" opacity="0.5">
<path d="M100.524 229.223L91.6594 566.951L83.1682 570.125L87.1805 260.961L100.524 229.223Z" fill="#AE9AFF"/>
</g>
<g   style="mix-blend-mode:soft-light" opacity="0.2">
<path d="M250.754 318.462L255.233 438.226H234.425V361.215L221.921 364.762L224.44 427.398H212.31L209.884 312.114L250.754 318.462Z" fill="#ECDEDD"/>
</g>
<g   style="mix-blend-mode:soft-light" opacity="0.2">
<path d="M230.972 41.7827L235.918 98.2575L242.636 97.6041V68.4799H248.048L264.377 220.822L273.895 228.196L284.066 370.737L255.233 368.123L248.701 174.242L238.53 171.908L242.636 295.873L230.785 294.286L217.629 29.4609L230.972 41.7827Z" fill="#ECDEDD"/>
</g>
<g   style="mix-blend-mode:soft-light" opacity="0.2">
<path d="M300.582 63.4391L328.575 371.203L291.811 369.71L278.84 57.9316L300.582 63.4391Z" fill="#ECDEDD"/>
</g>
<path   d="M314.112 566.018L313.272 584.874L314.485 627.16L317.284 641.068L311.313 642.375L313.925 624.733L310.379 574.045L314.112 566.018Z" fill="url(#paint10_linear_5_2010)"/>
<path   d="M206.245 609.518L205.592 661.605L203.819 660.485V649.377L202.419 644.896V610.171L206.245 609.518Z" fill="url(#paint11_linear_5_2010)"/>
<path   d="M203.819 673.367L204.285 669.913L205.592 669.073L206.245 677.941L202.419 681.488L203.819 673.367Z" fill="url(#paint12_linear_5_2010)"/>
<path   d="M72.4374 430.665C72.4374 430.665 21.3965 427.678 12.0655 389.406C2.64109 351.227 11.4123 292.232 11.4123 292.232L13.745 275.616C13.745 275.616 4.13406 347.68 12.0655 386.139C19.9035 424.691 72.4374 427.865 72.4374 427.865V430.665Z" fill="url(#paint13_linear_5_2010)"/>
<path   d="M340.519 463.71C340.519 463.71 356.568 585.061 411.995 622.96C467.421 660.858 542.63 589.168 542.63 589.168L537.124 595.422L534.418 603.543C534.418 603.543 451.932 664.592 407.049 625.76C355.448 580.953 339.772 465.11 339.772 465.11L340.519 463.71Z" fill="url(#paint14_linear_5_2010)"/>
<g   style="mix-blend-mode:soft-light" opacity="0.2">
<path d="M217.629 610.078L221.548 488.26L242.636 481.819L241.05 597.569H248.048L250.847 514.957L280.333 504.596L286.305 609.518L217.629 610.078Z" fill="#ECDEDD"/>
</g>
<g   style="mix-blend-mode:soft-light" opacity="0.2">
<path d="M286.305 719.854L290.131 647.23L318.777 640.696L324.656 708.745H328.575L324.656 639.949L331.468 637.802L336.04 653.017L344.251 631.734L354.889 719.107L286.305 719.854Z" fill="#ECDEDD"/>
</g>
<g   style="mix-blend-mode:soft-light" opacity="0.2">
<path d="M275.295 650.684L276.788 700.531L268.856 701.651L264.471 653.204L275.295 650.684Z" fill="#ECDEDD"/>
</g>
<g   style="mix-blend-mode:soft-light" opacity="0.2">
<path d="M341.265 519.998L312.526 524.479L310.659 478.459L337.159 473.045L341.265 519.998Z" fill="#ECDEDD"/>
</g>
<g   style="mix-blend-mode:soft-light" opacity="0.2">
<path d="M336.413 464.923L310.193 466.417L309.726 455.122L335.2 451.388L336.413 464.923Z" fill="#ECDEDD"/>
</g>
<g   style="mix-blend-mode:soft-light" opacity="0.2">
<path d="M212.31 721.067L210.444 679.808H223.414L224.814 720.32L212.31 721.067Z" fill="#ECDEDD"/>
</g>
<g   style="mix-blend-mode:soft-light" opacity="0.2">
<path d="M185.996 0.243164L194.208 7.71091V116.647H202.326L206.245 305.861L184.317 303.34L185.996 0.243164Z" fill="#ECDEDD"/>
</g>
<g   style="mix-blend-mode:soft-light" opacity="0.2">
<path d="M185.996 367.843L198.407 370.737V464.923H185.996V367.843Z" fill="#ECDEDD"/>
</g>
<path   d="M177.318 574.046V551.643L182.637 535.587L180.025 574.046H177.318Z" fill="#573E54"/>
<path   d="M177.785 581.794L182.637 589.542L180.025 592.902L177.785 581.794Z" fill="#90576A"/>
<path   d="M161.176 566.018L155.764 561.538L157.07 557.804L161.176 566.018Z" fill="#90576A"/>
<path   d="M150.818 515.984V499.555L153.991 494.234L152.405 515.517L150.818 515.984Z" fill="#90576A"/>
<path   d="M140.741 385.112L145.22 373.443V378.111L141.207 387.165L140.741 385.112Z" fill="#90576A"/>
<path   d="M138.688 369.337V361.589L140.741 358.415L138.688 369.337Z" fill="#90576A"/>
<path   d="M101.55 329.384L97.7246 298.393L102.577 288.592L101.55 329.384Z" fill="#573E54"/>
<path   d="M105.469 287.471L108.642 282.99L111.441 285.231L107.056 290.645L105.469 287.471Z" fill="#90576A"/>
<path   d="M158.003 146.705V139.984L160.336 138.677L158.003 146.705Z" fill="#90576A"/>
<path   d="M151.938 140.917L150.072 133.916L151.938 133.169L154.364 140.917H151.938Z" fill="#90576A"/>
<path   d="M154.364 302.5L159.123 290.645L160.429 296.619L156.977 304.833L154.364 302.5Z" fill="#90576A"/>
<path   d="M109.948 539.414L105.469 522.331L111.441 519.251L113.028 535.587L109.948 539.414Z" fill="#573E54"/>
<path   d="M221.548 531.946L227.426 521.024L227.986 526.439L221.548 535.12V531.946Z" fill="#90576A"/>
<path   d="M244.409 489.847V473.045L246.928 467.631L244.409 489.847Z" fill="#90576A"/>
<path   d="M260.552 473.885L255.793 460.816L258.126 458.949L260.552 473.885Z" fill="#A9615E"/>
<path   d="M311.872 317.435L302.168 313.794L306.927 312.114L311.872 317.435Z" fill="#90576A"/>
<path   d="M293.024 319.676H294.983L293.024 330.317V319.676Z" fill="#A9615E"/>
<path   d="M299.929 563.778L298.062 555.096L300.395 548.469V558.177L299.929 563.778Z" fill="#90576A"/>
<path   d="M301.795 669.259L300.022 660.578L302.261 653.95V663.658L301.795 669.259Z" fill="#90576A"/>
<path   d="M294.423 568.258L289.291 563.777L292.557 561.537L295.17 563.777L294.423 568.258Z" fill="#90576A"/>
<path   d="M295.543 659.272L290.411 654.791L293.677 652.551L296.29 654.791L295.543 659.272Z" fill="#90576A"/>
<path  d="M246.648 714.346L241.516 709.865L244.782 707.625L247.395 709.865L246.648 714.346Z" fill="#90576A"/>
<path  d="M203.632 277.949L204.285 270.295L209.884 273.842L206.245 288.591L203.632 277.949Z" fill="#A9615E"/>
<path  d="M198.407 119.447L196.167 110.952L209.884 117.766L198.407 119.447Z" fill="#90576A"/>
<path  d="M129.73 711.079L126.278 705.665L129.73 700.718L140.741 708.746L129.73 711.079Z" fill="#90576A"/>
<path  d="M152.405 711.079V708.278L160.149 708.745L153.991 714.066L152.405 711.079Z" fill="#90576A"/>
<path  d="M272.869 651.243L264.471 659.271L260.552 650.87L272.869 651.243Z" fill="url(#paint15_linear_5_2010)"/>
<path  d="M205.592 673.647L214.829 673.087L210.164 681.488L206.245 677.941L205.592 673.647Z" fill="url(#paint16_linear_5_2010)"/>
<g class="light">
<path  d="M284.066 226.983L277.627 229.876L264.377 220.822L260.552 185.07L257.379 89.6695L278.84 57.9316L284.066 226.983Z" fill="#367AC9"/>
<path  d="M91.6594 590.568L109.948 586.367L74.2103 644.896L91.6594 590.568Z" fill="#479CF2"/>
<path  d="M157.817 658.058L160.056 661.139L163.415 681.021L155.577 674.487L154.364 658.711L156.23 656.565L159.683 597.569L165.935 602.983L157.817 658.058Z" fill="#367AC9"/>
<path  d="M255.793 438.787L206.245 437.666V436.733L254.766 437.76L242.076 101.805H243.102L255.793 438.787Z" fill="#367AC9"/>
<path  d="M253.087 381.285L204.285 379.045L204.379 378.111L253.087 380.352V381.285Z" fill="#367AC9"/>
<path  d="M117.6 620.159L117.786 615.678L113.028 610.824L110.508 589.541L118.999 586.367L117.6 620.159Z" fill="#479CF2"/>
<path  d="M251.594 101.805L270.722 109.459L273.895 228.196L264.377 220.822L251.594 101.805Z" fill="#47FFF2"/>
<path  d="M91.8461 249.759L102.577 129.715L119.186 122.9L109.202 208.406L91.8461 249.759Z" fill="#47FFF2"/>
<path  d="M234.425 438.226L233.585 379.885L253.087 380.818L255.233 438.226H234.425Z" fill="#367AC9"/>
<path  d="M233.585 386.792L244.409 387.725L246.928 437.946L234.425 438.226L233.585 386.792Z" fill="#47FFF2"/>
<path  d="M266.803 250.599L280.52 486.859L309.726 485.366L308.7 441.119H288.918L286.772 408.915L287.332 406.394L288.078 407.608L289.851 440.093L309.633 439.626L313.645 541.094L312.526 537.267L310.566 486.859L279.96 488.446L284.439 568.258L283.413 566.297L280.893 520.464L255.793 521.491L254.766 520.558L280.893 519.531L265.217 248.358L266.803 250.599Z" fill="#367AC9"/>
<path  d="M265.684 249.759L278.84 258.533L287.612 408.915H275.575L265.684 249.759Z" fill="#367AC9"/>
<path  d="M266.803 258.813L269.323 263.387L277.534 408.915H275.575L266.803 258.813Z" fill="#47FFF2"/>
<path  d="M265.684 249.76L184.69 184.137L109.202 208.407V204.02L184.783 175.549L278.84 258.534L265.684 249.76Z" fill="#479CF2"/>
<path  d="M251.221 343.666L252.154 344.039L253.087 364.482L252.154 367.843L251.221 343.666Z" fill="#47FFF2"/>
<path  d="M231.719 222.221L234.238 219.234L240.863 225.022L239.09 228.196L231.719 222.221Z" fill="#47FFF2"/>
<path  d="M147.459 189.644L148.952 195.711L128.144 202.339L125.251 197.951L147.459 189.644Z" fill="#47FFF2"/>
<path  d="M152.218 194.405L151.471 188.057L157.163 185.91V193.005L152.218 194.405Z" fill="#47FFF2"/>
</g>
<path  d="M32.5005 414.05V527.559L28.8614 450.455L28.3948 433.186L27.2751 435.053V486.953L24.849 409.009L32.5005 414.05Z" fill="#290823"/>
<path  d="M45.284 421.704L43.4178 478.739L41.5516 471.831L40.0587 419.184L45.284 421.704Z" fill="#290823"/>
<path  d="M53.9619 424.411V450.361L51.256 423.664L53.9619 424.411Z" fill="#290823"/>
<path  d="M375.883 515.33H378.776L376.91 544.454V529.239L375.883 528.025V517.851L374.67 518.317L373.644 531.759V520.091L372.058 521.211L370.938 542.027L370.471 542.774L368.979 558.643V511.97L375.883 515.33Z" fill="#290823"/>
<path  d="M390.44 494.515L388.947 528.4V498.622L390.44 494.515Z" fill="#290823"/>
<path  d="M21.0233 407.329L22.5163 472.298L19.6236 428.518V403.128L21.0233 407.329Z" fill="#290823"/>
</g>
<defs>
<linearGradient id="paint0_linear_5_2010" x1="208393" y1="134013" x2="208393" y2="104171" gradientUnits="userSpaceOnUse">
<stop stop-color="#3B1436"/>
<stop offset="1" stop-color="#311134"/>
</linearGradient>
<linearGradient id="paint1_linear_5_2010" x1="6110.45" y1="4102.84" x2="6110.45" y2="3128.97" gradientUnits="userSpaceOnUse">
<stop stop-color="#3B1436"/>
<stop offset="1" stop-color="#311134"/>
</linearGradient>
<linearGradient id="paint2_linear_5_2010" x1="3590.53" y1="35804.2" x2="3590.53" y2="31217.1" gradientUnits="userSpaceOnUse">
<stop stop-color="#3B1436"/>
<stop offset="1" stop-color="#5E1B34"/>
</linearGradient>
<linearGradient id="paint3_linear_5_2010" x1="18320.4" y1="48712.6" x2="18320.4" y2="38713.1" gradientUnits="userSpaceOnUse">
<stop stop-color="#3B1436"/>
<stop offset="1" stop-color="#5E1B34"/>
</linearGradient>
<linearGradient id="paint4_linear_5_2010" x1="52814.3" y1="49473.5" x2="52814.3" y2="41747" gradientUnits="userSpaceOnUse">
<stop stop-color="#3B1436"/>
<stop offset="1" stop-color="#311134"/>
</linearGradient>
<linearGradient id="paint5_linear_5_2010" x1="34789.1" y1="46977.4" x2="34789.1" y2="40498.4" gradientUnits="userSpaceOnUse">
<stop stop-color="#3B1436"/>
<stop offset="1" stop-color="#311134"/>
</linearGradient>
<linearGradient id="paint6_linear_5_2010" x1="-43670.6" y1="522484" x2="-43670.6" y2="17102.7" gradientUnits="userSpaceOnUse">
<stop stop-color="#3B1436"/>
<stop offset="1" stop-color="#5E1B34"/>
</linearGradient>
<linearGradient id="paint7_linear_5_2010" x1="12252.5" y1="16204.1" x2="12252.5" y2="15670.9" gradientUnits="userSpaceOnUse">
<stop stop-color="#3B1436"/>
<stop offset="1" stop-color="#311134"/>
</linearGradient>
<linearGradient id="paint8_linear_5_2010" x1="20706.1" y1="24030.8" x2="20706.1" y2="22874.1" gradientUnits="userSpaceOnUse">
<stop stop-color="#3B1436"/>
<stop offset="1" stop-color="#311134"/>
</linearGradient>
<linearGradient id="paint9_linear_5_2010" x1="8153.04" y1="26052.3" x2="8153.04" y2="24588.5" gradientUnits="userSpaceOnUse">
<stop stop-color="#3B1436"/>
<stop offset="1" stop-color="#311134"/>
</linearGradient>
<linearGradient id="paint10_linear_5_2010" x1="3084.1" y1="54993.8" x2="3084.1" y2="48747.7" gradientUnits="userSpaceOnUse">
<stop stop-color="#3B1436"/>
<stop offset="1" stop-color="#311134"/>
</linearGradient>
<linearGradient id="paint11_linear_5_2010" x1="1583.5" y1="38810.5" x2="1583.5" y2="35904" gradientUnits="userSpaceOnUse">
<stop stop-color="#3B1436"/>
<stop offset="1" stop-color="#311134"/>
</linearGradient>
<linearGradient id="paint12_linear_5_2010" x1="2946.22" y1="10038.8" x2="2946.22" y2="9873.64" gradientUnits="userSpaceOnUse">
<stop stop-color="#3B1436"/>
<stop offset="1" stop-color="#311134"/>
</linearGradient>
<linearGradient id="paint13_linear_5_2010" x1="25365.1" y1="75629.4" x2="25365.1" y2="49875.8" gradientUnits="userSpaceOnUse">
<stop stop-color="#5C214A"/>
<stop offset="1" stop-color="#4F1D4F"/>
</linearGradient>
<linearGradient id="paint14_linear_5_2010" x1="180092" y1="124486" x2="180092" y2="91695.5" gradientUnits="userSpaceOnUse">
<stop stop-color="#3B1436"/>
<stop offset="1" stop-color="#311134"/>
</linearGradient>
<linearGradient id="paint15_linear_5_2010" x1="10145" y1="6791.31" x2="10145" y2="6715.7" gradientUnits="userSpaceOnUse">
<stop stop-color="#5C214A"/>
<stop offset="1" stop-color="#4F1D4F"/>
</linearGradient>
<linearGradient id="paint16_linear_5_2010" x1="7049.86" y1="7013.48" x2="7049.86" y2="6937.87" gradientUnits="userSpaceOnUse">
<stop stop-color="#5C214A"/>
<stop offset="1" stop-color="#4F1D4F"/>
</linearGradient>
</defs>
</svg>
