<svg width="40" height="40" viewBox="0 0 40 40" fill="none" xmlns="http://www.w3.org/2000/svg">
<circle cx="20" cy="20" r="19.5" stroke="#B0BADB" stroke-opacity="0.22"/>
<path fill-rule="evenodd" clip-rule="evenodd" d="M19.5 12.625C17.3611 12.625 17.0934 12.6339 16.2534 12.6722C15.415 12.7106 14.8422 12.8439 14.3413 13.0387C13.8163 13.2361 13.3402 13.5458 12.9464 13.9469C12.546 14.3402 12.236 14.8161 12.0382 15.3413C11.8444 15.8422 11.7106 16.4155 11.6722 17.2539C11.6345 18.0934 11.625 18.3606 11.625 20.5C11.625 22.6394 11.6339 22.9066 11.6722 23.7466C11.7106 24.585 11.8439 25.1578 12.0387 25.6586C12.2361 26.1836 12.5458 26.6598 12.9469 27.0536C13.3403 27.454 13.8161 27.764 14.3413 27.9618C14.8422 28.1561 15.415 28.2894 16.2534 28.3277C17.0934 28.3661 17.3611 28.375 19.5 28.375C21.6388 28.375 21.9066 28.3661 22.7466 28.3277C23.585 28.2894 24.1578 28.1561 24.6586 27.9613C25.1836 27.7639 25.6598 27.4541 26.0536 27.053C26.454 26.6598 26.764 26.1839 26.9618 25.6586C27.1561 25.1578 27.2894 24.585 27.3277 23.7466C27.3661 22.9066 27.375 22.6388 27.375 20.5C27.375 18.3611 27.3661 18.0934 27.3277 17.2534C27.2894 16.415 27.1561 15.8422 26.9613 15.3413C26.7636 14.8159 26.4536 14.3398 26.053 13.9464C25.6598 13.546 25.1839 13.236 24.6586 13.0382C24.1578 12.8444 23.5845 12.7106 22.7461 12.6722C21.9066 12.6345 21.6394 12.625 19.5 12.625ZM19.5 14.0441C21.6026 14.0441 21.852 14.0519 22.6825 14.0897C23.4501 14.1249 23.8669 14.2525 24.1447 14.3612C24.5122 14.5034 24.7747 14.6746 25.0503 14.9497C25.3259 15.2253 25.4965 15.4878 25.6388 15.8553C25.747 16.133 25.8751 16.5499 25.9102 17.3174C25.948 18.148 25.9559 18.3974 25.9559 20.5C25.9559 22.6026 25.948 22.852 25.9102 23.6825C25.8751 24.4501 25.7475 24.8669 25.6388 25.1447C25.5128 25.4867 25.3117 25.7962 25.0503 26.0503C24.7962 26.3117 24.4868 26.5129 24.1447 26.6388C23.8669 26.747 23.4501 26.8751 22.6825 26.9102C21.852 26.948 21.6031 26.9559 19.5 26.9559C17.3968 26.9559 17.148 26.948 16.3174 26.9102C15.5499 26.8751 15.133 26.7475 14.8553 26.6388C14.5133 26.5128 14.2038 26.3117 13.9497 26.0503C13.6883 25.7962 13.4872 25.4867 13.3612 25.1447C13.253 24.8669 13.1249 24.4501 13.0897 23.6825C13.0519 22.852 13.0441 22.6026 13.0441 20.5C13.0441 18.3974 13.0519 18.148 13.0897 17.3174C13.1249 16.5499 13.2525 16.133 13.3612 15.8553C13.5034 15.4878 13.6746 15.2253 13.9497 14.9497C14.2038 14.6883 14.5132 14.4872 14.8553 14.3612C15.133 14.253 15.5499 14.1249 16.3174 14.0897C17.148 14.0519 17.3974 14.0441 19.5 14.0441V14.0441Z" fill="url(#paint0_linear_11_18)"/>
<path fill-rule="evenodd" clip-rule="evenodd" d="M19.5 23.1276C19.1549 23.1276 18.8133 23.0597 18.4945 22.9276C18.1757 22.7956 17.886 22.602 17.642 22.358C17.398 22.114 17.2044 21.8243 17.0724 21.5055C16.9403 21.1868 16.8724 20.8451 16.8724 20.5C16.8724 20.1549 16.9403 19.8132 17.0724 19.4945C17.2044 19.1757 17.398 18.886 17.642 18.642C17.886 18.398 18.1757 18.2044 18.4945 18.0724C18.8133 17.9403 19.1549 17.8724 19.5 17.8724C20.1969 17.8724 20.8652 18.1492 21.358 18.642C21.8508 19.1348 22.1276 19.8031 22.1276 20.5C22.1276 21.1969 21.8508 21.8652 21.358 22.358C20.8652 22.8508 20.1969 23.1276 19.5 23.1276V23.1276ZM19.5 16.4523C18.4265 16.4523 17.3969 16.8787 16.6378 17.6378C15.8787 18.3969 15.4523 19.4265 15.4523 20.5C15.4523 21.5735 15.8787 22.6031 16.6378 23.3622C17.3969 24.1213 18.4265 24.5478 19.5 24.5478C20.5735 24.5478 21.6031 24.1213 22.3622 23.3622C23.1213 22.6031 23.5478 21.5735 23.5478 20.5C23.5478 19.4265 23.1213 18.3969 22.3622 17.6378C21.6031 16.8787 20.5735 16.4523 19.5 16.4523V16.4523ZM24.7253 16.3788C24.7253 16.6325 24.6245 16.8759 24.4451 17.0553C24.2656 17.2348 24.0223 17.3356 23.7685 17.3356C23.5148 17.3356 23.2714 17.2348 23.0919 17.0553C22.9125 16.8759 22.8117 16.6325 22.8117 16.3788C22.8117 16.125 22.9125 15.8816 23.0919 15.7022C23.2714 15.5227 23.5148 15.4219 23.7685 15.4219C24.0223 15.4219 24.2656 15.5227 24.4451 15.7022C24.6245 15.8816 24.7253 16.125 24.7253 16.3788" fill="url(#paint1_linear_11_18)"/>
<defs>
<linearGradient id="paint0_linear_11_18" x1="19.5" y1="12.625" x2="19.5" y2="28.375" gradientUnits="userSpaceOnUse">
<stop stop-color="#6DC1F3"/>
<stop offset="1" stop-color="#F51AA8"/>
</linearGradient>
<linearGradient id="paint1_linear_11_18" x1="20.0888" y1="15.4219" x2="20.0888" y2="24.5477" gradientUnits="userSpaceOnUse">
<stop stop-color="#6DC1F3"/>
<stop offset="1" stop-color="#F51AA8"/>
</linearGradient>
</defs>
</svg>
