<svg width="40" height="40" viewBox="0 0 40 40" fill="none" xmlns="http://www.w3.org/2000/svg">
<circle cx="20" cy="20" r="19.5" stroke="#B0BADB" stroke-opacity="0.22"/>
<path d="M28 13.1029V25.8971C28 26.1896 27.8838 26.4701 27.677 26.677C27.4701 26.8838 27.1896 27 26.8971 27H14.1029C13.8104 27 13.5299 26.8838 13.323 26.677C13.1162 26.4701 13 26.1896 13 25.8971V13.1029C13 12.8104 13.1162 12.5299 13.323 12.323C13.5299 12.1162 13.8104 12 14.1029 12H26.8971C27.1896 12 27.4701 12.1162 27.677 12.323C27.8838 12.5299 28 12.8104 28 13.1029V13.1029ZM17.4118 17.7353H15.2059V24.7941H17.4118V17.7353ZM17.6103 15.3088C17.6115 15.142 17.5797 14.9765 17.517 14.8219C17.4542 14.6673 17.3616 14.5266 17.2444 14.4078C17.1272 14.289 16.9878 14.1944 16.8341 14.1295C16.6804 14.0646 16.5154 14.0306 16.3485 14.0294H16.3088C15.9695 14.0294 15.6441 14.1642 15.4041 14.4041C15.1642 14.6441 15.0294 14.9695 15.0294 15.3088C15.0294 15.6481 15.1642 15.9736 15.4041 16.2135C15.6441 16.4534 15.9695 16.5882 16.3088 16.5882V16.5882C16.4757 16.5923 16.6417 16.5635 16.7975 16.5034C16.9532 16.4433 17.0956 16.3532 17.2164 16.238C17.3373 16.1229 17.4343 15.9851 17.5019 15.8325C17.5694 15.6798 17.6063 15.5154 17.6103 15.3485V15.3088ZM25.7941 20.5059C25.7941 18.3838 24.4441 17.5588 23.1029 17.5588C22.6638 17.5368 22.2266 17.6304 21.8349 17.8301C21.4432 18.0298 21.1107 18.3287 20.8706 18.6971H20.8088V17.7353H18.7353V24.7941H20.9412V21.0397C20.9093 20.6552 21.0304 20.2736 21.2782 19.9779C21.526 19.6822 21.8805 19.4962 22.2647 19.4603H22.3485C23.05 19.4603 23.5706 19.9015 23.5706 21.0132V24.7941H25.7765L25.7941 20.5059Z" fill="url(#paint0_linear_11_15)"/>
<defs>
<linearGradient id="paint0_linear_11_15" x1="20.5" y1="12" x2="20.5" y2="27" gradientUnits="userSpaceOnUse">
<stop stop-color="#6DC1F3"/>
<stop offset="1" stop-color="#F51AA8"/>
</linearGradient>
</defs>
</svg>
