<svg width="40" height="40" viewBox="0 0 40 40" fill="none" xmlns="http://www.w3.org/2000/svg">
<circle cx="20" cy="20" r="19.5" stroke="#B0BADB" stroke-opacity="0.22"/>
<path d="M13 17.3548C13 13.2929 16.1172 10 19.9624 10C23.8076 10 26.9248 13.2929 26.9248 17.3548V27.8824C26.9248 28.4996 26.4511 29 25.8667 29H14.058C13.4737 29 13 28.4996 13 27.8824V17.3548Z" fill="url(#paint0_linear_3_5)"/>
<path fill-rule="evenodd" clip-rule="evenodd" d="M26.0975 28.0871V17.3763C26.0975 13.7865 23.3508 10.8764 19.9624 10.8764C16.574 10.8764 13.8272 13.7865 13.8272 17.3763V28.0871C13.8272 28.1073 13.8426 28.1236 13.8617 28.1236H26.0631C26.0821 28.1236 26.0975 28.1073 26.0975 28.0871ZM19.9624 10C16.1172 10 13 13.3025 13 17.3763V28.0871C13 28.5912 13.3858 29 13.8617 29H26.0631C26.539 29 26.9248 28.5912 26.9248 28.0871V17.3763C26.9248 13.3025 23.8076 10 19.9624 10Z" fill="url(#paint1_linear_3_5)"/>
<defs>
<linearGradient id="paint0_linear_3_5" x1="14.7923" y1="11.0955" x2="27.9538" y2="30.8592" gradientUnits="userSpaceOnUse">
<stop stop-color="#6DC1F3"/>
<stop offset="1" stop-color="#F51AA8" stop-opacity="0.35"/>
</linearGradient>
<linearGradient id="paint1_linear_3_5" x1="19.9624" y1="10" x2="19.9624" y2="29" gradientUnits="userSpaceOnUse">
<stop stop-color="#6DC1F3"/>
<stop offset="1" stop-color="#F51AA8"/>
</linearGradient>
</defs>
</svg>
